<?xml version="1.0" standalone="no"?>
<svg viewBox="0 0 200 200" xmlns="http://www.w3.org/2000/svg">
  <path fill="#FF0066" d="M21.3,-50.8C21.6,-36.7,11.8,-18.9,16.8,-9.8C21.7,-0.8,41.4,-0.4,49.5,4.7C57.7,9.8,54.3,19.6,52.4,34C50.5,48.3,50.1,67.2,41.7,78.2C33.2,89.1,16.6,92,1.6,89.2C-13.3,86.3,-26.6,77.7,-38.7,68.9C-50.9,60.1,-61.8,51.1,-69.4,39.5C-77,28,-81.1,14,-82.9,-1C-84.7,-16.1,-84.2,-32.2,-76,-42.6C-67.8,-53,-51.9,-57.7,-38,-64C-24,-70.3,-12,-78.1,-0.8,-76.7C10.5,-75.4,21,-64.9,21.3,-50.8Z" transform="translate(100 100)" />
</svg>
