<?xml version="1.0" standalone="no"?>
<svg viewBox="0 0 200 200" xmlns="http://www.w3.org/2000/svg">
  <path fill="#FF0066" d="M20.4,-26.7C33.2,-27.9,55,-36.1,65.8,-32.8C76.7,-29.6,76.6,-14.8,74.6,-1.1C72.7,12.5,68.9,25,64.1,38.9C59.4,52.8,53.7,68,42.9,67.9C32,67.7,16,52.2,2.5,48C-11.1,43.7,-22.2,50.7,-36.2,52.6C-50.3,54.6,-67.3,51.6,-64.5,42C-61.7,32.4,-39.1,16.2,-34.4,2.7C-29.7,-10.8,-42.9,-21.6,-43.6,-27.5C-44.3,-33.5,-32.4,-34.6,-23.1,-35.3C-13.7,-36.1,-6.9,-36.5,-1.5,-33.9C3.8,-31.2,7.6,-25.4,20.4,-26.7Z" transform="translate(100 100)" />
</svg>
