<?xml version="1.0" standalone="no"?>
<svg viewBox="0 0 200 200" xmlns="http://www.w3.org/2000/svg">
  <path fill="#FF0066" d="M44.7,-56.5C60.3,-50.2,77.1,-40.3,77.9,-27.7C78.6,-15.1,63.4,0.3,57,18.1C50.6,35.9,53.1,56.2,45.1,64.6C37.1,73,18.5,69.5,0.9,68.3C-16.8,67.1,-33.6,68.2,-46.1,61.3C-58.6,54.4,-66.9,39.4,-70.7,23.9C-74.6,8.3,-74.1,-7.8,-70.5,-24.2C-66.9,-40.5,-60.3,-57.2,-48,-64.6C-35.8,-72.1,-17.9,-70.4,-1.7,-68.1C14.5,-65.8,29.1,-62.9,44.7,-56.5Z" transform="translate(100 100)" />
</svg>
