<svg viewBox="0 0 1000 1000" xmlns="http://www.w3.org/2000/svg"><defs><clipPath id="a"><path fill="currentColor" d="M871.5 666.5q-38.5 166.5-205 250t-313-20Q207 793 116 646.5t-4-297Q199 199 349.5 123t292.5 8.5Q784 216 847 358t24.5 308.5Z"/></clipPath></defs><g clip-path="url(#a)"><path fill="#d9dbfd" d="M871.5 666.5q-38.5 166.5-205 250t-313-20Q207 793 116 646.5t-4-297Q199 199 349.5 123t292.5 8.5Q784 216 847 358t24.5 308.5Z"/></g></svg>


<svg viewBox="0 0 1000 1000" xmlns="http://www.w3.org/2000/svg"><defs><clipPath id="a"><path fill="currentColor" d="M871.5 666.5q-38.5 166.5-205 250t-313-20Q207 793 116 646.5t-4-297Q199 199 349.5 123t292.5 8.5Q784 216 847 358t24.5 308.5Z"/></clipPath></defs><g clip-path="url(#a)"><path fill="#d9dbfd" d="M871.5 666.5q-38.5 166.5-205 250t-313-20Q207 793 116 646.5t-4-297Q199 199 349.5 123t292.5 8.5Q784 216 847 358t24.5 308.5Z"/></g></svg>




border-radius: 67% 33% 68% 32% / 30% 52% 48% 70%;

<svg viewBox="0 0 100 100" xmlns="http://www.w3.org/2000/svg"><path d="M87,60.5Q75,71,66.5,82Q58,93,45,87.5Q32,82,17.5,74.5Q3,67,4.5,50.5Q6,34,20,28Q34,22,46,14.5Q58,7,68,17Q78,27,88.5,38.5Q99,50,87,60.5Z" stroke="none" stroke-width="0" fill="#4F46E5"></path></svg>




<svg viewBox="0 0 100 100" xmlns="http://www.w3.org/2000/svg"><path d="M87,60.5Q75,71,66.5,82Q58,93,45,87.5Q32,82,17.5,74.5Q3,67,4.5,50.5Q6,34,20,28Q34,22,46,14.5Q58,7,68,17Q78,27,88.5,38.5Q99,50,87,60.5Z" stroke="none" stroke-width="0" fill="#4F46E5"></path></svg>


<svg viewBox="0 0 100 100" xmlns="http://www.w3.org/2000/svg"><path d="M87,60.5Q75,71,66.5,82Q58,93,45,87.5Q32,82,17.5,74.5Q3,67,4.5,50.5Q6,34,20,28Q34,22,46,14.5Q58,7,68,17Q78,27,88.5,38.5Q99,50,87,60.5Z" stroke="none" stroke-width="0" fill="#4F46E5"></path></svg>


<svg id="10015.io" viewBox="0 0 480 480" xmlns="http://www.w3.org/2000/svg" xmlns:xlink="http://www.w3.org/1999/xlink" >
	<path fill="#474bff" d="M444.5,290Q413,340,379,380.5Q345,421,292.5,445Q240,469,191.5,438Q143,407,100.5,376Q58,345,49,292.5Q40,240,38,181Q36,122,87.5,93.5Q139,65,189.5,46Q240,27,288,50Q336,73,385.5,100Q435,127,455.5,183.5Q476,240,444.5,290Z" />
</svg>


<svg id="10015.io" viewBox="0 0 480 480" xmlns="http://www.w3.org/2000/svg" xmlns:xlink="http://www.w3.org/1999/xlink" >
	<path fill="#474bff" d="M387.5,310Q321,380,230.5,397Q140,414,90.5,327Q41,240,81.5,138Q122,36,220.5,69.5Q319,103,386.5,171.5Q454,240,387.5,310Z" />
</svg>


<svg xmlns="http://www.w3.org/2000/svg" version="1.1" xmlns:xlink="http://www.w3.org/1999/xlink" xmlns:svgjs="http://svgjs.dev/svgjs" viewBox="0 0 600 600"><path d="M95.41884391345206 354.97381288218793C65.83769385852042 326.1780034542908 66.88481554227694 262.4345571041931 93.84816520251456 232.46073609996137C120.81151486275218 202.4869150957296 213.0889933987222 196.07329637217816 257.19894187487785 175.1308868567973C301.3088903510334 154.18847734141644 321.2041883551838 119.63350373912152 358.50785605944816 106.80627900767621C395.8115237637125 93.9790542762309 462.95812257963047 70.02617723155316 481.0209481004638 98.16753846812543C499.08377362129704 126.3088997046977 466.0994698289794 220.68062542287802 466.88480918444816 275.6544464271098C467.6701485399169 330.62826743134156 507.19895204740396 392.93193259247437 485.7329842332763 428.01046449351605C464.2670164191486 463.08899639455774 373.82198874987785 489.92144980438843 338.08900229968253 486.1256378333598C302.3560158494872 482.3298258623312 311.7800919298095 427.0942301592062 271.3350655321044 405.2355926673442C230.89003913439933 383.3769551754822 124.9999939683837 383.7696223100851 95.41884391345206 354.97381288218793C65.83769385852042 326.1780034542908 66.88481554227694 262.4345571041931 93.84816520251456 232.46073609996137 " fill="hsl(340, 45%, 50%)" transform="matrix(1.2155062500000016,-1.1470605715269147e-15,1.1470605715269147e-15,1.2155062500000016,-43.7090784487732,-47.34841017680179)"></path></svg>