<!--?xml version="1.0" standalone="no"?-->
              <svg id="sw-js-blob-svg" viewBox="0 0 100 100" xmlns="http://www.w3.org/2000/svg" version="1.1">
                    <!-- <defs> 
                        <linearGradient id="sw-gradient" x1="0" x2="1" y1="1" y2="0">
                            <stop id="stop1" stop-color="rgba(248, 117, 55, 1)" offset="0%"></stop>
                            <stop id="stop2" stop-color="rgba(247.102, 164.437, 27.989, 1)" offset="100%"></stop>
                        </linearGradient>
                    </defs> -->
                <path  d="M19.6,-24.3C27.1,-21.5,36.1,-18.1,38.7,-12.1C41.2,-6.2,37.3,2.3,33.4,9.7C29.4,17.1,25.5,23.3,19.9,28.8C14.3,34.2,7.2,38.9,0.1,38.7C-6.9,38.6,-13.9,33.6,-21.6,28.9C-29.4,24.1,-37.9,19.6,-39.9,13C-41.9,6.5,-37.4,-2.1,-34.3,-10.9C-31.1,-19.8,-29.3,-28.8,-23.8,-32.3C-18.3,-35.9,-9.2,-33.9,-1.6,-31.7C6,-29.6,12,-27.2,19.6,-24.3Z" width="25%" height="25%" transform="translate(50 50)"  ></path>
              </svg>