<!--?xml version="1.0" standalone="no"?-->
              <svg id="sw-js-blob-svg" viewBox="0 0 100 100" xmlns="http://www.w3.org/2000/svg" version="1.1">
                    <defs> 
                        <linearGradient id="sw-gradient" x1="0" x2="1" y1="1" y2="0">
                            <stop id="stop1" stop-color="rgba(248, 117, 55, 1)" offset="0%"></stop>
                            <stop id="stop2" stop-color="rgba(251, 168, 31, 1)" offset="100%"></stop>
                        </linearGradient>
                    </defs>
                <path fill="none" d="M22.6,-30.5C28.2,-27.1,30.9,-19,33.1,-11C35.3,-3.1,37,4.8,35.4,12.1C33.9,19.5,29,26.3,22.6,32.5C16.1,38.6,8,44,0.3,43.6C-7.4,43.1,-14.7,36.7,-20.7,30.4C-26.7,24.1,-31.3,17.9,-33.8,10.8C-36.3,3.8,-36.7,-4.2,-33.9,-10.5C-31.1,-16.8,-25.1,-21.5,-18.9,-24.8C-12.7,-28,-6.4,-29.7,1.1,-31.2C8.5,-32.7,17,-33.9,22.6,-30.5Z" width="100%" height="100%" transform="translate(50 50)" stroke-width="1" style="transition: 0.3s;" stroke="rgba(248, 117, 55, 1)"></path>
              </svg>