<?xml version="1.0" encoding="utf-8"?>
<!-- Generator: Adobe Illustrator 25.3.0, SVG Export Plug-In . SVG Version: 6.00 Build 0)  -->
<svg version="1.1" id="sw-js-blob-svg" xmlns="http://www.w3.org/2000/svg" xmlns:xlink="http://www.w3.org/1999/xlink" x="0px"
	 y="0px" viewBox="0 0 100 100" style="enable-background:new 0 0 100 100;" xml:space="preserve">
<style type="text/css">
	.st0{fill:none;stroke:#000000;stroke-miterlimit:10;}
</style>
<path class="st0" d="M70.4,21.5c7.5,5.8,16,9.9,19.3,16.5c3.4,6.6,1.7,15.7-1.5,24c-3.3,8.2-8.1,15.5-14.7,19.5
	c-6.6,3.9-15.1,4.5-24.1,5.3c-9.1,0.9-18.8,2-24.4-2.2c-5.7-4.3-7.4-13.9-7.3-22.1c0.1-8.2,1.9-15,4.3-21.4
	c2.4-6.3,5.4-12.2,10.1-18.9c4.8-6.7,11.4-14.1,17.9-14C56.5,8.2,63,15.7,70.4,21.5z"/>
</svg>
