<?xml version="1.0" encoding="utf-8"?>
<!-- Generator: Adobe Illustrator 25.3.0, SVG Export Plug-In . SVG Version: 6.00 Build 0)  -->
<svg version="1.1" id="Calque_1" xmlns="http://www.w3.org/2000/svg" xmlns:xlink="http://www.w3.org/1999/xlink" x="0px" y="0px"
	 viewBox="0 0 600 400" style="enable-background:new 0 0 600 400;" xml:space="preserve">
<style type="text/css">
	.Ombre_x0020_portée{fill:none;}
	.Lueur_x0020_externe_x0020_5 pt{fill:none;}
	.Néon_x0020_bleu{fill:none;stroke:#8AACDA;stroke-width:7;stroke-linecap:round;stroke-linejoin:round;}
	.Ton_x0020_clair_x0020_chrome{fill:url(#SVGID_1_);stroke:#FFFFFF;stroke-width:0.3629;stroke-miterlimit:1;}
	.Swing_GS{fill:#FFDD00;}
	.Alysse_GS{fill:#A6D0E4;}
	.st0{fill:#333333;}
</style>
<linearGradient id="SVGID_1_" gradientUnits="userSpaceOnUse" x1="0" y1="0" x2="6.123234e-17" y2="-1">
	<stop  offset="0" style="stop-color:#656565"/>
	<stop  offset="0.618" style="stop-color:#1B1B1B"/>
	<stop  offset="0.6292" style="stop-color:#545454"/>
	<stop  offset="0.9831" style="stop-color:#3E3E3E"/>
</linearGradient>
<image style="display:none;overflow:visible;" width="612" height="408" xlink:href="../image/page-qui-suis-je/600x600-rh.jpg"  transform="matrix(0.24 0 0 0.24 226.56 144)">
</image>
<g>
	<path class="st0" d="M541.2,111v210.5c0,11.9-9.9,21.8-21.8,21.8h-1.2c-11.9,0-21.8-9.9-21.8-21.8V111c0-11.9,9.9-21.8,21.8-21.8
		h0.8C531.3,89.1,541.2,98.6,541.2,111z"/>
	<path class="st0" d="M492.4,63.3v210.5c0,11.9-9.9,21.8-21.8,21.8h-1.2c-11.9,0-21.8-9.9-21.8-21.8V63.3c0-11.9,9.9-21.8,21.8-21.8
		h0.8C482.5,41.4,492.4,51,492.4,63.3z"/>
	<path class="st0" d="M443.7,32.5V243c0,11.9-9.9,21.8-21.8,21.8h-1.2c-11.9,0-21.8-9.9-21.8-21.8V32.5c0-11.9,9.9-21.8,21.8-21.8
		h0.8C433.8,10.6,443.7,20.2,443.7,32.5z"/>
	<path class="st0" d="M394.9,157.1v211c0,11.9-9.9,21.9-21.8,21.9h-1.2c-11.9,0-21.8-10-21.8-21.9v-211c0-11.9,9.9-21.9,21.8-21.9
		h0.8C385,135.2,394.9,144.7,394.9,157.1z"/>
	<path class="st0" d="M346.1,62.7v211c0,11.9-9.9,21.9-21.8,21.9h-1.2c-11.9,0-21.8-10-21.8-21.9v-211c0-11.9,9.9-21.9,21.8-21.9
		h0.8C336.2,40.8,346.1,50.4,346.1,62.7z"/>
	<path class="st0" d="M297.3,31.9v211c0,11.9-9.9,21.9-21.8,21.9h-1.2c-11.9,0-21.8-10-21.8-21.9v-211c0-11.9,9.9-21.9,21.8-21.9
		h0.8C287.4,10,297.3,19.6,297.3,31.9z"/>
	<path class="st0" d="M248.5,157.7v210.5c0,11.9-9.9,21.8-21.8,21.8h-1.2c-11.9,0-21.8-9.9-21.8-21.8V157.7
		c0-11.9,9.9-21.8,21.8-21.8h0.8C238.7,135.8,248.5,145.3,248.5,157.7z"/>
	<path class="st0" d="M199.8,111v210.5c0,11.9-9.9,21.8-21.8,21.8h-1.2c-11.9,0-21.8-9.9-21.8-21.8V111c0-11.9,9.9-21.8,21.8-21.8
		h0.8C189.9,89.1,199.8,98.6,199.8,111z"/>
	<path class="st0" d="M151,63.3v210.5c0,11.9-9.9,21.8-21.8,21.8H128c-11.9,0-21.8-9.9-21.8-21.8V63.3c0-11.9,9.9-21.8,21.8-21.8
		h0.8C141.1,41.4,151,51,151,63.3z"/>
	<path class="st0" d="M590,63.3v210.5c0,11.9-9.9,21.8-21.8,21.8H567c-11.9,0-21.8-9.9-21.8-21.8V63.3c0-11.9,9.9-21.8,21.8-21.8
		h0.8C580.1,41.4,590,51,590,63.3z"/>
	<path class="st0" d="M102.2,107v210.5c0,11.9-9.9,21.8-21.8,21.8h-1.2c-11.9,0-21.8-9.9-21.8-21.8V107c0-11.9,9.9-21.8,21.8-21.8
		H80C92.3,85.1,102.2,94.7,102.2,107z"/>
	<path class="st0" d="M54.7,157.6v210.5c0,11.9-9.9,21.8-21.8,21.8h-1.2c-11.9,0-21.8-9.9-21.8-21.8V157.6
		c0-11.9,9.9-21.8,21.8-21.8h0.8C44.8,135.8,54.7,145.3,54.7,157.6z"/>
</g>
</svg>
