<?xml version="1.0" encoding="utf-8"?>
<!-- Generator: Adobe Illustrator 25.3.0, SVG Export Plug-In . SVG Version: 6.00 Build 0)  -->
<svg version="1.1" id="Calque_1" xmlns="http://www.w3.org/2000/svg" xmlns:xlink="http://www.w3.org/1999/xlink" x="0px" y="0px"
	 viewBox="0 0 500 500" style="enable-background:new 0 0 500 500;" xml:space="preserve">
<style type="text/css">
	.Ombre_x0020_portée{fill:none;}
	.Lueur_x0020_externe_x0020_5 pt{fill:none;}
	.Néon_x0020_bleu{fill:none;stroke:#8AACDA;stroke-width:7;stroke-linecap:round;stroke-linejoin:round;}
	.Ton_x0020_clair_x0020_chrome{fill:url(#SVGID_1_);stroke:#FFFFFF;stroke-width:0.3629;stroke-miterlimit:1;}
	.Swing_GS{fill:#FFDD00;}
	.Alysse_GS{fill:#A6D0E4;}
	.st0{fill:none;stroke:#000000;stroke-width:2;stroke-miterlimit:10;}
	.st1{fill:none;stroke:#000000;stroke-width:6;stroke-miterlimit:10;}
	.st2{display:none;}
</style>
<linearGradient id="SVGID_1_" gradientUnits="userSpaceOnUse" x1="0" y1="0" x2="6.123234e-17" y2="-1">
	<stop  offset="0" style="stop-color:#656565"/>
	<stop  offset="0.618" style="stop-color:#1B1B1B"/>
	<stop  offset="0.6292" style="stop-color:#545454"/>
	<stop  offset="0.9831" style="stop-color:#3E3E3E"/>
</linearGradient>
<path d="M328.21,202.95c-5.86-9.59-21.71-14.3-47.55-14.14c-18.16,0.14-31.37,2.77-39.62,7.9c-8.47,5.08-12.63,11.27-12.49,18.59
	c0,3.38,0.89,6.6,2.66,9.68c1.84,3.21,4.78,6.09,8.8,8.63c7.84,5.54,21.83,8.36,41.95,8.47c13.1-0.05,23.64-1.63,31.62-4.74
	c7.98-2.97,13.37-6.86,16.17-11.67h14.84c-3.08,5.9-9.7,10.83-19.88,14.79c-10.25,4.15-25.45,6.28-45.61,6.39
	c-23.1-0.16-39.73-3.32-49.91-9.47c-10.25-5.96-15.31-13.27-15.17-21.94c0.14-11.33,6.87-19.43,20.19-24.28
	c12.98-4.8,29.69-7.18,50.12-7.12c32.59,0.05,52.14,6.36,58.63,18.91H328.21z"/>
<path d="M383.18,227.49c1.43,5.25,6.1,9,14.01,11.27c7.84,2.27,17.62,3.38,29.35,3.33c13.55-0.05,23.4-1.32,29.53-3.81
	c5.86-2.38,8.79-5.22,8.79-8.55c0-2.32-1.26-4.23-3.78-5.71c-2.52-1.46-6-2.62-10.43-3.48c-4.36-0.94-9.2-1.7-14.52-2.27
	c-5.45-0.54-11.18-1.07-17.17-1.58c-5.73-0.54-11.28-1.17-16.66-1.9c-5.45-0.7-10.43-1.66-14.92-2.88
	c-4.16-1.22-7.57-2.8-10.22-4.74c-2.79-1.89-4.19-4.27-4.19-7.13c0-4.32,4.32-8.06,12.95-11.22c8.64-3.08,21.32-4.67,38.04-4.78
	c16.93,0.05,29.65,1.8,38.15,5.23c8.37,3.38,12.48,7.58,12.34,12.6h-13.49c-0.14-4.54-3.85-7.89-11.13-10.06
	c-7.22-2-15.83-3-25.84-3c-14.85,0.14-25.22,1.55-31.13,4.25c-5.91,2.7-8.23,5.68-6.97,8.94c0.84,1.89,2.95,3.41,6.33,4.57
	c3.17,1.21,7.03,2.17,11.61,2.87c4.64,0.73,9.74,1.34,15.3,1.82c5.43,0.51,10.97,1.01,16.6,1.5c5.77,0.46,11.27,1.04,16.49,1.74
	c5.22,0.73,9.86,1.73,13.91,3c4.12,1.21,7.35,2.77,9.69,4.65c2.4,1.97,3.61,4.4,3.61,7.29c-0.55,11.44-18.99,17.24-55.33,17.4
	c-16.09,0-29.08-1.63-38.96-4.89c-10.65-3.21-16.05-8.03-16.19-14.48H383.18z"/>
<g>
	<path d="M240.37,281.82c-1.41-4.85-4.67-7.31-9.79-7.39c-3.88,0.08-6.68,1.46-8.42,4.14c-1.83,2.66-2.72,5.69-2.67,9.09
		c0,3.36,0.87,6.35,2.61,8.95c1.74,2.68,4.57,4.06,8.49,4.14c5.76-0.08,9.13-2.87,10.1-8.36h4.07c-0.62,3.49-2.1,6.27-4.44,8.33
		c-2.34,2.12-5.58,3.21-9.72,3.25c-5.18-0.08-8.99-1.66-11.46-4.75c-2.46-3.05-3.69-6.9-3.69-11.57c0-4.49,1.31-8.34,3.94-11.54
		c2.55-3.18,6.28-4.81,11.21-4.89c7.74-0.06,12.29,3.48,13.66,10.61H240.37z"/>
	<path d="M266.66,303.96c-4.33-0.04-7.91-1.45-10.75-4.22c-2.96-2.71-4.46-6.77-4.5-12.16c0-4.69,1.27-8.57,3.82-11.66
		c2.55-3.07,6.36-4.64,11.43-4.72c5.14,0.08,8.98,1.65,11.53,4.72c2.51,3.09,3.76,6.97,3.76,11.66c-0.04,5-1.42,8.94-4.13,11.81
		C275.1,302.4,271.38,303.92,266.66,303.96z M277.91,287.6c0.04-3.77-0.81-6.9-2.56-9.39c-1.74-2.48-4.64-3.74-8.69-3.78
		c-3.99,0.08-6.86,1.42-8.6,4.02c-1.75,2.6-2.62,5.65-2.62,9.15c0,3.91,0.98,7.05,2.93,9.42c1.87,2.44,4.63,3.69,8.29,3.73
		c4.01-0.04,6.91-1.4,8.69-4.08C277.06,294.06,277.91,291.04,277.91,287.6z"/>
	<path d="M305.27,285c0.77-0.1,1.64-0.22,2.62-0.38c0.93-0.2,1.74-0.41,2.43-0.64c0.62-0.33,1.03-0.81,1.21-1.44
		c0.12-0.64,0.19-1.25,0.19-1.82c0-1.88-0.62-3.39-1.87-4.54c-1.27-1.13-3.39-1.72-6.38-1.76c-2.61-0.04-4.77,0.44-6.47,1.44
		c-1.66,1.05-2.71,2.92-3.14,5.6h-3.89c0.39-3.65,1.84-6.3,4.35-7.94c2.48-1.54,5.56-2.31,9.23-2.31c3.42,0,6.25,0.69,8.51,2.08
		c2.24,1.48,3.39,4,3.45,7.56v16.93c-0.06,1.35,0.21,2.21,0.81,2.58c0.56,0.39,1.63,0.33,3.2-0.18v2.81
		c-0.27,0.08-0.67,0.18-1.21,0.29c-0.6,0.2-1.2,0.29-1.79,0.29c-0.58,0-1.14-0.06-1.7-0.17c-1.22-0.23-2.02-0.79-2.41-1.66
		c-0.37-0.87-0.58-1.84-0.62-2.91c-3.32,3.38-7.42,5.09-12.31,5.13c-2.96,0-5.5-0.76-7.62-2.28c-2.22-1.44-3.35-3.66-3.39-6.65
		c0-5.25,3.84-8.37,11.51-9.37L305.27,285z M311.72,286.8c-1.62,0.57-3.26,0.97-4.92,1.2c-1.66,0.27-3.32,0.45-4.99,0.53
		c-6.13,0.33-9.23,2.54-9.32,6.63c0.04,1.84,0.79,3.22,2.24,4.14c1.41,0.96,3.05,1.44,4.92,1.44c3.18,0,5.96-0.74,8.35-2.23
		c2.39-1.43,3.62-3.71,3.71-6.83V286.8z"/>
	<path d="M350,281.82c-1.41-4.85-4.67-7.31-9.79-7.39c-3.88,0.08-6.68,1.46-8.42,4.14c-1.82,2.66-2.72,5.69-2.67,9.09
		c0,3.36,0.87,6.35,2.61,8.95c1.74,2.68,4.57,4.06,8.49,4.14c5.76-0.08,9.13-2.87,10.1-8.36h4.07c-0.62,3.49-2.1,6.27-4.44,8.33
		c-2.34,2.12-5.58,3.21-9.72,3.25c-5.18-0.08-8.99-1.66-11.46-4.75c-2.46-3.05-3.7-6.9-3.7-11.57c0-4.49,1.31-8.34,3.94-11.54
		c2.55-3.18,6.28-4.81,11.21-4.89c7.74-0.06,12.29,3.48,13.66,10.61H350z"/>
	<path d="M363.22,303.11v-43.18H367v16.44c1.49-1.6,3.09-2.86,4.79-3.78c1.66-0.92,3.61-1.38,5.84-1.38
		c4.21-0.1,7.56,1.38,10.07,4.42c0.8,1.07,1.28,2.2,1.44,3.37c0.12,1.19,0.18,2.45,0.18,3.78v20.33h-3.78v-20.28
		c0.09-5.61-2.76-8.41-8.53-8.41c-2.39,0.04-4.35,0.64-5.88,1.82c-1.51,1.15-2.61,2.57-3.3,4.25c-0.6,1.88-0.88,3.84-0.84,5.89
		v16.73H363.22z"/>
	<path d="M400.14,265.25v-5.33h4.17v5.33H400.14z M400.34,303.11v-31.08h3.78v31.08H400.34z"/>
	<path d="M418.14,303.11h-3.78v-31.08h3.78v4.31c1.49-1.59,3.09-2.85,4.79-3.76c1.66-0.91,3.61-1.37,5.84-1.37
		c4.21-0.1,7.56,1.38,10.07,4.42c0.8,1.07,1.28,2.2,1.44,3.37c0.12,1.19,0.18,2.45,0.18,3.78v20.33h-3.78v-20.28
		c0.09-5.61-2.76-8.41-8.53-8.41c-2.39,0.04-4.35,0.65-5.88,1.82c-1.51,1.15-2.61,2.57-3.3,4.25c-0.6,1.88-0.88,3.84-0.84,5.89
		V303.11z"/>
	<path d="M476.38,272.03h3.78v28.1c0.11,4.28-0.89,7.91-2.99,10.9c-2.16,3.12-6.31,4.73-12.47,4.8c-4.81-0.08-8.29-1.11-10.45-3.11
		c-1.14-0.92-1.99-1.9-2.55-2.96c-0.56-1-0.88-1.95-0.96-2.87h4.08c0.64,2.29,1.88,3.81,3.7,4.57c1.83,0.76,3.89,1.14,6.19,1.14
		c2.63-0.06,4.74-0.51,6.32-1.35c1.56-0.78,2.74-1.87,3.55-3.28c0.81-1.4,1.34-2.94,1.59-4.62c0.23-1.72,0.3-3.45,0.22-5.21
		c-1.29,1.87-2.97,3.27-5.04,4.23c-2.09,1.05-4.34,1.57-6.75,1.57c-5.02-0.08-8.72-1.76-11.1-5.04c-2.41-3.16-3.61-6.96-3.61-11.4
		c-0.04-4.73,1.12-8.61,3.48-11.66c2.38-3.07,6.19-4.62,11.42-4.66c2.2,0,4.39,0.52,6.56,1.55c2.12,1.08,3.74,2.66,4.88,4.75h0.16
		V272.03z M476.38,287.71c0-3.85-0.95-7.02-2.84-9.5c-1.91-2.48-4.69-3.74-8.35-3.78c-3.26,0-5.92,1.05-7.98,3.14
		c-2.08,2.11-3.18,5.13-3.3,9.07c-0.13,4.01,0.74,7.31,2.62,9.92c1.83,2.76,4.71,4.16,8.66,4.2c3.53-0.04,6.27-1.34,8.23-3.9
		C475.39,294.31,476.38,291.27,476.38,287.71z"/>
</g>
<line class="st0" x1="190" y1="183" x2="190" y2="316"/>
<circle class="st1" cx="87" cy="250" r="65"/>
<polygon points="86.95,170.28 93,188 80.9,188 "/>
<polygon points="166.72,250.14 149,256.19 149,244.09 "/>
<polygon points="7.28,250.14 25,244.09 25,256.19 "/>
<polygon points="86.95,329.72 80.9,312 93,312 "/>
<circle class="st2" cx="86.5" cy="249.5" r="6.5"/>
<path d="M95.41,251.48l-3.46-2c-0.18-1.5-1.05-2.92-2.46-3.73c-1.41-0.82-3.07-0.86-4.46-0.27l-3.74-2.16l34.07-42.69L95.41,251.48z
	"/>
<path d="M92.41,256.68l-34.07,42.69l19.93-50.85l3.74,2.16c0.18,1.5,1.05,2.92,2.46,3.73c1.41,0.82,3.07,0.86,4.46,0.27
	L92.41,256.68z"/>
</svg>
