<?xml version="1.0" encoding="utf-8"?>
<!-- Generator: Adobe Illustrator 25.3.0, SVG Export Plug-In . SVG Version: 6.00 Build 0)  -->
<svg version="1.1" id="Calque_1" xmlns="http://www.w3.org/2000/svg" xmlns:xlink="http://www.w3.org/1999/xlink" x="0px" y="0px"
	 viewBox="0 0 490 130" style="enable-background:new 0 0 490 130;" xml:space="preserve">
<style type="text/css">
	.Ombre_x0020_portée{fill:none;}
	.Lueur_x0020_externe_x0020_5 pt{fill:none;}
	.Néon_x0020_bleu{fill:none;stroke:#8AACDA;stroke-width:7;stroke-linecap:round;stroke-linejoin:round;}
	.Ton_x0020_clair_x0020_chrome{fill:url(#SVGID_1_);stroke:#FFFFFF;stroke-width:0.3629;stroke-miterlimit:1;}
	.Swing_GS{fill:#FFDD00;}
	.Alysse_GS{fill:#A6D0E4;}
	.st0{fill:#9CD008;}
	.st1{fill:#1BA4E3;}
</style>
<linearGradient id="SVGID_1_" gradientUnits="userSpaceOnUse" x1="-2.6108" y1="-184.3566" x2="-2.6108" y2="-185.3566">
	<stop  offset="0" style="stop-color:#656565"/>
	<stop  offset="0.618" style="stop-color:#1B1B1B"/>
	<stop  offset="0.6292" style="stop-color:#545454"/>
	<stop  offset="0.9831" style="stop-color:#3E3E3E"/>
</linearGradient>
<g>
	<path class="st0" d="M139.42,59.65c0,9.52,2.8,16.73,8.39,21.66c5.59,4.93,14.24,7.39,25.95,7.39c2.48,0,4.97-0.09,7.47-0.26
		c3.11-7.24,4.84-15.15,4.84-23.44c0-13.75-4.73-26.46-12.72-36.79c-12.38,0.01-21.13,2.71-26.24,8.08
		C141.99,41.68,139.42,49.47,139.42,59.65z"/>
	<path class="st0" d="M86.98,18.14c6.7,0,13.01,0.34,18.94,1.01c5.92,0.67,10.56,1.43,13.91,2.27v12.12
		c-9.1-2.44-19.15-3.66-30.16-3.66c-8.62,0-15.32,0.8-20.1,2.4c-4.79,1.6-7.18,4.5-7.18,8.71c0,2.44,0.84,4.42,2.51,5.94
		c1.67,1.52,4.58,2.82,8.71,3.92c4.13,1.1,9.84,2.32,17.14,3.66c9.45,1.69,16.78,3.68,21.99,6c4.67,2.08,8.08,4.47,10.25,7.15
		c-0.43-2.54-0.65-5.21-0.65-8.01c0-8.92,1.79-16.61,5.36-23.05c3.57-6.44,9.04-11.41,16.39-14.9c5.08-2.41,11.14-3.97,18.14-4.72
		C150.75,7.95,136.01,2.5,119.95,2.5c-17,0-32.52,6.1-44.25,16.1C79.19,18.29,82.94,18.14,86.98,18.14z"/>
	<path class="st0" d="M100.17,88.1c4.6-1.52,6.91-4.55,6.91-9.09c0-2.78-0.96-5.01-2.87-6.69c-1.92-1.68-5.09-3.14-9.51-4.36
		c-4.43-1.22-10.53-2.5-18.31-3.85c-9.57-1.75-16.93-3.86-22.12-6.33c-0.29,2.37-0.46,4.78-0.46,7.22c0,8.37,1.76,16.35,4.93,23.65
		c1,0.16,1.99,0.32,3.01,0.47c5.92,0.84,11.82,1.26,17.68,1.26C88.65,90.37,95.56,89.62,100.17,88.1z"/>
	<path class="st0" d="M172.36,100.32c-16.47,0-28.92-3.66-37.37-10.99c-3.42-2.97-6.14-6.37-8.17-10.18
		c-0.05,7.09-3.82,12.66-11.3,16.72c-7.54,4.08-18.97,6.13-34.28,6.13c-5.36,0-10.33-0.18-14.94-0.52
		c12.02,15.75,31.58,26.03,53.65,26.03c22.62,0,42.61-10.79,54.54-27.21C173.78,100.3,173.08,100.32,172.36,100.32z"/>
</g>
<g>
	<path class="st1" d="M29.74,88.86c-8.15,0-14.31-2.02-18.48-6.05C7.09,78.78,5,72.95,5,65.33c0-7.94,2.3-13.84,6.9-17.72
		c4.6-3.87,10.74-5.81,18.44-5.81c3.19,0,5.88,0.22,8.07,0.67c2.18,0.45,4.29,1.14,6.31,2.1v7.72c-3.39-1.65-7.5-2.48-12.32-2.48
		c-5.35,0-9.45,1.16-12.32,3.48c-2.87,2.32-4.3,6.33-4.3,12.05c0,5.4,1.27,9.35,3.81,11.86c2.54,2.51,6.75,3.76,12.62,3.76
		c4.63,0,8.83-0.86,12.62-2.57v7.91c-2.15,0.83-4.45,1.46-6.89,1.91C35.47,88.64,32.74,88.86,29.74,88.86z"/>
	<path class="st1" d="M213.61,91.05c-2.93,0-5.66-0.5-8.17-1.51c-2.51-1-4.52-2.53-6.02-4.56c-1.5-2.04-2.25-4.56-2.25-7.57
		c0-4.27,1.52-7.7,4.55-10.3c3.03-2.6,7.71-3.9,14.03-3.9h14.87v-1.98c0-2.13-0.34-3.83-1.03-5.08c-0.68-1.25-1.92-2.16-3.72-2.73
		c-1.79-0.56-4.42-0.85-7.87-0.85c-5.48,0-10.6,0.79-15.35,2.35V47.3c2.09-0.81,4.63-1.47,7.63-1.98c3-0.5,6.23-0.75,9.68-0.75
		c6.78,0,11.95,1.32,15.5,3.95c3.55,2.63,5.33,6.93,5.33,12.89v28.7h-9.1l-0.68-4.52c-1.89,1.76-4.22,3.1-6.99,4.05
		C221.25,90.58,217.78,91.05,213.61,91.05z M216.44,83.71c3.19,0,5.98-0.52,8.36-1.55c2.38-1.03,4.32-2.43,5.82-4.19v-7.81h-14.67
		c-3.13,0-5.4,0.58-6.8,1.74c-1.4,1.16-2.1,2.93-2.1,5.32c0,2.32,0.81,3.98,2.45,4.99C211.13,83.21,213.44,83.71,216.44,83.71z"/>
	<path class="st1" d="M275.42,91.05c-8.15,0-14.31-1.99-18.48-5.97c-4.17-3.98-6.26-9.74-6.26-17.27c0-7.84,2.3-13.67,6.89-17.5
		c4.6-3.83,10.74-5.74,18.44-5.74c3.19,0,5.88,0.22,8.07,0.66c2.18,0.44,4.29,1.13,6.31,2.07v7.62c-3.39-1.63-7.5-2.45-12.32-2.45
		c-5.35,0-9.45,1.14-12.32,3.43c-2.87,2.29-4.3,6.26-4.3,11.9c0,5.33,1.27,9.24,3.81,11.71c2.54,2.48,6.75,3.72,12.62,3.72
		c4.63,0,8.83-0.85,12.62-2.54v7.81c-2.15,0.82-4.45,1.44-6.89,1.88C281.14,90.83,278.42,91.05,275.42,91.05z"/>
	<path class="st1" d="M298.99,90.11V26.69h10.66v23.15c2.02-1.57,4.43-2.84,7.24-3.81c2.8-0.97,5.97-1.46,9.49-1.46
		c5.87,0,10.2,1.35,13.01,4.05c2.8,2.7,4.21,6.9,4.21,12.61v28.89h-10.56V61.69c0-3.45-0.77-5.86-2.3-7.25
		c-1.53-1.38-4.19-2.07-7.97-2.07c-2.35,0-4.73,0.49-7.14,1.46c-2.41,0.97-4.4,2.24-5.97,3.81v32.46H298.99z"/>
	<path class="st0" d="M360.31,90.11V53.32h-7.04l0.98-7.81h16.72v44.6H360.31z M359.43,36.19v-8.47h11.64v8.47H359.43z"/>
	<path class="st1" d="M383.39,90.11v-44.6h9.78l0.49,4.7c2.09-1.57,4.58-2.9,7.48-4c2.9-1.1,6.11-1.65,9.63-1.65
		c6,0,10.37,1.35,13.11,4.05c2.74,2.7,4.11,6.9,4.11,12.61v28.89h-10.56V61.69c0-3.45-0.73-5.86-2.2-7.25
		c-1.47-1.38-4.22-2.07-8.26-2.07c-2.41,0-4.78,0.47-7.09,1.41c-2.32,0.94-4.25,2.16-5.82,3.67v32.65H383.39z"/>
	<path class="st1" d="M458.69,106.67c-3.46,0-6.91-0.2-10.37-0.61c-3.46-0.41-6.39-1.02-8.8-1.84v-7.9c2.61,0.82,5.61,1.44,9,1.88
		c3.39,0.44,6.62,0.66,9.68,0.66c4.69,0,8.12-0.25,10.27-0.75c2.15-0.5,3.23-1.63,3.23-3.39c0-1.32-0.52-2.24-1.56-2.78
		c-1.04-0.53-3.03-0.8-5.97-0.8h-12.52c-8.41,0-12.62-2.85-12.62-8.56c0-1.82,0.55-3.51,1.66-5.08c1.11-1.57,2.87-2.76,5.28-3.58
		c-2.67-1.25-4.65-2.98-5.92-5.18c-1.27-2.2-1.91-4.83-1.91-7.9c0-5.71,1.78-9.85,5.33-12.42c3.55-2.57,8.88-3.86,15.99-3.86
		c1.5,0,3.06,0.11,4.69,0.33c1.63,0.22,2.9,0.42,3.81,0.61H485l-0.29,6.68h-7.82c1.24,1,2.15,2.26,2.74,3.76
		c0.59,1.51,0.88,3.14,0.88,4.89c0,4.77-1.5,8.52-4.5,11.24c-3,2.73-7.53,4.09-13.59,4.09c-1.04,0-2-0.05-2.89-0.14
		c-0.88-0.09-1.84-0.2-2.88-0.33c-1.96,0.19-3.72,0.69-5.28,1.51c-1.56,0.82-2.35,1.91-2.35,3.29c0,0.94,0.39,1.62,1.17,2.02
		c0.78,0.41,2.09,0.61,3.91,0.61h13.01c4.63,0,8.2,0.96,10.71,2.87c2.51,1.91,3.77,4.69,3.77,8.33c0,4.39-1.97,7.54-5.92,9.46
		C471.71,105.71,466.06,106.67,458.69,106.67z M459.47,69.69c4.24,0,7.19-0.69,8.85-2.07c1.66-1.38,2.49-3.73,2.49-7.06
		c0-3.32-0.83-5.74-2.49-7.24c-1.66-1.51-4.61-2.26-8.85-2.26c-3.98,0-6.88,0.72-8.7,2.16c-1.83,1.44-2.74,3.89-2.74,7.34
		c0,3.2,0.86,5.52,2.59,6.96C452.35,68.97,455.3,69.69,459.47,69.69z"/>
</g>
</svg>
