<?xml version="1.0" encoding="utf-8"?>
<!-- Generator: Adobe Illustrator 25.3.0, SVG Export Plug-In . SVG Version: 6.00 Build 0)  -->
<svg version="1.1" id="Calque_1" xmlns="http://www.w3.org/2000/svg" xmlns:xlink="http://www.w3.org/1999/xlink" x="0px" y="0px"
	 viewBox="0 0 500 500" style="enable-background:new 0 0 500 500;" xml:space="preserve">
<style type="text/css">
	.Ombre_x0020_portée{fill:none;}
	.Lueur_x0020_externe_x0020_5 pt{fill:none;}
	.Néon_x0020_bleu{fill:none;stroke:#8AACDA;stroke-width:7;stroke-linecap:round;stroke-linejoin:round;}
	.Ton_x0020_clair_x0020_chrome{fill:url(#SVGID_1_);stroke:#FFFFFF;stroke-width:0.3629;stroke-miterlimit:1;}
	.Swing_GS{fill:#FFDD00;}
	.Alysse_GS{fill:#A6D0E4;}
	.st0{enable-background:new    ;}
	.st1{fill:#1BA4E3;}
	.st2{fill:#FFFFFF;}
</style>
<linearGradient id="SVGID_1_" gradientUnits="userSpaceOnUse" x1="0" y1="0" x2="6.123234e-17" y2="-1">
	<stop  offset="0" style="stop-color:#656565"/>
	<stop  offset="0.618" style="stop-color:#1B1B1B"/>
	<stop  offset="0.6292" style="stop-color:#545454"/>
	<stop  offset="0.9831" style="stop-color:#3E3E3E"/>
</linearGradient>
<g>
	<g>
		<g class="st0">
			<g>
				<path class="st1" d="M439.21,229.42l-20.53,15.37c-0.29-4.85-2.43-9.39-5.67-12.84c-3.24-3.44-7.56-5.77-12.21-6.18l20.53-15.37
					c4.65,0.41,8.97,2.74,12.21,6.18C436.78,220.04,438.92,224.58,439.21,229.42z"/>
			</g>
			<g>
				<polygon class="st1" points="442.61,286.31 422.08,301.68 418.68,244.8 439.21,229.42 				"/>
			</g>
			<g>
				<polygon class="st2" points="428.65,243.61 408.12,258.98 404.62,258.68 425.15,243.31 				"/>
			</g>
			<g>
				<polygon class="st1" points="424.52,246.22 403.99,261.59 404.62,258.68 425.15,243.31 				"/>
			</g>
			<g>
				<path class="st2" d="M403.99,261.59c-0.97-1.32-2.08-2.31-3.34-3c6.84-5.12,13.69-10.25,20.53-15.37c1.25,0.69,2.36,1.68,3.34,3
					C418.36,250.83,410.15,256.98,403.99,261.59z"/>
			</g>
			<g>
				<path class="st2" d="M400.66,258.59C400.65,258.59,400.65,258.59,400.66,258.59c6.84-5.12,13.68-10.25,20.53-15.37c0,0,0,0,0,0
					C414.34,248.35,407.5,253.47,400.66,258.59z"/>
			</g>
			<g>
				<path class="st2" d="M400.65,258.59c-1.25-0.68-2.76-1.1-4.53-1.25c6.84-5.12,13.69-10.25,20.53-15.37
					c1.77,0.16,3.27,0.58,4.53,1.25C414.34,248.35,407.5,253.47,400.65,258.59z"/>
			</g>
			<g>
				<path class="st2" d="M396.12,257.34C396.12,257.34,396.12,257.34,396.12,257.34c3.42-2.56,6.84-5.13,10.26-7.69
					c3.42-2.56,6.84-5.12,10.26-7.68c0,0,0,0,0,0c-3.42,2.56-6.84,5.12-10.25,7.68c-3.03,2.27-6.06,4.54-9.09,6.81
					C396.95,256.72,396.55,257.22,396.12,257.34z"/>
			</g>
			<g>
				<polygon class="st2" points="425.36,270.96 404.83,286.33 408.12,258.98 428.65,243.61 				"/>
			</g>
			<g>
				<path class="st1" d="M391.35,262.5l20.53-15.37c1.32-0.99,3.1-1.38,5.36-1.18c1.37,0.12,2.61,0.51,3.73,1.16
					c1.12,0.65,2.05,1.59,2.78,2.8l-20.53,15.37c-0.73-1.21-1.66-2.15-2.78-2.8c-1.11-0.65-2.36-1.04-3.73-1.16
					C394.45,261.11,392.67,261.51,391.35,262.5z"/>
			</g>
			<g>
				<path class="st2" d="M396.12,257.34c-3-0.26-5.48,0.33-7.42,1.79l20.53-15.37c1.94-1.46,4.42-2.05,7.42-1.79
					c-3.42,2.56-6.84,5.12-10.26,7.68c-0.81,0.6-1.88,1.41-2.69,2.01c-0.4,0.3-0.93,0.7-1.33,0.99c-0.39,0.29-0.92,0.69-1.31,0.98
					c-0.39,0.29-0.9,0.67-1.29,0.96c-0.74,0.56-1.73,1.3-2.48,1.85C396.95,256.72,396.55,257.22,396.12,257.34z"/>
			</g>
			<g>
				<path class="st2" d="M390.52,263.27c0.25-0.29,0.53-0.55,0.83-0.77l20.53-15.37c-0.3,0.23-0.58,0.48-0.83,0.77
					C404.2,253.02,397.36,258.14,390.52,263.27C390.52,263.27,390.52,263.27,390.52,263.27z"/>
			</g>
			<g>
				<path class="st2" d="M411.05,247.9c-0.49,0.45-1.25,0.93-1.78,1.33c-0.28,0.21-0.65,0.48-0.93,0.69
					c-1.62,1.22-3.25,2.43-4.87,3.65c-2.67,2-5.34,4-8.01,6C400.65,255.68,405.85,251.79,411.05,247.9
					C411.05,247.9,411.05,247.9,411.05,247.9z"/>
			</g>
			<g>
				<polygon class="st1" points="422.03,264.49 401.5,279.86 403.22,265.27 423.75,249.9 				"/>
			</g>
			<g>
				<path class="st1" d="M421.63,264.8l-20.53,15.37c0.14-0.1,0.27-0.21,0.4-0.32l20.53-15.37
					C421.9,264.6,421.76,264.7,421.63,264.8z"/>
			</g>
			<g>
				<path class="st2" d="M401.1,280.17c-0.49,0.37-1.01,0.69-1.57,0.95c6.84-5.12,13.69-10.25,20.53-15.37
					c0.55-0.27,1.07-0.59,1.57-0.95C415.47,269.41,407.26,275.56,401.1,280.17z"/>
			</g>
			<g>
				<polygon class="st1" points="421.19,271.25 400.66,286.62 400.99,283.85 421.52,268.48 				"/>
			</g>
			<g>
				<path class="st2" d="M408.35,255.69c-1.65,1.23-3.29,2.47-4.94,3.7C405.06,258.15,406.7,256.92,408.35,255.69
					C408.35,255.68,408.35,255.69,408.35,255.69z"/>
			</g>
			<g>
				<path class="st2" d="M398.16,242.94c-5.19,3.89-10.39,7.78-15.58,11.67C387.78,250.72,392.97,246.82,398.16,242.94
					C398.16,242.94,398.16,242.94,398.16,242.94z"/>
			</g>
			<g>
				<path class="st1" d="M419.08,275.41l-20.53,15.37c1.18-0.89,1.88-2.28,2.11-4.16l20.53-15.37
					C420.96,273.13,420.26,274.52,419.08,275.41z"/>
			</g>
			<g>
				<path class="st2" d="M404.83,286.33c6.38-4.77,14.05-10.51,20.53-15.37c-0.43,3.45-1.72,6.05-3.89,7.78
					c-6.84,5.12-13.69,10.25-20.53,15.37C403.1,292.37,404.4,289.78,404.83,286.33z"/>
			</g>
			<g>
				<path class="st2" d="M400.93,294.1C400.93,294.1,400.93,294.1,400.93,294.1c6.85-5.13,13.69-10.25,20.53-15.37c0,0,0,0,0,0
					C414.62,283.86,407.77,288.98,400.93,294.1z"/>
			</g>
			<g>
				<path class="st1" d="M436.85,299.66l-20.53,15.37c0.56-0.42,1.08-0.88,1.57-1.37c2.86-2.92,4.48-7.13,4.19-11.98l20.53-15.37
					c0.29,4.85-1.32,9.06-4.19,11.98C437.93,298.79,437.41,299.25,436.85,299.66z"/>
			</g>
			<g>
				<path class="st2" d="M400.73,294.26c0.07-0.05,0.14-0.1,0.21-0.16c6.84-5.12,13.69-10.25,20.53-15.37
					c-0.07,0.05-0.14,0.11-0.21,0.16C415.1,283.5,406.88,289.65,400.73,294.26z"/>
			</g>
			<g>
				<path class="st2" d="M390.52,263.27c0.16-0.15,0.41-0.31,0.58-0.44c0.6-0.45,1.21-0.91,1.81-1.36c0.19-0.14,0.44-0.33,0.62-0.47
					c0.19-0.14,0.44-0.33,0.63-0.47c0.43-0.32,0.86-0.64,1.29-0.96c5.2-3.89,10.39-7.78,15.59-11.67c-1.35,1.55-2.25,4.14-2.69,7.79
					c-6.84,5.12-13.68,10.25-20.52,15.37c6.84-5.12,13.68-10.24,20.52-15.37c-0.47,3.8-0.2,6.52,0.81,8.15
					c-6.84,5.12-13.68,10.25-20.53,15.37c0,0,0,0,0,0c-1.01-1.63-1.29-4.35-0.81-8.15C388.26,267.41,389.17,264.81,390.52,263.27z"
					/>
			</g>
			<g>
				<path class="st2" d="M409.17,263.84c-5.2,3.89-10.39,7.78-15.59,11.67C398.77,271.62,403.97,267.73,409.17,263.84
					C409.16,263.84,409.17,263.84,409.17,263.84z"/>
			</g>
			<g>
				<path class="st2" d="M378.86,266.17c0.82-6.82-1.64-10.48-7.37-10.99c6.84-5.12,13.69-10.25,20.53-15.37
					c2.87,0.25,4.92,1.29,6.14,3.12c-6.84,5.12-13.68,10.25-20.52,15.37c6.84-5.12,13.68-10.24,20.52-15.37
					c1.23,1.83,1.64,4.45,1.23,7.86C393.23,255.41,385.02,261.56,378.86,266.17z"/>
			</g>
			<g>
				<path class="st2" d="M388.64,279.21c6.84-5.12,13.69-10.25,20.53-15.37c1.01,1.63,2.92,2.57,5.72,2.82
					c1.43,0.13,2.75-0.01,3.94-0.39c0.43-0.14,0.84-0.31,1.24-0.5c-3.87,2.9-7.74,5.79-11.61,8.69c-1.33,0.99-2.65,1.99-3.98,2.98
					c-0.39,0.29-0.9,0.67-1.29,0.96c-0.38,0.28-0.88,0.66-1.26,0.94c-0.72,0.54-1.55,1.51-2.4,1.8c-0.4,0.19-0.81,0.36-1.24,0.5
					c-1.19,0.39-2.5,0.52-3.94,0.39C391.55,281.78,389.65,280.84,388.64,279.21z"/>
			</g>
			<g>
				<path class="st1" d="M388.7,259.13l20.53-15.37c-0.35,0.26-0.68,0.55-0.99,0.86c-2.07,2.08-3.39,5.65-3.99,10.7
					c-0.4,3.34-0.27,6.09,0.39,8.27c0.67,2.18,1.76,3.82,3.28,4.92c1.53,1.1,3.33,1.74,5.39,1.92c3.07,0.27,5.81-0.38,8.2-1.96
					l-20.53,15.37c-2.39,1.57-5.13,2.23-8.2,1.96c-2.06-0.18-3.86-0.82-5.39-1.92c-1.52-1.1-2.62-2.74-3.28-4.92
					c-0.66-2.18-0.79-4.93-0.39-8.27c0.59-5.06,1.92-8.63,3.99-10.7C388.02,259.67,388.35,259.39,388.7,259.13z"/>
			</g>
			<g>
				<path class="st2" d="M397.84,291.22c-1.61,0.83-3.65,1.14-6.12,0.93c6.84-5.12,13.69-10.25,20.53-15.37
					c2.47,0.22,4.51-0.1,6.12-0.93c0.25-0.13,0.49-0.28,0.71-0.44l-20.53,15.37C398.33,290.94,398.1,291.09,397.84,291.22z"/>
			</g>
			<g>
				<path class="st2" d="M391.73,292.14C391.73,292.14,391.72,292.14,391.73,292.14c6.84-5.12,13.68-10.25,20.53-15.37c0,0,0,0,0,0
					c-3.42,2.56-6.84,5.12-10.26,7.68c-0.4,0.3-0.94,0.71-1.35,1.01c-1.33,0.99-2.65,1.99-3.98,2.98c-0.76,0.57-1.78,1.33-2.54,1.9
					C393.41,290.89,392.59,291.9,391.73,292.14z"/>
			</g>
			<g>
				<path class="st2" d="M389.13,291.76c-1.05-0.19-1.93-0.46-2.61-0.79l20.53-15.37c0,0,0,0,0,0
					c-6.83,5.11-13.65,10.22-20.48,15.33c6.83-5.11,13.65-10.22,20.48-15.33c0.69,0.33,1.56,0.59,2.61,0.79
					c1.06,0.19,1.92,0.32,2.59,0.38c-6.84,5.12-13.69,10.25-20.53,15.37C391.05,292.08,390.2,291.96,389.13,291.76z"/>
			</g>
			<g>
				<path class="st1" d="M421.25,278.89l-20.53,15.37c-2.15,1.61-5.09,2.26-8.81,1.94c-0.53-0.05-1.19-0.14-1.96-0.26
					c-0.77-0.13-1.51-0.26-2.22-0.4c-0.71-0.15-1.29-0.29-1.72-0.45l20.53-15.37c0.43,0.16,1.01,0.3,1.72,0.45
					c0.7,0.14,1.44,0.27,2.22,0.4c0.77,0.13,1.42,0.22,1.96,0.26C416.17,281.16,419.1,280.5,421.25,278.89z"/>
			</g>
			<g>
				<path class="st1" d="M425.15,243.31l3.51,0.31l-3.29,27.35c-0.43,3.45-1.72,6.05-3.89,7.78c-2.17,1.73-5.18,2.43-9.02,2.1
					c-0.53-0.05-1.19-0.14-1.96-0.26c-0.77-0.13-1.51-0.26-2.22-0.4c-0.71-0.15-1.29-0.29-1.72-0.45l0.5-4.12
					c0.69,0.33,1.56,0.59,2.61,0.79c1.06,0.19,1.92,0.32,2.59,0.38c2.47,0.22,4.51-0.1,6.12-0.92c1.61-0.83,2.55-2.37,2.81-4.6
					l0.33-2.76c-2.39,1.57-5.13,2.23-8.2,1.96c-2.06-0.18-3.86-0.82-5.39-1.92c-1.52-1.1-2.62-2.74-3.28-4.92
					c-0.66-2.18-0.79-4.93-0.39-8.27c0.59-5.06,1.92-8.63,3.99-10.7c2.07-2.08,4.87-2.96,8.41-2.65c1.77,0.15,3.28,0.58,4.53,1.25
					c1.26,0.69,2.37,1.68,3.34,3L425.15,243.31z M422.03,264.49l1.72-14.59c-0.73-1.21-1.66-2.15-2.78-2.8
					c-1.11-0.65-2.36-1.04-3.73-1.16c-2.78-0.24-4.83,0.41-6.19,1.95c-1.35,1.55-2.25,4.14-2.7,7.79c-0.47,3.8-0.2,6.52,0.81,8.15
					c1.01,1.63,2.92,2.57,5.73,2.82c1.43,0.13,2.75-0.01,3.94-0.39C420.01,265.86,421.08,265.28,422.03,264.49"/>
			</g>
			<g>
				<path class="st2" d="M366.13,255.78c-1.47,0.53-2.81,1.24-4,2.14l20.53-15.37c1.2-0.9,2.53-1.6,4-2.14
					c1.6-0.57,3.38-0.77,5.35-0.6c0,0,0,0,0.01,0c-3.87,2.9-7.74,5.79-11.61,8.69c-0.8,0.6-1.87,1.4-2.67,2
					c-1.28,0.96-2.57,1.92-3.85,2.89c-0.72,0.54-1.55,1.51-2.4,1.8c0,0,0,0-0.01,0C369.51,255.01,367.73,255.21,366.13,255.78z"/>
			</g>
			<g>
				<polygon class="st2" points="382.37,242.77 361.84,258.14 361.95,254.94 382.48,239.57 				"/>
			</g>
			<g>
				<path class="st1" d="M362.13,257.92l20.53-15.37c-0.1,0.07-0.19,0.15-0.29,0.22l-20.53,15.37
					C361.94,258.07,362.03,257.99,362.13,257.92z"/>
			</g>
			<g>
				<path class="st2" d="M436.85,299.66l-20.53,15.37c-2.7,2.02-6.17,3.06-10.02,2.72l20.53-15.37
					C430.68,302.72,434.15,301.69,436.85,299.66z"/>
			</g>
			<g>
				<polygon class="st2" points="397.25,269.03 376.72,284.4 378.86,266.17 399.39,250.8 				"/>
			</g>
			<g>
				<polygon class="st1" points="393.13,268.67 372.61,284.04 374.77,265.99 395.3,250.62 				"/>
			</g>
			<g>
				<polygon class="st2" points="379.56,267.49 359.03,282.86 361.56,261.8 382.09,246.43 				"/>
			</g>
			<g>
				<path class="st1" d="M362.51,260.99l20.53-15.37c0.83-0.62,1.78-1.11,2.83-1.48c1.48-0.51,2.91-0.7,4.28-0.58
					c2.37,0.21,3.9,0.82,4.57,1.85c0.67,1.04,0.87,2.77,0.59,5.2l-20.53,15.37c0.29-2.43,0.09-4.16-0.59-5.2
					c-0.67-1.03-2.2-1.64-4.57-1.85c-1.37-0.12-2.8,0.07-4.28,0.58C364.28,259.88,363.34,260.37,362.51,260.99z"/>
			</g>
			<g>
				<path class="st2" d="M361.56,261.8c0.3-0.29,0.61-0.56,0.94-0.81l20.53-15.37c-0.33,0.25-0.65,0.52-0.94,0.81
					c-2.52,1.89-5.05,3.78-7.57,5.67C370.2,255.33,365.88,258.57,361.56,261.8z"/>
			</g>
			<g>
				<polygon class="st1" points="375.46,267.13 354.93,282.5 358.24,254.62 378.77,239.25 				"/>
			</g>
			<g>
				<polygon class="st2" points="382.48,239.57 361.95,254.94 358.24,254.62 378.77,239.25 				"/>
			</g>
			<g>
				<polygon class="st2" points="372.52,232.1 351.99,247.47 352.52,243.06 373.05,227.69 				"/>
			</g>
			<g>
				<polygon class="st2" points="373.05,227.69 352.52,243.06 347.96,242.66 368.49,227.29 				"/>
			</g>
			<g>
				<polygon class="st1" points="406.55,279.72 386.03,295.09 386.52,290.97 407.05,275.6 				"/>
			</g>
			<g>
				<polygon class="st1" points="372.52,232.1 351.99,247.48 347.44,247.08 367.96,231.71 				"/>
			</g>
			<g>
				<polygon class="st1" points="367.96,231.71 347.44,247.08 347.96,242.66 368.49,227.29 				"/>
			</g>
			<g>
				<polygon class="st1" points="397.25,269.03 376.72,284.4 372.61,284.04 393.13,268.67 				"/>
			</g>
			<g>
				<polygon class="st2" points="371.66,238.63 351.13,254 343.77,253.35 364.3,237.98 				"/>
			</g>
			<g>
				<polygon class="st1" points="363.43,241.77 342.9,257.14 343.77,253.35 364.3,237.98 				"/>
			</g>
			<g>
				<polygon class="st2" points="368.35,266.5 347.82,281.87 351.13,254 371.66,238.63 				"/>
			</g>
			<g>
				<polygon class="st1" points="367.08,242.09 346.56,257.46 342.9,257.14 363.43,241.77 				"/>
			</g>
			<g>
				<path class="st2" d="M357.09,239.37c-5.2,3.89-10.39,7.78-15.59,11.67C346.7,247.16,351.89,243.26,357.09,239.37
					C357.09,239.37,357.09,239.37,357.09,239.37z"/>
			</g>
			<g>
				<polygon class="st1" points="379.56,267.49 359.03,282.86 354.93,282.5 375.46,267.13 				"/>
			</g>
			<g>
				<path class="st2" d="M336.56,254.74c-1.29-1.86-3.3-2.9-6.04-3.14c6.84-5.12,13.69-10.25,20.53-15.37
					c2.74,0.24,4.75,1.28,6.04,3.14C350.25,244.5,343.4,249.62,336.56,254.74C336.56,254.74,336.56,254.74,336.56,254.74z"/>
			</g>
			<g>
				<path class="st2" d="M330.51,251.6C330.51,251.6,330.51,251.6,330.51,251.6c6.84-5.12,13.68-10.25,20.53-15.37c0,0,0,0,0,0
					c0,0,0,0,0,0C344.2,241.35,337.36,246.48,330.51,251.6C330.52,251.6,330.51,251.6,330.51,251.6z"/>
			</g>
			<g>
				<path class="st2" d="M336.56,254.74c6.84-5.12,13.69-10.25,20.53-15.37c1.28,1.85,1.73,4.47,1.34,7.84l-20.53,15.37
					C338.29,259.22,337.84,256.6,336.56,254.74z"/>
			</g>
			<g>
				<path class="st2" d="M330.51,251.6c-1.96-0.17-3.73,0-5.29,0.55c6.84-5.12,13.69-10.25,20.53-15.37
					c1.56-0.54,3.33-0.72,5.29-0.55c-3.42,2.56-6.84,5.12-10.26,7.68c-0.4,0.3-0.94,0.71-1.35,1.01c-2.58,1.93-5.16,3.87-7.74,5.8
					C331.34,250.98,330.94,251.48,330.51,251.6z"/>
			</g>
			<g>
				<path class="st2" d="M325.22,252.15C325.22,252.15,325.22,252.15,325.22,252.15c6.84-5.12,13.68-10.25,20.53-15.37c0,0,0,0,0,0
					c0,0,0,0,0,0C338.9,241.9,332.06,247.02,325.22,252.15C325.22,252.14,325.22,252.15,325.22,252.15z"/>
			</g>
			<g>
				<path class="st2" d="M325.22,252.15c-1.48,0.51-2.81,1.21-4,2.1l20.53-15.37c1.19-0.89,2.52-1.59,4-2.1
					C338.9,241.9,332.06,247.02,325.22,252.15z"/>
			</g>
			<g>
				<polygon class="st2" points="341.55,239.02 321.02,254.39 322.82,239.63 343.35,224.26 				"/>
			</g>
			<g>
				<path class="st1" d="M321.21,254.24l20.53-15.37c-0.07,0.05-0.13,0.1-0.2,0.15l-20.53,15.37
					C321.08,254.34,321.15,254.29,321.21,254.24z"/>
			</g>
			<g>
				<polygon class="st1" points="364.24,266.15 343.71,281.52 346.56,257.46 367.08,242.09 				"/>
			</g>
			<g>
				<polygon class="st2" points="356.28,265.45 335.75,280.82 337.9,262.58 358.43,247.21 				"/>
			</g>
			<g>
				<polygon class="st1" points="352.17,265.09 331.64,280.46 333.8,262.4 354.33,247.03 				"/>
			</g>
			<g>
				<polygon class="st2" points="338.6,263.9 318.07,279.27 320.56,258.39 341.09,243.02 				"/>
			</g>
			<g>
				<path class="st1" d="M321.52,257.58l20.53-15.37c0.85-0.64,1.81-1.16,2.89-1.56c1.49-0.56,2.9-0.78,4.25-0.66
					c2.27,0.2,3.76,0.81,4.49,1.84c0.72,1.04,0.94,2.77,0.65,5.2L333.8,262.4c0.29-2.43,0.07-4.16-0.65-5.2
					c-0.73-1.03-2.22-1.65-4.49-1.84c-1.34-0.12-2.76,0.11-4.25,0.66C323.33,256.43,322.37,256.95,321.52,257.58z"/>
			</g>
			<g>
				<path class="st2" d="M320.56,258.39c0.3-0.29,0.62-0.56,0.96-0.81l20.53-15.37c-0.34,0.25-0.66,0.52-0.96,0.81
					c-2.52,1.89-5.05,3.78-7.57,5.67C329.2,251.93,324.88,255.16,320.56,258.39z"/>
			</g>
			<g>
				<polygon class="st1" points="334.5,263.54 313.97,278.91 318.72,239.27 339.25,223.9 				"/>
			</g>
			<g>
				<polygon class="st2" points="343.35,224.26 322.82,239.63 318.72,239.27 339.25,223.9 				"/>
			</g>
			<g>
				<polygon class="st1" points="363.43,241.77 364.3,237.98 371.66,238.63 368.35,266.5 364.24,266.15 367.08,242.09 				"/>
			</g>
			<g>
				<polygon class="st1" points="368.35,266.5 347.82,281.88 343.71,281.52 364.24,266.15 				"/>
			</g>
			<g>
				<path class="st2" d="M311.73,251.12c6.84-5.12,13.69-10.25,20.53-15.37c0.27,0.16,0.54,0.33,0.81,0.51l-20.53,15.37
					C312.27,251.45,312,251.28,311.73,251.12z"/>
			</g>
			<g>
				<polygon class="st1" points="356.28,265.45 335.75,280.82 331.64,280.46 352.17,265.09 				"/>
			</g>
			<g>
				<polygon class="st2" points="332.6,240.08 312.07,255.45 312.53,251.63 333.06,236.26 				"/>
			</g>
			<g>
				<path class="st2" d="M309.63,250.15c-1.01-0.34-2.28-0.58-3.86-0.72c6.84-5.12,13.69-10.25,20.53-15.37
					c1.57,0.14,2.85,0.38,3.86,0.72c0.71,0.25,1.41,0.57,2.09,0.97c-6.84,5.12-13.69,10.25-20.53,15.37
					C311.05,250.72,310.35,250.4,309.63,250.15z"/>
			</g>
			<g>
				<path class="st2" d="M305.78,249.43c-3.69-0.32-6.7,0.39-9.03,2.13l20.53-15.37c2.33-1.75,5.35-2.46,9.03-2.13
					c-3.42,2.56-6.84,5.12-10.26,7.68c-0.81,0.6-1.88,1.41-2.69,2.01c-0.79,0.59-1.85,1.38-2.64,1.98c-0.76,0.57-1.78,1.33-2.54,1.9
					C307.46,248.18,306.64,249.19,305.78,249.43z"/>
			</g>
			<g>
				<path class="st1" d="M299.28,254.98l20.53-15.37c1.75-1.31,4-1.84,6.78-1.6c1.2,0.11,2.29,0.33,3.28,0.67
					c0.98,0.35,1.89,0.81,2.72,1.4l-20.53,15.37c-0.83-0.59-1.74-1.05-2.72-1.4c-0.99-0.34-2.08-0.56-3.28-0.67
					C303.29,253.14,301.03,253.67,299.28,254.98z"/>
			</g>
			<g>
				<path class="st2" d="M298.98,255.22c0.1-0.08,0.2-0.16,0.31-0.24l20.53-15.37c-0.1,0.08-0.21,0.16-0.31,0.24
					C312.66,244.98,305.82,250.1,298.98,255.22z"/>
			</g>
			<g>
				<path class="st2" d="M298.98,255.22C298.98,255.22,298.98,255.22,298.98,255.22c6.84-5.12,13.69-10.25,20.53-15.37c0,0,0,0,0,0
					C312.66,244.98,305.82,250.1,298.98,255.22z"/>
			</g>
			<g>
				<path class="st1" d="M343.35,224.26l-1.81,14.77c1.24-0.96,2.64-1.71,4.2-2.25c1.56-0.54,3.33-0.72,5.3-0.55
					c2.74,0.24,4.75,1.28,6.05,3.14c1.28,1.85,1.73,4.47,1.34,7.84l-2.15,18.23l-4.1-0.36l2.16-18.06c0.29-2.43,0.07-4.16-0.65-5.2
					c-0.73-1.03-2.22-1.65-4.49-1.84c-1.34-0.12-2.76,0.11-4.25,0.66c-1.5,0.57-2.78,1.35-3.84,2.37l-2.49,20.88l-4.1-0.36
					l4.75-39.65L343.35,224.26z"/>
			</g>
			<g>
				<polygon class="st1" points="338.6,263.9 318.07,279.27 313.97,278.91 334.5,263.54 				"/>
			</g>
			<g>
				<polygon class="st2" points="329.98,262.2 309.46,277.57 309.92,273.69 330.44,258.32 				"/>
			</g>
			<g>
				<path class="st2" d="M295.59,263.22c0.46-3.84,1.59-6.51,3.38-8c6.84-5.12,13.69-10.25,20.53-15.37c-1.79,1.49-2.92,4.16-3.38,8
					C309.28,252.97,302.44,258.1,295.59,263.22z"/>
			</g>
			<g>
				<path class="st2" d="M295.59,263.23C295.59,263.22,295.59,263.22,295.59,263.23c6.84-5.13,13.69-10.25,20.53-15.37c0,0,0,0,0,0
					C309.28,252.98,302.44,258.1,295.59,263.23z"/>
			</g>
			<g>
				<polygon class="st2" points="308.01,233.06 287.48,248.43 283.38,248.07 303.91,232.7 				"/>
			</g>
			<g>
				<polygon class="st1" points="303.68,234.76 283.15,250.13 283.38,248.07 303.91,232.7 				"/>
			</g>
			<g>
				<path class="st2" d="M300.46,232.46c-5.19,3.89-10.39,7.78-15.58,11.67C290.07,240.23,295.26,236.34,300.46,232.46
					C300.46,232.46,300.46,232.46,300.46,232.46z"/>
			</g>
			<g>
				<path class="st2" d="M296.56,271.48c-1.09-1.82-1.41-4.57-0.97-8.26c6.84-5.12,13.69-10.25,20.53-15.37
					c-0.45,3.69-0.12,6.44,0.97,8.26c0,0,0,0,0,0c0,0-0.01,0-0.01,0c-1.66,1.22-3.29,2.46-4.94,3.7c-0.79,0.59-1.85,1.38-2.64,1.97
					c-1.79,1.34-3.58,2.68-5.37,4.02c-1.31,0.98-2.62,1.96-3.92,2.94C299,269.66,297.78,270.57,296.56,271.48
					C296.56,271.48,296.56,271.48,296.56,271.48z"/>
			</g>
			<g>
				<path class="st2" d="M296.56,271.48c6.84-5.12,13.68-10.25,20.52-15.37c0,0,0.01-0.01,0.01,0
					C310.25,261.24,303.4,266.36,296.56,271.48z"/>
			</g>
			<g>
				<path class="st2" d="M303.35,274.66c-3.44-0.3-5.7-1.36-6.79-3.17c6.84-5.12,13.69-10.25,20.53-15.37
					c1.09,1.82,3.35,2.87,6.79,3.17c2.3,0.2,4.49-0.12,6.57-0.97l-20.53,15.37C307.84,274.54,305.65,274.86,303.35,274.66z"/>
			</g>
			<g>
				<path class="st2" d="M279.93,247.83c-1.13-0.54-2.46-0.87-3.99-1c6.84-5.12,13.69-10.25,20.53-15.37c1.53,0.13,2.86,0.46,3.99,1
					C293.61,237.58,286.78,242.7,279.93,247.83c6.85-5.13,13.69-10.25,20.53-15.37c1.12,0.53,2.2,1.3,3.22,2.3
					c-6.84,5.12-13.69,10.25-20.53,15.37C282.13,249.12,281.05,248.36,279.93,247.83z"/>
			</g>
			<g>
				<path class="st2" d="M275.93,246.82C275.93,246.82,275.93,246.82,275.93,246.82c6.84-5.12,13.68-10.25,20.52-15.37c0,0,0,0,0,0
					c-0.35,0.26-0.82,0.62-1.18,0.88c-1.69,1.26-3.38,2.53-5.07,3.79c-1.79,1.34-3.57,2.67-5.36,4.01
					c-1.33,0.99-2.65,1.99-3.98,2.98c-0.76,0.57-1.78,1.33-2.55,1.91C277.62,245.56,276.8,246.58,275.93,246.82z"/>
			</g>
			<g>
				<path class="st1" d="M326.31,234.06c1.57,0.14,2.85,0.38,3.86,0.72c1,0.35,1.96,0.83,2.9,1.48l-0.46,3.82
					c-0.83-0.59-1.74-1.05-2.72-1.4c-0.99-0.34-2.08-0.56-3.28-0.67c-2.94-0.26-5.3,0.36-7.08,1.84c-1.79,1.49-2.92,4.16-3.38,8
					c-0.45,3.69-0.12,6.44,0.97,8.26c1.09,1.82,3.35,2.87,6.79,3.17c2.3,0.2,4.49-0.12,6.57-0.97l-0.46,3.88
					c-1.11,0.42-2.27,0.71-3.49,0.86c-1.21,0.15-2.56,0.16-4.03,0.03c-3.87-0.34-6.72-1.86-8.54-4.58
					c-1.82-2.71-2.45-6.39-1.91-11.02c0.57-4.9,2.07-8.45,4.5-10.66C318.93,234.62,322.2,233.71,326.31,234.06z"/>
			</g>
			<g>
				<path class="st1" d="M296.75,251.57l20.53-15.37c-0.26,0.2-0.52,0.41-0.77,0.63c-2.43,2.21-3.93,5.76-4.5,10.66
					c-0.55,4.63,0.08,8.3,1.91,11.02c1.82,2.71,4.67,4.24,8.54,4.58c1.47,0.13,2.82,0.12,4.03-0.03c1.22-0.15,2.39-0.44,3.49-0.86
					l-20.53,15.37c-1.11,0.42-2.27,0.71-3.49,0.86c-1.21,0.15-2.56,0.16-4.03,0.03c-3.87-0.34-6.72-1.86-8.54-4.58
					s-2.45-6.39-1.91-11.02c0.57-4.9,2.07-8.45,4.5-10.66C296.23,251.98,296.48,251.77,296.75,251.57z"/>
			</g>
			<g>
				<path class="st2" d="M275.93,246.82c-2.14-0.19-4.12,0.22-5.95,1.23c6.84-5.12,13.69-10.25,20.53-15.37
					c1.83-1,3.82-1.41,5.95-1.23C289.62,236.58,282.77,241.7,275.93,246.82z"/>
			</g>
			<g>
				<polygon class="st2" points="304.7,260.94 284.17,276.31 287.48,248.43 308.01,233.06 				"/>
			</g>
			<g>
				<path class="st1" d="M271.15,252.12l20.53-15.37c1.43-1.07,3.24-1.51,5.42-1.32c1.43,0.13,2.64,0.48,3.6,1.05
					c0.96,0.59,1.79,1.34,2.47,2.27l-20.53,15.37c-0.68-0.93-1.51-1.69-2.47-2.27c-0.96-0.58-2.17-0.93-3.6-1.05
					C274.39,250.61,272.58,251.05,271.15,252.12z"/>
			</g>
			<g>
				<path class="st2" d="M270.06,253.14c0.34-0.39,0.7-0.73,1.09-1.02l20.53-15.37c-0.39,0.29-0.76,0.63-1.09,1.02
					C283.75,242.9,276.9,248.02,270.06,253.14z"/>
			</g>
			<g>
				<path class="st2" d="M270.06,253.15C270.06,253.14,270.06,253.14,270.06,253.15c6.84-5.13,13.69-10.25,20.53-15.37c0,0,0,0,0,0
					C283.74,242.9,276.9,248.02,270.06,253.15z"/>
			</g>
			<g>
				<polygon class="st1" points="301.39,253.93 280.86,269.3 282.64,254.13 303.17,238.75 				"/>
			</g>
			<g>
				<path class="st1" d="M300.23,254.94l-20.53,15.37c0.4-0.3,0.78-0.63,1.15-1l20.53-15.37
					C301.01,254.3,300.63,254.64,300.23,254.94z"/>
			</g>
			<g>
				<polygon class="st1" points="301.19,260.63 280.67,276 280.68,273.03 301.21,257.66 				"/>
			</g>
			<g>
				<path class="st2" d="M267.05,261.56c0.43-3.81,1.44-6.6,3.01-8.41c6.84-5.12,13.69-10.25,20.53-15.37
					c-1.57,1.81-2.58,4.6-3.01,8.41C280.74,251.31,273.89,256.43,267.05,261.56z"/>
			</g>
			<g>
				<path class="st2" d="M267.05,261.56C267.05,261.56,267.05,261.56,267.05,261.56c6.84-5.13,13.69-10.25,20.53-15.37c0,0,0,0,0,0
					C280.74,251.31,273.89,256.44,267.05,261.56z"/>
			</g>
			<g>
				<path class="st2" d="M267.79,269.35c-0.91-1.54-1.15-4.14-0.74-7.79c6.84-5.12,13.69-10.25,20.53-15.37
					c-0.42,3.65-0.17,6.25,0.74,7.79C281.47,259.1,274.63,264.22,267.79,269.35C267.79,269.35,267.79,269.35,267.79,269.35z"/>
			</g>
			<g>
				<path class="st2" d="M267.79,269.35c6.84-5.12,13.69-10.25,20.53-15.37c0.91,1.55,2.81,2.44,5.72,2.7
					c1.37,0.12,2.67-0.04,3.91-0.49c0.8-0.29,1.57-0.7,2.3-1.25l-20.53,15.37c-0.73,0.55-1.5,0.96-2.3,1.25
					c-1.24,0.45-2.54,0.61-3.91,0.49C270.6,271.79,268.69,270.89,267.79,269.35z"/>
			</g>
			<g>
				<path class="st1" d="M300.33,258.38l-20.53,15.37c-0.99,0.74-2.02,1.29-3.08,1.64c-1.38,0.46-2.96,0.6-4.73,0.44
					c-3.34-0.29-5.82-1.6-7.44-3.92c-1.61-2.31-2.15-5.89-1.61-10.72c0.4-3.37,1.21-6.15,2.44-8.34c0.96-1.71,2.1-3.05,3.42-4.04
					l20.53-15.37c-1.32,0.99-2.46,2.34-3.42,4.04c-1.23,2.19-2.04,4.97-2.44,8.34c-0.54,4.83,0,8.4,1.61,10.72
					c1.62,2.32,4.1,3.63,7.44,3.92c1.77,0.15,3.35,0.01,4.73-0.44C298.31,259.67,299.34,259.13,300.33,258.38z"/>
			</g>
			<g>
				<path class="st2" d="M269.98,248.05C269.98,248.05,269.98,248.05,269.98,248.05c6.84-5.12,13.68-10.25,20.53-15.37c0,0,0,0,0,0
					c-3.42,2.56-6.84,5.12-10.26,7.68c-0.81,0.6-1.88,1.41-2.69,2.01c-0.79,0.59-1.85,1.38-2.64,1.98c-0.39,0.29-0.9,0.67-1.29,0.96
					c-0.74,0.56-1.73,1.3-2.48,1.85C270.8,247.43,270.35,247.81,269.98,248.05z"/>
			</g>
			<g>
				<path class="st2" d="M269.98,248.05c-0.41,0.22-0.8,0.48-1.17,0.76l20.53-15.37c0.38-0.28,0.77-0.53,1.17-0.76
					c-3.42,2.56-6.84,5.12-10.26,7.68c-0.81,0.6-1.88,1.41-2.69,2.01c-0.4,0.3-0.93,0.7-1.33,0.99c-1.28,0.96-2.57,1.92-3.85,2.89
					C271.65,246.79,270.73,247.56,269.98,248.05z"/>
			</g>
			<g>
				<path class="st2" d="M279.8,273.75c0.3-0.22,0.59-0.47,0.89-0.72l20.53-15.37c-0.29,0.26-0.59,0.5-0.89,0.72
					C294.17,263,285.96,269.14,279.8,273.75z"/>
			</g>
			<g>
				<polygon class="st1" points="304.7,260.94 284.17,276.31 280.67,276 301.19,260.63 				"/>
			</g>
			<g>
				<path class="st2" d="M277.64,233.61c-5.19,3.89-10.39,7.78-15.58,11.67C267.25,241.39,272.44,237.5,277.64,233.61
					C277.64,233.61,277.64,233.61,277.64,233.61z"/>
			</g>
			<g>
				<path class="st2" d="M288.31,253.98c-5.2,3.89-10.39,7.78-15.59,11.67C277.92,261.76,283.12,257.87,288.31,253.98
					C288.31,253.98,288.31,253.98,288.31,253.98z"/>
			</g>
			<g>
				<path class="st2" d="M300.7,236.48c0.96,0.59,1.79,1.34,2.47,2.27l-1.78,15.18c-1.06,1.06-2.21,1.81-3.45,2.25
					c-1.24,0.45-2.54,0.61-3.91,0.49c-2.91-0.25-4.81-1.15-5.72-2.7c-0.91-1.54-1.15-4.14-0.73-7.79c0.43-3.81,1.44-6.61,3.01-8.41
					c1.56-1.81,3.73-2.59,6.51-2.34C298.53,235.56,299.73,235.91,300.7,236.48z"/>
			</g>
			<g>
				<path class="st2" d="M269.17,229.07c-5.19,3.89-10.39,7.78-15.58,11.67C258.78,236.84,263.97,232.95,269.17,229.07
					C269.17,229.07,269.17,229.07,269.17,229.07z"/>
			</g>
			<g>
				<path class="st2" d="M248.64,244.44c-3.55-0.31-6.34,0.29-8.37,1.81l20.53-15.37c2.03-1.52,4.82-2.12,8.37-1.81
					c-6.84,5.12-13.68,10.24-20.52,15.37c6.84-5.12,13.68-10.24,20.52-15.37c3.94,0.35,6.76,1.86,8.46,4.54
					c-6.84,5.12-13.68,10.25-20.52,15.37c6.84-5.12,13.68-10.24,20.52-15.37c1.7,2.69,2.26,6.36,1.68,11.02L258.79,260
					c0.59-4.66,0.02-8.33-1.68-11.02C255.4,246.29,252.58,244.78,248.64,244.44z"/>
			</g>
			<g>
				<path class="st1" d="M242.71,249.75l20.53-15.37c1.33-1,3.14-1.4,5.43-1.2c3.01,0.26,4.96,1.25,5.86,2.95
					c0.9,1.7,1.13,4.42,0.68,8.14l-20.53,15.37c0.45-3.72,0.22-6.44-0.68-8.14s-2.85-2.69-5.86-2.95
					C245.85,248.35,244.05,248.75,242.71,249.75z"/>
			</g>
			<g>
				<path class="st2" d="M241.87,250.52c0.25-0.29,0.53-0.55,0.84-0.77l20.53-15.37c-0.3,0.23-0.58,0.48-0.84,0.77
					C255.56,240.28,248.72,245.4,241.87,250.52C241.87,250.53,241.87,250.53,241.87,250.52z"/>
			</g>
			<g>
				<path class="st2" d="M262.4,235.16c-0.16,0.15-0.41,0.31-0.58,0.44c-0.09,0.07-0.21,0.16-0.3,0.22
					c-0.51,0.38-1.01,0.76-1.52,1.14c-0.85,0.63-1.69,1.27-2.54,1.9C259.11,237.62,260.76,236.39,262.4,235.16
					C262.4,235.15,262.4,235.15,262.4,235.16C262.4,235.15,262.4,235.16,262.4,235.16z"/>
			</g>
			<g>
				<path class="st2" d="M254.83,270.56c2.09-2.33,3.41-5.86,3.96-10.56l20.53-15.37c-0.55,4.71-1.86,8.23-3.96,10.56
					c-0.36,0.41-0.76,0.77-1.19,1.09l-20.53,15.37C254.07,271.33,254.47,270.97,254.83,270.56z"/>
			</g>
			<g>
				<path class="st1" d="M271.68,252.79l-20.53,15.37c0.3-0.22,0.57-0.48,0.82-0.76c1.39-1.57,2.29-4.15,2.7-7.76l20.53-15.37
					c-0.41,3.61-1.31,6.19-2.7,7.76C272.25,252.32,271.98,252.57,271.68,252.79z"/>
			</g>
			<g>
				<path class="st2" d="M251.16,268.16c0,0-0.01,0.01-0.01,0.01c6.84-5.12,13.69-10.25,20.53-15.37c0,0,0.01-0.01,0.01-0.01
					C265.52,257.4,257.31,263.55,251.16,268.16z"/>
			</g>
			<g>
				<path class="st2" d="M232.71,244.5c6.84-5.12,13.69-10.25,20.53-15.37c0.08,0.05,0.17,0.11,0.25,0.17l-20.53,15.37
					C232.88,244.61,232.79,244.56,232.71,244.5z"/>
			</g>
			<g>
				<polygon class="st2" points="253.02,233.12 232.49,248.49 232.96,244.67 253.49,229.3 				"/>
			</g>
			<g>
				<path class="st2" d="M241.87,250.53c0.24-0.22,0.62-0.46,0.88-0.66c4.9-3.67,9.81-7.34,14.71-11.01
					c1.65-1.23,3.29-2.47,4.94-3.7c-1.36,1.57-2.27,4.16-2.72,7.76c-6.84,5.12-13.69,10.25-20.53,15.37
					C239.61,254.68,240.51,252.1,241.87,250.53z"/>
			</g>
			<g>
				<path class="st2" d="M239.15,258.29C239.15,258.29,239.15,258.28,239.15,258.29c6.84-5.13,13.69-10.25,20.53-15.37c0,0,0,0,0,0
					C252.84,248.04,246,253.16,239.15,258.29z"/>
			</g>
			<g>
				<path class="st2" d="M230.05,243.19c-1-0.34-2.28-0.58-3.85-0.72c6.84-5.12,13.69-10.25,20.53-15.37
					c1.56,0.14,2.85,0.38,3.85,0.72c0.92,0.32,1.8,0.75,2.66,1.31c-6.84,5.12-13.69,10.25-20.53,15.37
					C231.85,243.94,230.97,243.51,230.05,243.19z"/>
			</g>
			<g>
				<polygon class="st1" points="421.33,210.41 400.8,225.78 196.94,207.94 217.47,192.57 				"/>
			</g>
			<g>
				<path class="st2" d="M260.37,251.09c-1.65,1.23-3.29,2.47-4.94,3.7C257.08,253.56,258.73,252.32,260.37,251.09
					C260.37,251.09,260.37,251.09,260.37,251.09z"/>
			</g>
			<g>
				<path class="st2" d="M239.85,266.46c-0.9-1.68-1.14-4.41-0.69-8.17c6.84-5.12,13.69-10.25,20.53-15.37
					c-0.44,3.76-0.21,6.49,0.69,8.17C253.53,256.21,246.69,261.34,239.85,266.46c6.85-5.13,13.69-10.25,20.53-15.37
					c0.89,1.68,2.83,2.65,5.79,2.91c2.32,0.2,4.16-0.2,5.5-1.2c-6.84,5.12-13.69,10.25-20.53,15.37c-1.35,1-3.18,1.4-5.5,1.2
					C242.68,269.11,240.74,268.14,239.85,266.46z"/>
			</g>
			<g>
				<path class="st2" d="M268.66,233.18c3.01,0.26,4.96,1.25,5.86,2.95c0.9,1.7,1.13,4.42,0.68,8.14c-0.41,3.61-1.31,6.19-2.7,7.76
					c-1.38,1.56-3.49,2.22-6.34,1.97c-2.96-0.26-4.9-1.23-5.8-2.91c-0.9-1.68-1.14-4.41-0.69-8.18c0.45-3.6,1.36-6.19,2.72-7.76
					C263.78,233.59,265.86,232.94,268.66,233.18z"/>
			</g>
			<g>
				<path class="st1" d="M274.17,256.29l-20.53,15.37c-2.05,1.54-4.88,2.14-8.49,1.83c-3.91-0.34-6.7-1.84-8.39-4.5
					c-1.68-2.66-2.25-6.35-1.7-11.06c0.59-4.66,1.91-8.17,3.97-10.53c0.38-0.43,0.79-0.81,1.24-1.15l20.53-15.37
					c-0.45,0.34-0.86,0.72-1.24,1.15c-2.07,2.36-3.39,5.87-3.97,10.53c-0.55,4.71,0.02,8.4,1.7,11.06c1.69,2.66,4.49,4.16,8.39,4.5
					C269.29,258.43,272.12,257.82,274.17,256.29z"/>
			</g>
			<g>
				<path class="st1" d="M277.64,233.61c1.7,2.69,2.26,6.36,1.68,11.02c-0.55,4.71-1.86,8.23-3.96,10.56
					c-2.08,2.33-5.31,3.3-9.68,2.92c-3.91-0.34-6.7-1.84-8.39-4.5c-1.68-2.66-2.25-6.35-1.7-11.06c0.59-4.66,1.91-8.17,3.97-10.53
					c2.07-2.36,5.28-3.34,9.62-2.96C273.11,229.41,275.93,230.92,277.64,233.61z M275.2,244.27c0.45-3.72,0.22-6.44-0.68-8.14
					c-0.9-1.7-2.85-2.69-5.86-2.95c-2.8-0.25-4.89,0.41-6.26,1.97c-1.36,1.57-2.27,4.16-2.72,7.76c-0.44,3.76-0.21,6.49,0.69,8.18
					c0.89,1.68,2.83,2.65,5.8,2.91c2.84,0.25,4.95-0.41,6.34-1.97C273.89,250.46,274.79,247.89,275.2,244.27"/>
			</g>
			<g>
				<path class="st2" d="M226.21,242.47c-3.69-0.32-6.7,0.39-9.03,2.13l20.53-15.37c2.33-1.75,5.34-2.45,9.03-2.13
					c-3.42,2.56-6.84,5.12-10.26,7.68c-0.81,0.6-1.88,1.41-2.69,2.01c-1.31,0.98-2.62,1.96-3.92,2.94c-0.74,0.56-1.73,1.3-2.48,1.85
					C227.03,241.85,226.63,242.35,226.21,242.47z"/>
			</g>
			<g>
				<path class="st1" d="M219.7,248.02l20.53-15.37c1.75-1.31,4.01-1.84,6.79-1.6c1.2,0.11,2.29,0.33,3.27,0.67
					c0.98,0.35,1.89,0.81,2.72,1.4l-20.53,15.37c-0.83-0.59-1.74-1.05-2.72-1.4c-0.98-0.34-2.07-0.56-3.27-0.67
					C223.72,246.18,221.45,246.71,219.7,248.02z"/>
			</g>
			<g>
				<path class="st2" d="M219.4,248.26c0.1-0.08,0.2-0.16,0.3-0.24l20.53-15.37c-0.1,0.08-0.2,0.16-0.3,0.24
					C233.08,238.01,226.24,243.14,219.4,248.26z"/>
			</g>
			<g>
				<path class="st2" d="M219.4,248.26C219.4,248.26,219.4,248.26,219.4,248.26c6.84-5.12,13.69-10.25,20.53-15.37c0,0,0,0,0,0
					C233.08,238.02,226.24,243.14,219.4,248.26z"/>
			</g>
			<g>
				<polygon class="st2" points="250.4,255.24 229.88,270.61 230.34,266.72 250.87,251.35 				"/>
			</g>
			<g>
				<path class="st2" d="M216.01,256.26c0.47-3.84,1.6-6.51,3.38-8c6.84-5.12,13.69-10.25,20.53-15.37c-1.78,1.49-2.91,4.16-3.38,8
					C229.7,246.01,222.86,251.14,216.01,256.26z"/>
			</g>
			<g>
				<path class="st2" d="M216.01,256.26C216.01,256.26,216.01,256.26,216.01,256.26c6.84-5.13,13.69-10.25,20.53-15.37c0,0,0,0,0,0
					C229.7,246.02,222.86,251.14,216.01,256.26z"/>
			</g>
			<g>
				<path class="st2" d="M216.98,264.52c-1.09-1.82-1.41-4.57-0.97-8.26c6.84-5.12,13.69-10.25,20.53-15.37
					c-0.44,3.69-0.12,6.44,0.97,8.26c-3.87,2.9-7.74,5.79-11.61,8.69l-5.26,3.94C219.42,262.7,218.2,263.61,216.98,264.52
					C216.98,264.52,216.98,264.52,216.98,264.52z"/>
			</g>
			<g>
				<path class="st2" d="M237.51,249.15c-6.84,5.12-13.69,10.25-20.53,15.37c0.72-0.54,1.68-1.26,2.4-1.8
					c0.38-0.28,0.88-0.66,1.26-0.94c1.31-0.98,2.62-1.96,3.92-2.94C228.88,255.61,233.19,252.38,237.51,249.15
					C237.51,249.15,237.51,249.15,237.51,249.15z"/>
			</g>
			<g>
				<path class="st2" d="M223.78,267.69c-3.44-0.3-5.7-1.36-6.8-3.17c6.84-5.12,13.69-10.25,20.53-15.37
					c1.1,1.82,3.36,2.87,6.8,3.17c2.3,0.2,4.49-0.12,6.57-0.97l-20.53,15.37C228.27,267.58,226.08,267.9,223.78,267.69z"/>
			</g>
			<g>
				<path class="st1" d="M217.18,244.6l20.53-15.37c-0.27,0.2-0.52,0.41-0.77,0.64c-2.43,2.21-3.93,5.76-4.5,10.66
					c-0.55,4.63,0.08,8.3,1.91,11.02c1.82,2.71,4.67,4.24,8.54,4.58c1.47,0.13,2.81,0.12,4.03-0.03c1.22-0.15,2.39-0.44,3.48-0.86
					l-20.53,15.37c-1.1,0.42-2.26,0.71-3.48,0.86c-1.22,0.15-2.57,0.16-4.03,0.03c-3.87-0.34-6.72-1.86-8.54-4.58
					c-1.82-2.71-2.46-6.39-1.91-11.02c0.57-4.9,2.07-8.45,4.5-10.66C216.65,245.02,216.91,244.8,217.18,244.6z"/>
			</g>
			<g>
				<polygon class="st2" points="222.97,284.55 202.44,299.92 196.94,207.94 217.47,192.57 				"/>
			</g>
			<g>
				<polygon class="st1" points="208.28,216.37 187.75,231.74 187.14,221.53 207.67,206.16 				"/>
			</g>
			<g>
				<polygon class="st1" points="217.47,192.57 196.94,207.94 73.18,197.11 93.7,181.74 				"/>
			</g>
			<g>
				<path class="st1" d="M176.74,218.21c-3.71-0.93-7.78-1.59-12.2-1.98c6.84-5.12,13.69-10.25,20.53-15.37
					c4.42,0.39,8.5,1.05,12.2,1.98c3.71,0.94,7.18,2.04,10.4,3.32l-20.53,15.37C183.92,220.25,180.46,219.15,176.74,218.21z"/>
			</g>
			<g>
				<path class="st1" d="M163.9,203.45c-5.19,3.89-10.39,7.78-15.58,11.67C153.51,211.23,158.7,207.34,163.9,203.45
					C163.89,203.45,163.9,203.45,163.9,203.45z"/>
			</g>
			<g>
				<polygon class="st2" points="426.83,302.39 406.3,317.76 202.44,299.92 222.97,284.55 				"/>
			</g>
			<g>
				<path class="st2" d="M148.4,229.59l20.53-15.37c3.84-2.87,9.74-3.97,17.69-3.27c3.95,0.35,7.74,0.97,11.37,1.9
					c3.63,0.92,7.06,2.09,10.29,3.51l-20.53,15.37c-3.23-1.42-6.66-2.59-10.29-3.51c-3.63-0.93-7.43-1.56-11.37-1.9
					C158.14,225.63,152.24,226.72,148.4,229.59z"/>
			</g>
			<g>
				<polygon class="st1" points="211.68,271.32 191.15,286.69 190.53,276.37 211.06,261 				"/>
			</g>
			<g>
				<path class="st1" d="M143.36,218.82c-1.71,0.78-3.27,1.7-4.68,2.75l20.53-15.37c1.41-1.06,2.97-1.97,4.68-2.75
					c-6.84,5.12-13.68,10.24-20.52,15.36c6.84-5.12,13.68-10.24,20.52-15.37c5.42-2.49,12.48-3.35,21.17-2.58
					c-6.84,5.12-13.69,10.25-20.53,15.37C155.85,215.48,148.79,216.33,143.36,218.82z"/>
			</g>
			<g>
				<path class="st1" d="M111.32,214.2c6.84-5.12,13.69-10.25,20.53-15.37c0.18,0.07,0.36,0.14,0.54,0.21l-20.53,15.37
					C111.69,214.34,111.51,214.27,111.32,214.2z"/>
			</g>
			<g>
				<path class="st1" d="M169.4,277.84c-6.69-0.59-12.15-2.23-16.36-4.95c6.84-5.12,13.69-10.25,20.53-15.37
					c4.21,2.71,9.67,4.36,16.36,4.95c3.64,0.32,7.27,0.37,10.91,0.16c3.65-0.22,7.05-0.76,10.22-1.62l-20.53,15.37
					c-3.17,0.86-6.57,1.4-10.22,1.62C176.68,278.21,173.04,278.15,169.4,277.84z"/>
			</g>
			<g>
				<path class="st1" d="M150.77,271.23c6.84-5.12,13.69-10.25,20.53-15.37c0.71,0.59,1.47,1.15,2.27,1.66
					c-6.84,5.12-13.69,10.25-20.53,15.37C152.24,272.37,151.49,271.82,150.77,271.23z"/>
			</g>
			<g>
				<path class="st1" d="M150.77,271.23c-0.54-0.45-1.05-0.91-1.53-1.41c6.84-5.12,13.69-10.25,20.53-15.37
					c0.48,0.49,0.99,0.96,1.53,1.41C164.46,260.98,157.62,266.1,150.77,271.23z"/>
			</g>
			<g>
				<path class="st1" d="M146.42,231.44c0.58-0.68,1.24-1.3,1.98-1.85l20.53-15.37c-0.74,0.55-1.39,1.17-1.98,1.85
					c-3.64,4.25-5.19,10.7-4.68,19.38c0.36,6.08,1.86,11.16,4.49,15.24c-6.84,5.12-13.69,10.25-20.53,15.37
					c-2.63-4.09-4.13-9.17-4.49-15.24C141.22,242.14,142.77,235.69,146.42,231.44z"/>
			</g>
			<g>
				<path class="st1" d="M147,267.19c-0.27-0.37-0.53-0.74-0.77-1.13c6.84-5.12,13.69-10.25,20.53-15.37
					c0.25,0.38,0.51,0.76,0.77,1.13C160.69,256.94,153.85,262.07,147,267.19z"/>
			</g>
			<g>
				<path class="st1" d="M147,267.19c6.84-5.12,13.69-10.25,20.53-15.37c0.68,0.93,1.42,1.81,2.23,2.62c0,0,0,0,0,0
					c-6.84,5.12-13.69,10.25-20.53,15.37c0,0,0,0,0,0C148.43,269,147.68,268.12,147,267.19z"/>
			</g>
			<g>
				<polygon class="st1" points="133.01,209.36 112.48,224.73 111.86,214.41 132.39,199.04 				"/>
			</g>
			<g>
				<path class="st1" d="M111.32,214.2c-2.2-0.84-5.12-1.69-8.76-2.53l20.53-15.37c3.64,0.84,6.56,1.69,8.76,2.53
					C125.01,203.95,118.17,209.08,111.32,214.2z"/>
			</g>
			<g>
				<path class="st2" d="M138.68,221.58l20.53-15.37c-3.07,2.3-5.42,5.24-7.07,8.83c-2.39,5.25-3.37,11.67-2.91,19.27
					c0.63,10.61,4.36,19.31,11.17,26.11c6.81,6.8,16.5,10.75,29.06,11.85c4.42,0.39,8.45,0.49,12.1,0.31
					c3.64-0.17,7.01-0.6,10.12-1.25l-20.53,15.37c-3.11,0.65-6.48,1.08-10.12,1.25c-3.65,0.18-7.68,0.08-12.1-0.31
					c-12.56-1.1-22.25-5.05-29.06-11.85c-6.81-6.79-10.53-15.5-11.17-26.11c-0.45-7.6,0.52-14.02,2.91-19.27
					C133.26,226.82,135.61,223.88,138.68,221.58z"/>
			</g>
			<g>
				<path class="st2" d="M185.07,200.87c4.42,0.39,8.5,1.05,12.2,1.98c3.71,0.94,7.18,2.04,10.4,3.32l0.61,10.21
					c-3.23-1.42-6.66-2.59-10.29-3.51c-3.63-0.93-7.43-1.56-11.37-1.9c-9.48-0.83-16.04,0.88-19.67,5.12
					c-3.64,4.25-5.19,10.7-4.68,19.38c0.48,8.1,2.98,14.43,7.5,18.99c4.52,4.57,11.24,7.24,20.16,8.02
					c3.64,0.32,7.27,0.37,10.91,0.16c3.65-0.22,7.05-0.76,10.22-1.62l0.62,10.32c-3.11,0.65-6.48,1.08-10.12,1.25
					c-3.65,0.18-7.68,0.08-12.1-0.31c-12.56-1.1-22.25-5.05-29.06-11.85c-6.81-6.79-10.53-15.5-11.17-26.11
					c-0.45-7.6,0.52-14.02,2.91-19.27c2.4-5.24,6.32-9.11,11.75-11.59C169.32,200.96,176.38,200.11,185.07,200.87z"/>
			</g>
			<g>
				<path class="st1" d="M63.14,199.84l20.53-15.37c2.71-2.03,6.18-3.07,10.04-2.73l-20.53,15.37
					C69.31,196.77,65.84,197.82,63.14,199.84z"/>
			</g>
			<g>
				<path class="st1" d="M68.4,212.96c-0.34,0.22-0.67,0.45-0.99,0.68l20.53-15.37c0.32-0.24,0.64-0.46,0.99-0.68
					c4.69-3.01,11.9-4.1,21.61-3.25c4.42,0.39,8.61,1.04,12.56,1.96l-20.53,15.37c-3.95-0.91-8.14-1.57-12.56-1.96
					C80.29,208.86,73.09,209.95,68.4,212.96z"/>
			</g>
			<g>
				<path class="st2" d="M77.26,221.78l20.53-15.37c0.56-0.42,1.22-0.76,1.97-1.03c3.08-1.08,7.46-1.38,13.15-0.88
					c7.27,0.64,13.97,2.25,20.1,4.86l-20.53,15.37c-6.13-2.61-12.82-4.22-20.1-4.86c-5.68-0.5-10.07-0.2-13.15,0.88
					C78.48,221.02,77.82,221.36,77.26,221.78z"/>
			</g>
			<g>
				<path class="st1" d="M61.57,201.21c0.49-0.49,1.01-0.95,1.56-1.36l20.53-15.37c-0.55,0.41-1.07,0.87-1.56,1.36
					C75.94,190.45,67.73,196.6,61.57,201.21z"/>
			</g>
			<g>
				<path class="st1" d="M113.4,250.53c6.84-5.12,13.69-10.25,20.53-15.37c1.43,1.35,2.57,2.77,3.41,4.26
					c1.54,2.74,2.41,5.75,2.6,9.05c0.34,5.63-1.52,9.96-5.56,12.98l-20.53,15.37c4.04-3.02,5.89-7.35,5.56-12.98
					c-0.2-3.29-1.06-6.31-2.6-9.05C115.97,253.3,114.84,251.88,113.4,250.53z"/>
			</g>
			<g>
				<path class="st1" d="M82.84,236.79c-2.08-0.88-3.72-1.81-4.9-2.81c6.84-5.12,13.69-10.25,20.53-15.37c1.19,1,2.82,1.94,4.9,2.81
					c2.78,1.17,6.62,2.54,11.51,4.11c6.33,1.98,11.27,4.11,14.82,6.38c1.62,1.04,3.04,2.12,4.24,3.25
					c-5.7,4.27-11.41,8.54-17.11,12.81c-0.61,0.46-1.23,0.92-1.84,1.38c-0.07,0.05-0.17,0.12-0.24,0.18
					c-0.23,0.17-0.46,0.35-0.69,0.52c-0.07,0.05-0.16,0.12-0.22,0.17c-0.13,0.1-0.27,0.27-0.42,0.32c-1.2-1.13-2.61-2.22-4.24-3.25
					c-3.55-2.27-8.49-4.4-14.82-6.38C89.46,239.33,85.62,237.96,82.84,236.79z"/>
			</g>
			<g>
				<path class="st1" d="M74.93,227.75c-0.16-2.7,0.61-4.69,2.32-5.97l20.53-15.37c-1.71,1.28-2.49,3.27-2.32,5.97
					c0.12,2.08,0.77,3.81,1.96,5.2c0.3,0.35,0.64,0.69,1.04,1.02c-3.87,2.9-7.74,5.79-11.61,8.69c-1.76,1.31-3.51,2.63-5.27,3.94
					c-0.74,0.56-1.73,1.3-2.48,1.85c-0.35,0.26-0.74,0.88-1.18,0.88c-0.4-0.33-0.74-0.68-1.04-1.02
					C75.71,231.56,75.06,229.83,74.93,227.75z"/>
			</g>
			<g>
				<path class="st2" d="M124.59,253.74l-20.53,15.37c1.72-1.29,2.5-3.43,2.32-6.42c-0.14-2.36-0.89-4.31-2.24-5.86
					c-1.35-1.54-3.52-2.96-6.5-4.26c-2.99-1.3-7.07-2.74-12.28-4.33c-8.34-2.66-14.25-5.62-17.75-8.88
					c-3.5-3.27-5.4-7.52-5.71-12.75c-0.34-5.65,1.5-9.97,5.5-12.97l20.53-15.37c-4.01,3-5.84,7.32-5.5,12.97
					c0.31,5.23,2.21,9.48,5.71,12.75c3.49,3.26,9.41,6.22,17.75,8.88c5.2,1.59,9.29,3.04,12.28,4.33c2.99,1.3,5.16,2.72,6.5,4.26
					c1.35,1.54,2.1,3.49,2.24,5.86C127.09,250.32,126.31,252.45,124.59,253.74z"/>
			</g>
			<g>
				<path class="st1" d="M76.97,268.68c-3.95-1.06-7.66-2.31-11.13-3.75l20.53-15.37c3.47,1.44,7.18,2.69,11.13,3.75
					c3.96,1.06,7.87,1.76,11.74,2.1c6.08,0.53,10.6,0.29,13.57-0.74c0.68-0.23,1.27-0.54,1.78-0.92l-20.53,15.37
					c-0.51,0.38-1.1,0.69-1.78,0.92c-2.97,1.03-7.49,1.27-13.57,0.74C84.84,270.44,80.92,269.74,76.97,268.68z"/>
			</g>
			<g>
				<polygon class="st2" points="86.98,259.88 66.46,275.25 65.84,264.93 86.37,249.56 				"/>
			</g>
			<g>
				<polygon class="st1" points="81.31,254.7 60.79,270.07 57.39,213.19 77.91,197.82 				"/>
			</g>
			<g>
				<polygon class="st1" points="78.59,254.47 58.06,269.84 54.66,212.95 75.19,197.58 				"/>
			</g>
			<g>
				<path class="st1" d="M61.57,201.21c0.33-0.29,0.82-0.62,1.18-0.88c3.48-2.6,6.96-5.21,10.43-7.81c1.75-1.31,3.51-2.63,5.26-3.94
					c0.74-0.56,1.73-1.3,2.48-1.85c0.35-0.26,0.74-0.88,1.18-0.88c-2.86,2.92-4.48,7.13-4.19,11.98l-20.53,15.37
					C57.1,208.34,58.72,204.12,61.57,201.21z"/>
			</g>
			<g>
				<path class="st1" d="M61.34,197.44l20.53-15.37c-4.43,3.32-7.08,8.92-6.69,15.51l-20.53,15.37
					C54.26,206.35,56.91,200.76,61.34,197.44z"/>
			</g>
			<g>
				<path class="st2" d="M134.39,261.44l-20.53,15.37c-0.34,0.25-0.69,0.49-1.05,0.73c-4.77,3.05-12.21,4.12-22.33,3.23
					c-9.88-0.86-17.88-2.7-24.02-5.52l20.53-15.37c6.14,2.82,14.15,4.66,24.02,5.52c10.12,0.88,17.56-0.19,22.33-3.23
					C133.7,261.93,134.05,261.69,134.39,261.44z"/>
			</g>
			<g>
				<path class="st1" d="M60.79,270.07c6.85-5.12,13.69-10.24,20.53-15.37c0.29,4.85,2.44,9.39,5.67,12.84
					c-6.84,5.12-13.68,10.25-20.52,15.37c6.84-5.12,13.68-10.24,20.52-15.37c3.24,3.44,7.56,5.77,12.21,6.18l-20.53,15.37
					c-4.65-0.41-8.97-2.74-12.22-6.18C63.22,279.46,61.08,274.92,60.79,270.07z"/>
			</g>
			<g>
				<path class="st1" d="M99.37,276.57l-20.53,15.37c-10.81-0.95-20.11-10.83-20.79-22.1l20.53-15.37
					C79.26,265.73,88.56,275.62,99.37,276.57z"/>
			</g>
			<g>
				<polygon class="st1" points="222.97,284.55 202.44,299.92 78.67,289.09 99.2,273.72 				"/>
			</g>
			<g>
				<path class="st2" d="M110.53,194.34c4.42,0.39,8.61,1.04,12.56,1.96c3.94,0.91,7.04,1.83,9.3,2.74l0.62,10.32
					c-6.13-2.61-12.82-4.22-20.1-4.86c-5.68-0.5-10.07-0.2-13.15,0.88c-3.08,1.09-4.51,3.42-4.3,7c0.12,2.08,0.77,3.81,1.96,5.2
					c1.18,1.39,3.17,2.67,5.94,3.84c2.78,1.17,6.62,2.54,11.51,4.11c6.33,1.98,11.27,4.11,14.82,6.38c3.56,2.27,6.1,4.78,7.64,7.51
					c1.54,2.74,2.41,5.75,2.6,9.05c0.36,6.09-1.84,10.66-6.6,13.7c-4.77,3.05-12.21,4.12-22.33,3.23
					c-9.88-0.86-17.88-2.7-24.02-5.52l-0.62-10.32c3.47,1.44,7.18,2.69,11.13,3.75c3.96,1.06,7.87,1.76,11.74,2.1
					c6.08,0.53,10.6,0.29,13.57-0.74c2.96-1.02,4.33-3.47,4.1-7.34c-0.14-2.36-0.89-4.31-2.24-5.86c-1.35-1.54-3.52-2.96-6.5-4.26
					c-2.99-1.3-7.07-2.74-12.28-4.33c-8.34-2.66-14.25-5.62-17.75-8.88c-3.5-3.27-5.4-7.52-5.71-12.75
					c-0.36-6.09,1.8-10.64,6.49-13.65C93.62,194.58,100.82,193.49,110.53,194.34z"/>
			</g>
			<g>
				<path class="st1" d="M86.99,267.55c-5.19,3.89-10.39,7.78-15.58,11.67C76.6,275.33,81.79,271.43,86.99,267.55
					C86.99,267.55,86.99,267.55,86.99,267.55z"/>
			</g>
			<g>
				<path class="st1" d="M421.16,207.56c10.8,0.95,20.11,10.83,20.79,22.1l3.4,56.89c0.67,11.27-7.55,19.62-18.35,18.68
					L99.37,276.57c-10.81-0.95-20.11-10.83-20.79-22.1l-3.4-56.89c-0.67-11.27,7.54-19.62,18.35-18.68L421.16,207.56z
					 M442.61,286.31l-3.4-56.89c-0.29-4.85-2.43-9.39-5.67-12.84c-3.24-3.44-7.56-5.77-12.21-6.18l-203.86-17.84L93.7,181.74
					c-4.65-0.41-8.74,1.19-11.6,4.1c-2.86,2.92-4.48,7.13-4.19,11.98l3.4,56.89c0.29,4.85,2.44,9.39,5.67,12.84
					c3.24,3.44,7.56,5.77,12.22,6.18l123.77,10.83l203.86,17.84c4.65,0.41,8.74-1.19,11.59-4.1
					C441.29,295.37,442.9,291.16,442.61,286.31"/>
			</g>
			<g>
				<path class="st2" d="M420.96,247.1c1.12,0.65,2.05,1.59,2.78,2.8l-1.72,14.59c-0.95,0.79-2.02,1.38-3.2,1.77
					c-1.19,0.39-2.5,0.52-3.94,0.39c-2.81-0.25-4.72-1.19-5.73-2.82c-1.01-1.63-1.29-4.35-0.81-8.15c0.44-3.65,1.35-6.24,2.7-7.79
					c1.36-1.55,3.41-2.2,6.19-1.95C418.6,246.06,419.85,246.45,420.96,247.1z"/>
			</g>
			<g>
				<path class="st1" d="M438.66,302.06l-20.53,15.37c-3.14,2.35-7.18,3.56-11.66,3.17L427,305.23
					C431.48,305.62,435.51,304.41,438.66,302.06z"/>
			</g>
			<g>
				<polygon class="st1" points="368.49,227.29 373.05,227.69 372.52,232.1 367.96,231.71 				"/>
			</g>
			<g>
				<path class="st1" d="M303.91,232.7l4.1,0.36l-3.31,27.88l-3.51-0.31l0.02-2.97c-1.26,1.12-2.58,1.9-3.97,2.36
					c-1.38,0.46-2.96,0.6-4.73,0.44c-3.34-0.29-5.82-1.6-7.44-3.92c-1.61-2.31-2.15-5.89-1.61-10.72c0.4-3.37,1.21-6.15,2.44-8.34
					c1.23-2.19,2.76-3.79,4.59-4.8c1.83-1,3.82-1.41,5.96-1.23c1.53,0.13,2.86,0.46,4,1c1.12,0.53,2.2,1.3,3.23,2.3L303.91,232.7z
					 M301.39,253.93l1.78-15.18c-0.68-0.93-1.51-1.69-2.47-2.27c-0.96-0.58-2.17-0.93-3.6-1.05c-2.78-0.24-4.95,0.54-6.51,2.34
					c-1.57,1.81-2.58,4.61-3.01,8.41c-0.42,3.65-0.17,6.25,0.73,7.79c0.91,1.55,2.81,2.44,5.72,2.7c1.37,0.12,2.67-0.04,3.91-0.49
					C299.17,255.74,300.33,254.99,301.39,253.93"/>
			</g>
			<g>
				<path class="st1" d="M246.73,227.1c1.56,0.14,2.85,0.38,3.85,0.72c1.01,0.35,1.97,0.83,2.91,1.48l-0.47,3.82
					c-0.83-0.59-1.74-1.05-2.72-1.4c-0.98-0.34-2.07-0.56-3.27-0.67c-2.94-0.26-5.31,0.36-7.09,1.84c-1.78,1.49-2.91,4.16-3.38,8
					c-0.44,3.69-0.12,6.44,0.97,8.26c1.09,1.82,3.36,2.87,6.8,3.18c2.3,0.2,4.49-0.12,6.57-0.97l-0.47,3.88
					c-1.1,0.42-2.26,0.71-3.48,0.86c-1.22,0.15-2.57,0.16-4.03,0.03c-3.87-0.34-6.72-1.86-8.54-4.58
					c-1.82-2.71-2.46-6.39-1.91-11.02c0.57-4.9,2.07-8.45,4.5-10.66S242.62,226.74,246.73,227.1z"/>
			</g>
			<g>
				<path class="st2" d="M421.33,210.41c4.65,0.41,8.97,2.74,12.21,6.18c3.25,3.45,5.38,7.99,5.67,12.84l3.4,56.89
					c0.29,4.85-1.32,9.06-4.19,11.98c-2.86,2.91-6.94,4.5-11.59,4.1l-203.86-17.84l-5.5-91.98L421.33,210.41z M358.43,247.21
					c0.39-3.37-0.06-5.99-1.34-7.84c-1.29-1.86-3.3-2.9-6.05-3.14c-1.97-0.17-3.73,0-5.3,0.55c-1.57,0.53-2.96,1.29-4.2,2.25
					l1.81-14.77l-4.1-0.36l-4.75,39.65l4.1,0.36l2.49-20.88c1.06-1.02,2.34-1.81,3.84-2.37c1.49-0.56,2.9-0.78,4.25-0.66
					c2.27,0.2,3.76,0.81,4.49,1.84c0.72,1.04,0.94,2.77,0.65,5.2l-2.16,18.06l4.1,0.36L358.43,247.21 M425.36,270.96l3.29-27.35
					l-3.51-0.31l-0.62,2.92c-0.97-1.32-2.09-2.31-3.34-3c-1.25-0.68-2.76-1.1-4.53-1.25c-3.54-0.31-6.35,0.57-8.41,2.65
					c-2.07,2.08-3.39,5.65-3.99,10.7c-0.4,3.33-0.27,6.09,0.39,8.27c0.67,2.18,1.76,3.82,3.28,4.92c1.53,1.1,3.33,1.74,5.39,1.92
					c3.07,0.27,5.81-0.38,8.2-1.96l-0.33,2.76c-0.27,2.24-1.2,3.77-2.81,4.6c-1.61,0.83-3.65,1.14-6.12,0.92
					c-0.67-0.06-1.53-0.18-2.59-0.38c-1.05-0.19-1.93-0.46-2.61-0.79l-0.5,4.12c0.43,0.16,1.01,0.3,1.72,0.45
					c0.7,0.14,1.44,0.27,2.22,0.4c0.77,0.13,1.42,0.22,1.96,0.26c3.84,0.34,6.85-0.37,9.02-2.1
					C423.63,277,424.93,274.41,425.36,270.96 M304.7,260.94l3.31-27.88l-4.1-0.36l-0.23,2.06c-1.02-1.01-2.1-1.77-3.23-2.3
					c-1.13-0.54-2.46-0.87-4-1c-2.14-0.19-4.13,0.22-5.96,1.23c-1.83,1.01-3.36,2.61-4.59,4.8c-1.23,2.19-2.04,4.97-2.44,8.34
					c-0.54,4.83,0,8.4,1.61,10.72c1.62,2.32,4.1,3.63,7.44,3.92c1.77,0.15,3.35,0.01,4.73-0.44c1.38-0.46,2.7-1.24,3.97-2.36
					l-0.02,2.97L304.7,260.94 M399.39,250.8c0.82-6.82-1.64-10.48-7.38-10.99c-1.97-0.17-3.75,0.03-5.35,0.6
					c-1.59,0.57-3.02,1.36-4.29,2.36l0.11-3.2l-3.71-0.32l-3.31,27.88l4.1,0.36l2.53-21.05c1.04-1.02,2.3-1.78,3.77-2.28
					c1.48-0.51,2.91-0.7,4.28-0.58c2.37,0.21,3.9,0.82,4.57,1.85c0.67,1.04,0.87,2.77,0.59,5.2l-2.16,18.05l4.11,0.36L399.39,250.8
					 M279.31,244.63c0.59-4.66,0.02-8.33-1.68-11.02c-1.71-2.69-4.53-4.2-8.47-4.54c-4.34-0.38-7.55,0.6-9.62,2.96
					c-2.07,2.36-3.39,5.87-3.97,10.53c-0.55,4.71,0.02,8.4,1.7,11.06c1.69,2.66,4.49,4.16,8.39,4.5c4.37,0.38,7.6-0.59,9.68-2.92
					C277.45,252.86,278.76,249.34,279.31,244.63 M253.02,233.12l0.47-3.82c-0.93-0.64-1.9-1.13-2.91-1.48
					c-1-0.34-2.28-0.58-3.85-0.72c-4.11-0.36-7.37,0.56-9.8,2.77c-2.43,2.21-3.93,5.76-4.5,10.66c-0.55,4.63,0.08,8.3,1.91,11.02
					c1.82,2.71,4.67,4.24,8.54,4.58c1.47,0.13,2.81,0.12,4.03-0.03c1.22-0.15,2.39-0.44,3.48-0.86l0.47-3.88
					c-2.08,0.85-4.26,1.17-6.57,0.97c-3.44-0.3-5.7-1.36-6.8-3.18c-1.09-1.82-1.41-4.57-0.97-8.26c0.47-3.84,1.6-6.51,3.38-8
					c1.79-1.48,4.15-2.1,7.09-1.84c1.2,0.11,2.29,0.33,3.27,0.67C251.28,232.07,252.18,232.53,253.02,233.12 M329.87,238.68
					c0.98,0.35,1.89,0.81,2.72,1.4l0.46-3.82c-0.93-0.64-1.9-1.13-2.9-1.48c-1.01-0.34-2.28-0.58-3.86-0.72
					c-4.1-0.36-7.37,0.56-9.8,2.77c-2.43,2.21-3.93,5.76-4.5,10.66c-0.55,4.63,0.08,8.3,1.91,11.02c1.82,2.71,4.67,4.24,8.54,4.58
					c1.47,0.13,2.82,0.12,4.03-0.03c1.22-0.15,2.39-0.44,3.49-0.86l0.46-3.88c-2.08,0.85-4.26,1.17-6.57,0.97
					c-3.44-0.3-5.7-1.36-6.79-3.17c-1.09-1.82-1.41-4.57-0.97-8.26c0.46-3.84,1.59-6.51,3.38-8c1.79-1.48,4.14-2.1,7.08-1.84
					C327.79,238.12,328.88,238.34,329.87,238.68 M368.35,266.5l3.31-27.88l-7.36-0.64l-0.87,3.79l3.65,0.32l-2.85,24.06
					L368.35,266.5 M372.52,232.1l0.53-4.42l-4.56-0.4l-0.53,4.42L372.52,232.1"/>
			</g>
			<g>
				<path class="st1" d="M392.01,239.81c5.74,0.5,8.2,4.16,7.38,10.99l-2.14,18.23l-4.11-0.36l2.16-18.05
					c0.29-2.43,0.09-4.16-0.59-5.2c-0.67-1.03-2.2-1.64-4.57-1.85c-1.37-0.12-2.8,0.07-4.28,0.58c-1.48,0.51-2.74,1.26-3.77,2.28
					l-2.53,21.05l-4.1-0.36l3.31-27.88l3.71,0.32l-0.11,3.2c1.27-1,2.7-1.78,4.29-2.36C388.26,239.84,390.04,239.64,392.01,239.81z"
					/>
			</g>
			<g>
				<polygon class="st1" points="427,305.23 406.47,320.6 78.84,291.94 99.37,276.57 				"/>
			</g>
			<g>
				<path class="st1" d="M82.1,185.84c2.87-2.91,6.95-4.5,11.6-4.1l123.77,10.83l5.5,91.98L99.2,273.72
					c-4.65-0.41-8.97-2.74-12.22-6.18c-3.24-3.45-5.38-7.99-5.67-12.84l-3.4-56.89C77.62,192.97,79.25,188.75,82.1,185.84z
					 M152.14,215.04c-2.39,5.25-3.37,11.67-2.91,19.27c0.63,10.61,4.36,19.31,11.17,26.11c6.81,6.8,16.5,10.75,29.06,11.85
					c4.42,0.39,8.45,0.49,12.1,0.31c3.64-0.17,7.01-0.6,10.12-1.25L211.06,261c-3.17,0.86-6.57,1.4-10.22,1.62
					c-3.64,0.22-7.27,0.16-10.91-0.16c-8.93-0.78-15.65-3.45-20.16-8.02c-4.52-4.56-7.01-10.89-7.5-18.99
					c-0.52-8.68,1.03-15.13,4.68-19.38c3.63-4.24,10.2-5.95,19.67-5.12c3.95,0.35,7.74,0.97,11.37,1.9
					c3.63,0.92,7.06,2.09,10.29,3.51l-0.61-10.21c-3.22-1.28-6.69-2.38-10.4-3.32c-3.71-0.93-7.78-1.59-12.2-1.98
					c-8.69-0.76-15.75,0.1-21.18,2.59C158.46,205.93,154.54,209.8,152.14,215.04 M123.09,196.3c-3.95-0.91-8.14-1.57-12.56-1.96
					c-9.71-0.85-16.92,0.23-21.61,3.25c-4.69,3.01-6.86,7.56-6.49,13.65c0.31,5.23,2.21,9.48,5.71,12.75
					c3.49,3.26,9.41,6.22,17.75,8.88c5.2,1.59,9.29,3.04,12.28,4.33c2.99,1.3,5.16,2.72,6.5,4.26c1.35,1.54,2.1,3.49,2.24,5.86
					c0.23,3.87-1.14,6.32-4.1,7.34c-2.97,1.03-7.49,1.27-13.57,0.74c-3.87-0.34-7.79-1.04-11.74-2.1
					c-3.95-1.06-7.66-2.31-11.13-3.75l0.62,10.32c6.14,2.82,14.15,4.66,24.02,5.52c10.12,0.88,17.56-0.19,22.33-3.23
					c4.76-3.04,6.97-7.61,6.6-13.7c-0.2-3.29-1.06-6.31-2.6-9.05c-1.54-2.73-4.09-5.24-7.64-7.51c-3.55-2.27-8.49-4.4-14.82-6.38
					c-4.88-1.56-8.72-2.94-11.51-4.11c-2.77-1.17-4.76-2.45-5.94-3.84c-1.19-1.39-1.84-3.12-1.96-5.2c-0.21-3.58,1.22-5.91,4.3-7
					c3.08-1.08,7.46-1.38,13.15-0.88c7.27,0.64,13.97,2.25,20.1,4.86l-0.62-10.32C130.13,198.13,127.03,197.21,123.09,196.3"/>
			</g>
		</g>
	</g>
</g>
</svg>
