<?xml version="1.0" encoding="utf-8"?>
<!-- Generator: Adobe Illustrator 25.3.0, SVG Export Plug-In . SVG Version: 6.00 Build 0)  -->
<svg version="1.1" id="Calque_1" xmlns="http://www.w3.org/2000/svg" xmlns:xlink="http://www.w3.org/1999/xlink" x="0px" y="0px"
	 viewBox="0 0 500 500" style="enable-background:new 0 0 500 500;" xml:space="preserve">
<style type="text/css">
	.Ombre_x0020_portée{fill:none;}
	.Lueur_x0020_externe_x0020_5 pt{fill:none;}
	.Néon_x0020_bleu{fill:none;stroke:#8AACDA;stroke-width:7;stroke-linecap:round;stroke-linejoin:round;}
	.Ton_x0020_clair_x0020_chrome{fill:url(#SVGID_1_);stroke:#FFFFFF;stroke-width:0.3629;stroke-miterlimit:1;}
	.Swing_GS{fill:#FFDD00;}
	.Alysse_GS{fill:#A6D0E4;}
	.st0{clip-path:url(#SVGID_3_);fill:#1BA4E3;}
	.st1{clip-path:url(#SVGID_3_);fill:#FFFFFF;}
	.st2{display:none;fill:none;stroke:#000000;stroke-width:4;stroke-miterlimit:10;}
	.st3{fill:#FFFFFF;}
	.st4{fill:#1BA4E3;}
</style>
<linearGradient id="SVGID_1_" gradientUnits="userSpaceOnUse" x1="0" y1="0" x2="6.123234e-17" y2="-1">
	<stop  offset="0" style="stop-color:#656565"/>
	<stop  offset="0.618" style="stop-color:#1B1B1B"/>
	<stop  offset="0.6292" style="stop-color:#545454"/>
	<stop  offset="0.9831" style="stop-color:#3E3E3E"/>
</linearGradient>
<g>
	<defs>
		<path id="SVGID_2_" d="M430,299.75H70c-11.05,0-20-8.95-20-20v-60c0-11.05,8.95-20,20-20h360c11.05,0,20,8.95,20,20v60
			C450,290.8,441.05,299.75,430,299.75z"/>
	</defs>
	<clipPath id="SVGID_3_">
		<use xlink:href="#SVGID_2_"  style="overflow:visible;"/>
	</clipPath>
	<rect x="50" y="200" class="st0" width="156" height="99"/>
	<rect x="206" y="200" class="st1" width="244" height="103"/>
	<use xlink:href="#SVGID_2_"  style="overflow:visible;fill:none;stroke:#1BA4E3;stroke-width:3;stroke-miterlimit:10;"/>
</g>
<ellipse class="st2" cx="250" cy="250.5" rx="130" ry="125.5"/>
<circle class="st2" cx="250" cy="250.5" r="125"/>
<g>
	<path class="st3" d="M83.59,288.34c-10.85,0-19.58-1.21-26.17-3.63v-10.89c3.73,1.21,7.75,2.19,12.04,2.95
		c4.3,0.76,8.57,1.13,12.83,1.13c6.68,0,11.7-0.68,15.04-2.04c3.34-1.36,5.01-4.08,5.01-8.16c0-2.5-0.7-4.5-2.08-6.01
		c-1.39-1.51-3.69-2.82-6.9-3.91c-3.21-1.09-7.64-2.25-13.28-3.46c-9.03-2.04-15.36-4.63-19.01-7.77
		c-3.65-3.14-5.47-7.46-5.47-12.98c0-6.42,2.69-11.45,8.07-15.08c5.38-3.63,13.41-5.44,24.09-5.44c4.86,0,9.44,0.3,13.74,0.91
		c4.3,0.61,7.66,1.29,10.09,2.04v10.89c-6.6-2.19-13.89-3.29-21.88-3.29c-6.25,0-11.11,0.72-14.58,2.15
		c-3.47,1.44-5.21,4.04-5.21,7.82c0,2.19,0.61,3.97,1.82,5.33c1.21,1.36,3.32,2.53,6.32,3.51c2.99,0.98,7.14,2.08,12.44,3.29
		c6.86,1.51,12.17,3.31,15.95,5.39c3.78,2.08,6.42,4.5,7.94,7.26c1.52,2.76,2.28,5.88,2.28,9.35c0,6.43-2.73,11.47-8.2,15.14
		C103,286.5,94.71,288.34,83.59,288.34z"/>
	<path class="st3" d="M169.79,288.34c-13.8,0-24.24-3.29-31.32-9.86c-7.08-6.58-10.61-15.46-10.61-26.65
		c0-8.01,1.5-14.91,4.49-20.69c3-5.78,7.57-10.24,13.74-13.38c6.16-3.14,14.02-4.71,23.57-4.71c4.86,0,9.31,0.32,13.35,0.96
		c4.04,0.64,7.79,1.49,11.26,2.55v10.77c-3.47-1.21-7.18-2.14-11.13-2.78c-3.95-0.64-8.1-0.96-12.44-0.96
		c-10.42,0-17.77,2.42-22.07,7.26c-4.3,4.84-6.45,11.83-6.45,20.98c0,8.54,2.34,15.02,7.03,19.45s11.93,6.63,21.75,6.63
		c3.99,0,8.01-0.28,12.04-0.85c4.04-0.57,7.83-1.45,11.39-2.66v10.88c-3.47,0.98-7.23,1.74-11.26,2.27
		C179.1,288.07,174.65,288.34,169.79,288.34z"/>
</g>
<g>
	<path class="st4" d="M229.88,266.27c-4.26,0-7.3-1.35-9.13-4.06c-1.83-2.71-2.29-6.54-1.38-11.5c0.95-5.25,2.84-9.16,5.67-11.72
		c2.82-2.56,6.49-3.84,11.01-3.84c1.72,0,3.13,0.14,4.21,0.41c1.08,0.27,2.12,0.7,3.11,1.29l-0.77,4.1
		c-0.88-0.55-1.85-0.96-2.92-1.23c-1.06-0.27-2.26-0.41-3.58-0.41c-3.23,0-5.88,0.87-7.95,2.62c-2.07,1.74-3.49,4.67-4.26,8.79
		c-0.73,3.95-0.56,6.84,0.52,8.66c1.08,1.83,3.51,2.74,7.29,2.74c2.53,0,4.97-0.55,7.32-1.64l-0.77,4.16
		c-1.25,0.55-2.55,0.96-3.91,1.23C232.98,266.13,231.49,266.27,229.88,266.27z"/>
	<path class="st4" d="M254.91,266.27c-4.29,0-7.28-1.33-8.97-4c-1.69-2.67-2.07-6.52-1.16-11.56c0.95-5,2.65-8.84,5.09-11.53
		c2.44-2.69,6.04-4.03,10.81-4.03c4.33,0,7.35,1.34,9.05,4.03c1.71,2.69,2.08,6.53,1.13,11.53c-0.92,5.04-2.6,8.9-5.06,11.56
		C263.35,264.94,259.72,266.27,254.91,266.27z M255.74,261.86c3.12,0,5.49-0.89,7.13-2.68c1.63-1.79,2.8-4.61,3.49-8.47
		c0.73-3.99,0.66-6.85-0.22-8.57c-0.88-1.72-2.97-2.58-6.27-2.58c-3.08,0-5.43,0.89-7.04,2.68c-1.61,1.79-2.79,4.61-3.52,8.48
		c-0.73,4.03-0.66,6.9,0.22,8.6S252.47,261.86,255.74,261.86z"/>
	<path class="st4" d="M284.41,266.27c-3.67,0-6.32-1.15-7.95-3.47c-1.63-2.31-1.99-6.05-1.07-11.22c0.66-3.61,1.74-6.64,3.25-9.07
		c1.5-2.44,3.3-4.27,5.39-5.51c2.09-1.24,4.31-1.86,6.66-1.86c1.69,0,3.14,0.23,4.35,0.69c1.21,0.46,2.35,1.18,3.41,2.14l0.39-2.21
		h4.51l-5.5,29.87h-3.85l0.22-3.15c-1.47,1.3-2.98,2.26-4.54,2.87S286.35,266.27,284.41,266.27z M286.33,262.11
		c1.5,0,2.95-0.29,4.35-0.88c1.39-0.59,2.71-1.49,3.96-2.71l2.97-16.26c-0.7-0.92-1.56-1.65-2.59-2.17
		c-1.03-0.52-2.33-0.79-3.91-0.79c-3.05,0-5.49,1.03-7.35,3.09c-1.85,2.06-3.15,5.13-3.88,9.2c-0.7,3.91-0.6,6.64,0.3,8.19
		C281.1,261.33,283.14,262.11,286.33,262.11z"/>
	<path class="st4" d="M317.32,266.27c-4.26,0-7.3-1.35-9.13-4.06c-1.83-2.71-2.29-6.54-1.38-11.5c0.95-5.25,2.84-9.16,5.67-11.72
		c2.82-2.56,6.49-3.84,11.01-3.84c1.72,0,3.13,0.14,4.21,0.41c1.08,0.27,2.12,0.7,3.11,1.29l-0.77,4.1
		c-0.88-0.55-1.85-0.96-2.92-1.23c-1.06-0.27-2.26-0.41-3.58-0.41c-3.23,0-5.88,0.87-7.95,2.62c-2.07,1.74-3.5,4.67-4.26,8.79
		c-0.73,3.95-0.56,6.84,0.52,8.66c1.08,1.83,3.51,2.74,7.29,2.74c2.53,0,4.97-0.55,7.32-1.64l-0.77,4.16
		c-1.25,0.55-2.55,0.96-3.91,1.23C320.42,266.13,318.93,266.27,317.32,266.27z"/>
	<path class="st4" d="M330.58,265.64l7.87-42.47h4.51l-2.97,15.82c1.43-1.13,3.03-2.06,4.79-2.77c1.76-0.71,3.72-1.07,5.89-1.07
		c3.01,0,5.16,0.92,6.47,2.77c1.3,1.85,1.62,4.58,0.96,8.19l-3.58,19.53H350l3.58-19.34c0.48-2.6,0.35-4.42-0.38-5.45
		c-0.73-1.03-2.35-1.54-4.84-1.54c-1.47,0-3.04,0.37-4.73,1.1c-1.69,0.74-3.16,1.69-4.4,2.87l-4.13,22.37H330.58z"/>
	<path class="st4" d="M363.26,265.64l4.73-25.77h-4.02l1.21-4.1h8.09l-5.5,29.87H363.26z M369.65,228.78l0.88-4.73h5.01l-0.88,4.73
		H369.65z"/>
	<path class="st4" d="M375.59,265.64l5.5-29.87h4.07l-0.33,3.4c1.47-1.18,3.1-2.14,4.9-2.9c1.8-0.76,3.78-1.13,5.94-1.13
		c6.31,0,8.79,3.65,7.43,10.96l-3.58,19.53h-4.51l3.58-19.34c0.48-2.6,0.38-4.42-0.3-5.45c-0.68-1.03-2.32-1.54-4.92-1.54
		c-1.5,0-3.09,0.34-4.76,1.01c-1.67,0.67-3.11,1.6-4.32,2.77l-4.18,22.56H375.59z"/>
	<path class="st4" d="M415.54,276.73c-0.59,0-1.3-0.03-2.15-0.09c-0.84-0.06-1.65-0.14-2.42-0.22c-0.77-0.08-1.4-0.19-1.87-0.32
		l0.83-4.41c0.73,0.29,1.68,0.49,2.83,0.6c1.16,0.1,2.1,0.16,2.83,0.16c2.71,0,4.99-0.52,6.82-1.54c1.83-1.03,2.97-2.74,3.41-5.14
		l0.55-2.96c-2.75,1.89-5.81,2.84-9.19,2.84c-2.28,0-4.22-0.51-5.83-1.54c-1.61-1.03-2.71-2.67-3.3-4.92
		c-0.59-2.25-0.55-5.16,0.11-8.73c0.99-5.42,2.7-9.33,5.12-11.72c2.42-2.39,5.58-3.59,9.46-3.59c1.94,0,3.59,0.31,4.92,0.91
		c1.34,0.61,2.5,1.57,3.5,2.87l0.88-3.15h3.85l-5.45,29.3c-0.7,3.7-2.3,6.56-4.81,8.6C423.12,275.71,419.76,276.73,415.54,276.73z
		 M419.17,261.48c1.58,0,3.04-0.26,4.37-0.79s2.56-1.25,3.66-2.17l2.86-15.63c-0.73-1.22-1.7-2.12-2.89-2.71
		c-1.19-0.59-2.54-0.88-4.04-0.88c-3.05,0-5.37,0.88-6.96,2.65c-1.6,1.76-2.76,4.6-3.5,8.51c-0.77,4.07-0.65,6.93,0.36,8.57
		C414.04,260.66,416.09,261.48,419.17,261.48z"/>
</g>
</svg>
