<?xml version="1.0" encoding="utf-8"?>
<!-- Generator: Adobe Illustrator 25.3.0, SVG Export Plug-In . SVG Version: 6.00 Build 0)  -->
<svg version="1.1" xmlns="http://www.w3.org/2000/svg" xmlns:xlink="http://www.w3.org/1999/xlink" x="0px" y="0px"
	 viewBox="0 0 434.9 79.7" style="enable-background:new 0 0 434.9 79.7;" xml:space="preserve">
<style type="text/css">
	.Ombre_x0020_portée{fill:none;}
	.Lueur_x0020_externe_x0020_5 pt{fill:none;}
	.Néon_x0020_bleu{fill:none;stroke:#8AACDA;stroke-width:7;stroke-linecap:round;stroke-linejoin:round;}
	.Ton_x0020_clair_x0020_chrome{fill:url(#SVGID_1_);stroke:#FFFFFF;stroke-width:0.3629;stroke-miterlimit:1;}
	.Swing_GS{fill:#FFDD00;}
	.Alysse_GS{fill:#A6D0E4;}
	.st0{display:none;}
	.st1{display:inline;fill:#9CD008;}
	.st2{fill:#1BA4E3;}
	.st3{fill:#9CD008;}
	.st4{fill:none;stroke:#3FA9F5;stroke-width:3;stroke-miterlimit:10;}
	.st5{display:none;fill:#3FA9F5;}
	.st6{fill:#3FA9F5;}
	.st7{fill:#9CD008;stroke:#9CD008;stroke-width:2;stroke-miterlimit:10;}
</style>
<linearGradient id="SVGID_1_" gradientUnits="userSpaceOnUse" x1="-29.4324" y1="-210.2746" x2="-29.4324" y2="-211.2746">
	<stop  offset="0" style="stop-color:#656565"/>
	<stop  offset="0.618" style="stop-color:#1B1B1B"/>
	<stop  offset="0.6292" style="stop-color:#545454"/>
	<stop  offset="0.9831" style="stop-color:#3E3E3E"/>
</linearGradient>
<g id="Calque_1">
	<g class="st0">
		<path class="st1" d="M51.3,36.3c0,5.6,1.7,9.8,5,12.7c3.4,2.9,8.5,4.3,15.6,4.3c1.5,0,3-0.1,4.5-0.2c1.9-4.3,2.9-8.9,2.9-13.8
			c0-8.1-2.8-15.5-7.6-21.6c-7.4,0-12.7,1.6-15.7,4.7C52.8,25.7,51.3,30.3,51.3,36.3z"/>
		<path class="st1" d="M19.9,11.9c4,0,7.8,0.2,11.4,0.6c3.6,0.4,6.3,0.8,8.3,1.3v7.1c-5.5-1.4-11.5-2.1-18.1-2.1
			c-5.2,0-9.2,0.5-12.1,1.4c-2.9,0.9-4.3,2.6-4.3,5.1c0,1.4,0.5,2.6,1.5,3.5c1,0.9,2.7,1.7,5.2,2.3c2.5,0.6,5.9,1.4,10.3,2.1
			c5.7,1,10.1,2.2,13.2,3.5c2.8,1.2,4.8,2.6,6.1,4.2c-0.3-1.5-0.4-3.1-0.4-4.7c0-5.2,1.1-9.7,3.2-13.5c2.1-3.8,5.4-6.7,9.8-8.7
			c3-1.4,6.7-2.3,10.9-2.8c-6.9-5.3-15.7-8.5-25.3-8.5c-10.2,0-19.5,3.6-26.5,9.4C15.2,12,17.5,11.9,19.9,11.9z"/>
		<path class="st1" d="M27.8,53c2.8-0.9,4.1-2.7,4.1-5.3c0-1.6-0.6-2.9-1.7-3.9c-1.1-1-3-1.8-5.7-2.6c-2.7-0.7-6.3-1.5-11-2.3
			c-5.7-1-10.2-2.3-13.3-3.7C0.1,36.6,0,38,0,39.4c0,4.9,1.1,9.6,3,13.9c0.6,0.1,1.2,0.2,1.8,0.3c3.6,0.5,7.1,0.7,10.6,0.7
			C20.9,54.3,25,53.9,27.8,53z"/>
		<path class="st1" d="M71.1,60.1c-9.9,0-17.3-2.1-22.4-6.4c-2.1-1.7-3.7-3.7-4.9-6c0,4.2-2.3,7.4-6.8,9.8
			c-4.5,2.4-11.4,3.6-20.6,3.6c-3.2,0-6.2-0.1-9-0.3c7.2,9.2,18.9,15.3,32.2,15.3c13.6,0,25.5-6.3,32.7-16
			C71.9,60.1,71.5,60.1,71.1,60.1z"/>
	</g>
	<g>
		<g>
			<path class="st2" d="M144.8,56.6c-6.1,0-10.6-1.5-13.7-4.4c-3.1-2.9-4.7-7.2-4.7-12.7c0-5.8,1.7-10.1,5.1-12.9
				c3.4-2.8,8-4.2,13.7-4.2c2.4,0,4.4,0.2,6,0.5c1.6,0.3,3.2,0.8,4.7,1.5V30c-2.5-1.2-5.6-1.8-9.2-1.8c-4,0-7,0.8-9.2,2.5
				c-2.1,1.7-3.2,4.6-3.2,8.8c0,3.9,0.9,6.8,2.8,8.6c1.9,1.8,5,2.7,9.4,2.7c3.4,0,6.6-0.6,9.4-1.9v5.8c-1.6,0.6-3.3,1.1-5.1,1.4
				C149.1,56.4,147,56.6,144.8,56.6z"/>
			<path class="st2" d="M233,58.2c-2.2,0-4.2-0.4-6.1-1.1c-1.9-0.7-3.4-1.8-4.5-3.3c-1.1-1.5-1.7-3.3-1.7-5.5c0-3.1,1.1-5.6,3.4-7.5
				c2.3-1.9,5.7-2.8,10.4-2.8h11.1v-1.4c0-1.6-0.3-2.8-0.8-3.7c-0.5-0.9-1.4-1.6-2.8-2c-1.3-0.4-3.3-0.6-5.9-0.6
				c-4.1,0-7.9,0.6-11.4,1.7v-5.6c1.6-0.6,3.4-1.1,5.7-1.4c2.2-0.4,4.6-0.5,7.2-0.5c5,0,8.9,1,11.5,2.9c2.6,1.9,4,5,4,9.4v20.9h-6.8
				l-0.5-3.3c-1.4,1.3-3.1,2.3-5.2,2.9C238.7,57.9,236.1,58.2,233,58.2z M235.2,52.8c2.4,0,4.4-0.4,6.2-1.1c1.8-0.8,3.2-1.8,4.3-3
				V43h-10.9c-2.3,0-4,0.4-5.1,1.3c-1,0.8-1.6,2.1-1.6,3.9c0,1.7,0.6,2.9,1.8,3.6C231.2,52.5,232.9,52.8,235.2,52.8z"/>
			<path class="st2" d="M279,58.2c-6.1,0-10.6-1.4-13.7-4.4c-3.1-2.9-4.7-7.1-4.7-12.6c0-5.7,1.7-10,5.1-12.7
				c3.4-2.8,8-4.2,13.7-4.2c2.4,0,4.4,0.2,6,0.5c1.6,0.3,3.2,0.8,4.7,1.5v5.6c-2.5-1.2-5.6-1.8-9.2-1.8c-4,0-7,0.8-9.2,2.5
				c-2.1,1.7-3.2,4.6-3.2,8.7c0,3.9,0.9,6.7,2.8,8.5c1.9,1.8,5,2.7,9.4,2.7c3.4,0,6.6-0.6,9.4-1.9v5.7c-1.6,0.6-3.3,1.1-5.1,1.4
				C283.3,58,281.3,58.2,279,58.2z"/>
			<path class="st2" d="M296.6,57.5V11.3h7.9v16.9c1.5-1.1,3.3-2.1,5.4-2.8c2.1-0.7,4.4-1.1,7.1-1.1c4.4,0,7.6,1,9.7,2.9
				c2.1,2,3.1,5,3.1,9.2v21h-7.9V36.8c0-2.5-0.6-4.3-1.7-5.3c-1.1-1-3.1-1.5-5.9-1.5c-1.7,0-3.5,0.4-5.3,1.1
				c-1.8,0.7-3.3,1.6-4.4,2.8v23.6H296.6z"/>
			<path class="st3" d="M342.2,57.5V30.7h-5.2l0.7-5.7h12.4v32.5H342.2z M341.5,18.2v-6.2h8.7v6.2H341.5z"/>
			<path class="st2" d="M359.3,57.5V25h7.3l0.4,3.4c1.6-1.1,3.4-2.1,5.6-2.9c2.2-0.8,4.5-1.2,7.2-1.2c4.5,0,7.7,1,9.7,2.9
				c2,2,3.1,5,3.1,9.2v21h-7.9V36.8c0-2.5-0.5-4.3-1.6-5.3c-1.1-1-3.1-1.5-6.1-1.5c-1.8,0-3.6,0.3-5.3,1c-1.7,0.7-3.2,1.6-4.3,2.7
				v23.8H359.3z"/>
			<path class="st2" d="M415.4,69.6c-2.6,0-5.1-0.1-7.7-0.4c-2.6-0.3-4.8-0.7-6.5-1.3V62c1.9,0.6,4.2,1.1,6.7,1.4
				c2.5,0.3,4.9,0.5,7.2,0.5c3.5,0,6-0.2,7.6-0.5c1.6-0.4,2.4-1.2,2.4-2.5c0-1-0.4-1.6-1.2-2c-0.8-0.4-2.3-0.6-4.4-0.6h-9.3
				c-6.3,0-9.4-2.1-9.4-6.2c0-1.3,0.4-2.6,1.2-3.7c0.8-1.1,2.1-2,3.9-2.6c-2-0.9-3.5-2.2-4.4-3.8c-0.9-1.6-1.4-3.5-1.4-5.8
				c0-4.2,1.3-7.2,4-9c2.6-1.9,6.6-2.8,11.9-2.8c1.1,0,2.3,0.1,3.5,0.2c1.2,0.2,2.2,0.3,2.8,0.4h12.7l-0.2,4.9h-5.8
				c0.9,0.7,1.6,1.6,2,2.7c0.4,1.1,0.7,2.3,0.7,3.6c0,3.5-1.1,6.2-3.3,8.2c-2.2,2-5.6,3-10.1,3c-0.8,0-1.5,0-2.1-0.1
				c-0.7-0.1-1.4-0.1-2.1-0.2c-1.5,0.1-2.8,0.5-3.9,1.1c-1.2,0.6-1.7,1.4-1.7,2.4c0,0.7,0.3,1.2,0.9,1.5c0.6,0.3,1.6,0.4,2.9,0.4
				h9.7c3.4,0,6.1,0.7,8,2.1c1.9,1.4,2.8,3.4,2.8,6.1c0,3.2-1.5,5.5-4.4,6.9C425,68.9,420.8,69.6,415.4,69.6z M415.9,42.6
				c3.2,0,5.3-0.5,6.6-1.5c1.2-1,1.9-2.7,1.9-5.1c0-2.4-0.6-4.2-1.9-5.3c-1.2-1.1-3.4-1.6-6.6-1.6c-3,0-5.1,0.5-6.5,1.6
				c-1.4,1.1-2,2.8-2,5.3c0,2.3,0.6,4,1.9,5.1C410.6,42.1,412.8,42.6,415.9,42.6z"/>
		</g>
		<g>
			<circle class="st4" cx="188.1" cy="39.6" r="26.2"/>
			<polygon class="st5" points="188.1,7.5 190.5,14.6 185.6,14.6 			"/>
			<polygon class="st5" points="220.3,39.7 213.1,42.1 213.1,37.3 			"/>
			<polygon class="st5" points="155.9,39.7 163.1,37.3 163.1,42.1 			"/>
			<polygon class="st5" points="188.1,71.8 185.6,64.7 190.5,64.7 			"/>
			<path class="st3" d="M192.5,40.8l-1.9-1.1c-0.2-0.7-0.7-1.3-1.5-1.8c-0.8-0.4-1.6-0.6-2.3-0.4l-2-1.2l14.7-16.7L192.5,40.8z"/>
			<path class="st6" d="M191.3,42.9l-14.7,16.7l7.1-21.1l2,1.2c0.2,0.7,0.7,1.3,1.5,1.8c0.8,0.4,1.6,0.6,2.3,0.4L191.3,42.9z"/>
		</g>
		<line class="st7" x1="106.2" y1="4.6" x2="106.2" y2="74.6"/>
		<g>
			<path class="st3" d="M58.3,27.1c-2.4,2.5-3.6,6.7-3.6,12.9c0,5.8,1.2,10,3.6,12.5c2.4,2.5,6.2,3.8,11.3,3.8
				c5.1,0,8.9-1.3,11.3-3.8c2.4-2.5,3.6-6.7,3.6-12.5c0-6.1-1.2-10.4-3.6-12.9c-2.4-2.5-6.2-3.7-11.3-3.7
				C64.5,23.4,60.7,24.7,58.3,27.1z"/>
			<path class="st3" d="M12.5,20.3c3.6-2.2,9.1-3.3,16.3-3.3c3.3,0,6.4,0.2,9.3,0.5c2.9,0.4,5.2,0.8,6.8,1.2v6.6
				c-4.5-1.3-9.4-2-14.8-2c-4.2,0-7.5,0.4-9.8,1.3c-2.3,0.9-3.5,2.5-3.5,4.7c0,1.3,0.4,2.4,1.2,3.2c0.8,0.8,2.2,1.5,4.3,2.1
				c2,0.6,4.8,1.3,8.4,2c4.6,0.9,8.2,2,10.8,3.3c2.4,1.2,4.1,2.5,5.1,4c-0.1-1.3-0.2-2.7-0.2-4.1c0-8.1,1.9-13.9,5.8-17.5
				C56,18.9,61.8,17,69.6,17c7,0,12.5,1.5,16.3,4.4C78.8,8.7,64.7,0,48.4,0C32.2,0,18.1,8.7,11,21.4C11.5,21,12,20.7,12.5,20.3z"/>
			<path class="st3" d="M69.6,62.7c-7.8,0-13.6-1.8-17.5-5.5c-1.6-1.6-2.9-3.5-3.9-5.8c-0.3,3.3-2.2,6-5.5,8
				c-3.7,2.2-9.3,3.3-16.8,3.3c-5,0-9.2-0.3-12.9-1c7.5,10.9,20.5,18.1,35.3,18.1c16.3,0,30.5-8.8,37.5-21.6
				C82.1,61.2,76.7,62.7,69.6,62.7z"/>
			<path class="st3" d="M16.4,55.7c2.9,0.5,5.8,0.7,8.7,0.7c4.5,0,7.9-0.4,10.2-1.2c2.3-0.8,3.4-2.5,3.4-4.9c0-1.5-0.5-2.7-1.4-3.6
				c-0.9-0.9-2.5-1.7-4.7-2.4c-2.2-0.7-5.2-1.4-9-2.1c-6.1-1.2-10.4-2.8-12.8-4.7c-2-1.6-3.2-3.6-3.6-6.1c-0.6,2.8-1,5.7-1,8.6
				c0,5,1,9.8,2.8,14.2C11.3,54.7,13.8,55.3,16.4,55.7z"/>
		</g>
	</g>
</g>
<g id="repere" class="st0">
</g>
</svg>
