<svg id="visual" viewBox="0 0 1500 300" width="1500" height="300" xmlns="http://www.w3.org/2000/svg" xmlns:xlink="http://www.w3.org/1999/xlink" version="1.1"><rect x="0" y="0" width="1500" height="300" fill="#ffffff"></rect><defs><linearGradient id="grad1_0" x1="80%" y1="0%" x2="100%" y2="100%"><stop offset="-50%" stop-color="#48b4ff" stop-opacity="1"></stop><stop offset="150%" stop-color="#48b4ff" stop-opacity="1"></stop></linearGradient></defs><defs><linearGradient id="grad1_1" x1="80%" y1="0%" x2="100%" y2="100%"><stop offset="-50%" stop-color="#48b4ff" stop-opacity="1"></stop><stop offset="150%" stop-color="#b3d9ff" stop-opacity="1"></stop></linearGradient></defs><defs><linearGradient id="grad1_2" x1="80%" y1="0%" x2="100%" y2="100%"><stop offset="-50%" stop-color="#ffffff" stop-opacity="1"></stop><stop offset="150%" stop-color="#b3d9ff" stop-opacity="1"></stop></linearGradient></defs><defs><linearGradient id="grad2_0" x1="0%" y1="0%" x2="20%" y2="100%"><stop offset="-50%" stop-color="#48b4ff" stop-opacity="1"></stop><stop offset="150%" stop-color="#48b4ff" stop-opacity="1"></stop></linearGradient></defs><defs><linearGradient id="grad2_1" x1="0%" y1="0%" x2="20%" y2="100%"><stop offset="-50%" stop-color="#b3d9ff" stop-opacity="1"></stop><stop offset="150%" stop-color="#48b4ff" stop-opacity="1"></stop></linearGradient></defs><defs><linearGradient id="grad2_2" x1="0%" y1="0%" x2="20%" y2="100%"><stop offset="-50%" stop-color="#b3d9ff" stop-opacity="1"></stop><stop offset="150%" stop-color="#ffffff" stop-opacity="1"></stop></linearGradient></defs><g transform="translate(1500, 0)"><path d="M0 255C-22.4 237.4 -44.7 219.8 -68.9 212.1C-93.1 204.4 -119.1 206.5 -144 198.2C-169 189.9 -192.9 171.2 -203.1 147.5C-213.3 123.9 -209.7 95.3 -214.9 69.8C-220.1 44.4 -234.1 22.2 -248 0L0 0Z" fill="#dbecff"></path><path d="M0 170C-14.9 158.3 -29.8 146.5 -45.9 141.4C-62.1 136.2 -79.4 137.7 -96 132.1C-112.6 126.6 -128.6 114.1 -135.4 98.4C-142.2 82.6 -139.8 63.5 -143.3 46.6C-146.8 29.6 -156 14.8 -165.3 0L0 0Z" fill="#87c6ff"></path><path d="M0 85C-7.5 79.1 -14.9 73.3 -23 70.7C-31 68.1 -39.7 68.8 -48 66.1C-56.3 63.3 -64.3 57.1 -67.7 49.2C-71.1 41.3 -69.9 31.8 -71.6 23.3C-73.4 14.8 -78 7.4 -82.7 0L0 0Z" fill="#48b4ff"></path></g><g transform="translate(0, 300)"><path d="M0 -244C21.7 -227.3 43.4 -210.6 65.5 -201.6C87.6 -192.6 110.1 -191.2 133.4 -183.6C156.8 -176 181 -162.2 196.6 -142.8C212.1 -123.5 219 -98.6 227.3 -73.9C235.6 -49.1 245.3 -24.6 255 0L0 0Z" fill="#dbecff"></path><path d="M0 -162.7C14.5 -151.5 28.9 -140.4 43.7 -134.4C58.4 -128.4 73.4 -127.5 89 -122.4C104.5 -117.4 120.7 -108.1 131.1 -95.2C141.4 -82.3 146 -65.7 151.5 -49.2C157.1 -32.8 163.5 -16.4 170 0L0 0Z" fill="#87c6ff"></path><path d="M0 -81.3C7.2 -75.8 14.5 -70.2 21.8 -67.2C29.2 -64.2 36.7 -63.7 44.5 -61.2C52.3 -58.7 60.3 -54.1 65.5 -47.6C70.7 -41.2 73 -32.9 75.8 -24.6C78.5 -16.4 81.8 -8.2 85 0L0 0Z" fill="#48b4ff"></path></g></svg>