<svg id="visual" viewBox="0 0 200 200" width="200" height="200" xmlns="http://www.w3.org/2000/svg" xmlns:xlink="http://www.w3.org/1999/xlink" version="1.1"><g stroke-width="1" stroke-linejoin="bevel"><path d="M113.3 99.9L125.3 97.3L114.9 83.1Z" fill="#112e42" stroke="#112e42"></path><path d="M125.3 97.3L125.3 81.7L114.9 83.1Z" fill="#00101c" stroke="#00101c"></path><path d="M125.3 81.7L106.1 73.9L114.9 83.1Z" fill="#081a28" stroke="#081a28"></path><path d="M114.9 83.1L106.1 73.9L113.3 99.9Z" fill="#205a7a" stroke="#205a7a"></path><path d="M125.3 81.7L105.9 66.4L106.1 73.9Z" fill="#1d4e6b" stroke="#1d4e6b"></path><path d="M121.9 127.3L149.1 97.1L125.3 97.3Z" fill="#277297" stroke="#277297"></path><path d="M125.3 97.3L149.1 97.1L125.3 81.7Z" fill="#277297" stroke="#277297"></path><path d="M125.3 81.7L112.1 51.7L105.9 66.4Z" fill="#297ea6" stroke="#297ea6"></path><path d="M94.9 60.2L86.7 74.9L106.1 73.9Z" fill="#081a28" stroke="#081a28"></path><path d="M106.1 73.9L86.7 74.9L113.3 99.9Z" fill="#0c2435" stroke="#0c2435"></path><path d="M112.3 143.1L121.9 127.3L73.4 132.3Z" fill="#1d4e6b" stroke="#1d4e6b"></path><path d="M113.3 99.9L121.9 127.3L125.3 97.3Z" fill="#277297" stroke="#277297"></path><path d="M105.9 66.4L94.9 60.2L106.1 73.9Z" fill="#297ea6" stroke="#297ea6"></path><path d="M49.4 97.1L77.9 88.9L58.7 54.7Z" fill="#0c2435" stroke="#0c2435"></path><path d="M86.7 74.9L77.9 88.9L113.3 99.9Z" fill="#297ea6" stroke="#297ea6"></path><path d="M139.6 42.2L112.1 51.7L125.3 81.7Z" fill="#0c2435" stroke="#0c2435"></path><path d="M105.9 66.4L112.1 51.7L94.9 60.2Z" fill="#00101c" stroke="#00101c"></path><path d="M166.8 123.6L162.6 93.1L149.1 97.1Z" fill="#19435d" stroke="#19435d"></path><path d="M149.1 97.1L166.8 83.9L125.3 81.7Z" fill="#081a28" stroke="#081a28"></path><path d="M162.6 93.1L166.8 83.9L149.1 97.1Z" fill="#277297" stroke="#277297"></path><path d="M121.9 127.3L136.6 139.3L149.1 97.1Z" fill="#19435d" stroke="#19435d"></path><path d="M73.4 132.3L121.9 127.3L113.3 99.9Z" fill="#112e42" stroke="#112e42"></path><path d="M121.9 127.3L112.3 143.1L136.6 139.3Z" fill="#205a7a" stroke="#205a7a"></path><path d="M164.6 58.7L139.6 42.2L125.3 81.7Z" fill="#277297" stroke="#277297"></path><path d="M166.8 83.9L168.6 70.4L125.3 81.7Z" fill="#112e42" stroke="#112e42"></path><path d="M168.6 70.4L164.6 58.7L125.3 81.7Z" fill="#246688" stroke="#246688"></path><path d="M112.1 51.7L99.3 37.4L94.9 60.2Z" fill="#0c2435" stroke="#0c2435"></path><path d="M58.7 54.7L77.9 88.9L86.7 74.9Z" fill="#0c2435" stroke="#0c2435"></path><path d="M130.3 13.2L99.3 37.4L112.1 51.7Z" fill="#297ea6" stroke="#297ea6"></path><path d="M136.6 139.3L166.8 123.6L149.1 97.1Z" fill="#277297" stroke="#277297"></path><path d="M200 86.9L193.6 78.9L200 100.3Z" fill="#0c2435" stroke="#0c2435"></path><path d="M166.8 83.9L193.6 78.9L168.6 70.4Z" fill="#081a28" stroke="#081a28"></path><path d="M77.9 88.9L73.4 132.3L113.3 99.9Z" fill="#1d4e6b" stroke="#1d4e6b"></path><path d="M58.7 54.7L86.7 74.9L94.9 60.2Z" fill="#19435d" stroke="#19435d"></path><path d="M77.9 88.9L49.4 97.1L73.4 132.3Z" fill="#246688" stroke="#246688"></path><path d="M65.7 41.2L58.7 54.7L94.9 60.2Z" fill="#19435d" stroke="#19435d"></path><path d="M99.3 37.4L65.7 41.2L94.9 60.2Z" fill="#19435d" stroke="#19435d"></path><path d="M163.3 158.6L184.6 122.6L166.8 123.6Z" fill="#15384f" stroke="#15384f"></path><path d="M166.8 123.6L184.6 122.6L162.6 93.1Z" fill="#277297" stroke="#277297"></path><path d="M122.3 172.8L144.8 162.3L136.6 139.3Z" fill="#297ea6" stroke="#297ea6"></path><path d="M136.6 139.3L163.3 158.6L166.8 123.6Z" fill="#00101c" stroke="#00101c"></path><path d="M122.3 172.8L136.6 139.3L112.3 143.1Z" fill="#1d4e6b" stroke="#1d4e6b"></path><path d="M193.6 78.9L166.8 83.9L200 100.3Z" fill="#297ea6" stroke="#297ea6"></path><path d="M168.6 70.4L193.6 78.9L164.6 58.7Z" fill="#246688" stroke="#246688"></path><path d="M65.7 41.2L49.9 52.7L58.7 54.7Z" fill="#246688" stroke="#246688"></path><path d="M58.7 54.7L34.4 83.9L49.4 97.1Z" fill="#205a7a" stroke="#205a7a"></path><path d="M34.4 83.9L39.7 101.1L49.4 97.1Z" fill="#112e42" stroke="#112e42"></path><path d="M49.4 97.1L39.7 101.1L73.4 132.3Z" fill="#1d4e6b" stroke="#1d4e6b"></path><path d="M145.8 6.2L130.3 13.2L139.6 42.2Z" fill="#277297" stroke="#277297"></path><path d="M139.6 42.2L130.3 13.2L112.1 51.7Z" fill="#00101c" stroke="#00101c"></path><path d="M99.3 37.4L76.1 17.4L65.7 41.2Z" fill="#081a28" stroke="#081a28"></path><path d="M145.8 6.2L139.6 42.2L164.6 58.7Z" fill="#112e42" stroke="#112e42"></path><path d="M158.6 161.8L163.3 158.6L136.6 139.3Z" fill="#1d4e6b" stroke="#1d4e6b"></path><path d="M144.8 162.3L158.6 161.8L136.6 139.3Z" fill="#277297" stroke="#277297"></path><path d="M106.1 172.3L122.3 172.8L112.3 143.1Z" fill="#205a7a" stroke="#205a7a"></path><path d="M144.8 162.3L150.1 166.6L158.6 161.8Z" fill="#19435d" stroke="#19435d"></path><path d="M77.9 174.8L106.1 172.3L112.3 143.1Z" fill="#112e42" stroke="#112e42"></path><path d="M77.9 174.8L112.3 143.1L73.4 132.3Z" fill="#297ea6" stroke="#297ea6"></path><path d="M147.8 181.8L150.1 166.6L144.8 162.3Z" fill="#246688" stroke="#246688"></path><path d="M30.2 113.3L58.9 148.6L73.4 132.3Z" fill="#205a7a" stroke="#205a7a"></path><path d="M200 100.3L166.8 83.9L162.6 93.1Z" fill="#00101c" stroke="#00101c"></path><path d="M200 114.1L200 100.3L184.6 122.6Z" fill="#15384f" stroke="#15384f"></path><path d="M184.6 122.6L200 100.3L162.6 93.1Z" fill="#205a7a" stroke="#205a7a"></path><path d="M200 86.9L200 79.7L193.6 78.9Z" fill="#00101c" stroke="#00101c"></path><path d="M193.6 78.9L216.8 54.7L164.6 58.7Z" fill="#0c2435" stroke="#0c2435"></path><path d="M34.4 66.4L34.4 83.9L58.7 54.7Z" fill="#277297" stroke="#277297"></path><path d="M200 127.6L200 114.1L184.6 122.6Z" fill="#081a28" stroke="#081a28"></path><path d="M109.3 0L76.1 17.4L99.3 37.4Z" fill="#15384f" stroke="#15384f"></path><path d="M65.7 41.2L27.4 30.7L49.9 52.7Z" fill="#112e42" stroke="#112e42"></path><path d="M27.4 30.7L34.4 66.4L49.9 52.7Z" fill="#1d4e6b" stroke="#1d4e6b"></path><path d="M49.9 52.7L34.4 66.4L58.7 54.7Z" fill="#00101c" stroke="#00101c"></path><path d="M163.3 158.6L200 127.6L184.6 122.6Z" fill="#205a7a" stroke="#205a7a"></path><path d="M177.6 0L145.8 6.2L164.6 58.7Z" fill="#112e42" stroke="#112e42"></path><path d="M130.3 13.2L109.3 0L99.3 37.4Z" fill="#246688" stroke="#246688"></path><path d="M27.7 99.3L30.2 113.3L39.7 101.1Z" fill="#297ea6" stroke="#297ea6"></path><path d="M39.7 101.1L30.2 113.3L73.4 132.3Z" fill="#205a7a" stroke="#205a7a"></path><path d="M27.7 99.3L39.7 101.1L34.4 83.9Z" fill="#081a28" stroke="#081a28"></path><path d="M18.2 82.9L27.7 99.3L34.4 83.9Z" fill="#0c2435" stroke="#0c2435"></path><path d="M200 127.6L208.8 93.1L200 114.1Z" fill="#246688" stroke="#246688"></path><path d="M200 114.1L208.8 93.1L200 100.3Z" fill="#246688" stroke="#246688"></path><path d="M200 100.3L208.8 93.1L200 86.9Z" fill="#19435d" stroke="#19435d"></path><path d="M200 86.9L208.8 93.1L200 79.7Z" fill="#081a28" stroke="#081a28"></path><path d="M47.4 179.6L77.9 174.8L58.9 148.6Z" fill="#0c2435" stroke="#0c2435"></path><path d="M58.9 148.6L77.9 174.8L73.4 132.3Z" fill="#15384f" stroke="#15384f"></path><path d="M139.8 200L147.8 181.8L122.3 172.8Z" fill="#15384f" stroke="#15384f"></path><path d="M145.8 6.2L126.1 0L130.3 13.2Z" fill="#277297" stroke="#277297"></path><path d="M126.1 0L109.3 0L130.3 13.2Z" fill="#15384f" stroke="#15384f"></path><path d="M158.6 161.8L159.3 200L163.3 158.6Z" fill="#0c2435" stroke="#0c2435"></path><path d="M163.3 158.6L200 191.8L200 127.6Z" fill="#15384f" stroke="#15384f"></path><path d="M150.1 166.6L147.8 181.8L158.6 161.8Z" fill="#205a7a" stroke="#205a7a"></path><path d="M122.3 172.8L147.8 181.8L144.8 162.3Z" fill="#297ea6" stroke="#297ea6"></path><path d="M139.8 200L122.3 172.8L110.1 211.8Z" fill="#112e42" stroke="#112e42"></path><path d="M76.9 0L59.4 13.2L76.1 17.4Z" fill="#277297" stroke="#277297"></path><path d="M76.1 17.4L59.4 13.2L65.7 41.2Z" fill="#112e42" stroke="#112e42"></path><path d="M109.3 0L78.4 0L76.1 17.4Z" fill="#081a28" stroke="#081a28"></path><path d="M0 50.4L18.2 82.9L34.4 66.4Z" fill="#297ea6" stroke="#297ea6"></path><path d="M34.4 66.4L18.2 82.9L34.4 83.9Z" fill="#00101c" stroke="#00101c"></path><path d="M27.7 99.3L0 121.9L30.2 113.3Z" fill="#081a28" stroke="#081a28"></path><path d="M78.4 0L76.9 0L76.1 17.4Z" fill="#19435d" stroke="#19435d"></path><path d="M109.3 0L86.1 -7.8L78.4 0Z" fill="#0c2435" stroke="#0c2435"></path><path d="M78.4 0L86.1 -7.8L76.9 0Z" fill="#246688" stroke="#246688"></path><path d="M33.7 6.4L27.4 30.7L59.4 13.2Z" fill="#00101c" stroke="#00101c"></path><path d="M126.1 0L86.1 -7.8L109.3 0Z" fill="#112e42" stroke="#112e42"></path><path d="M208.8 93.1L216.8 54.7L200 79.7Z" fill="#081a28" stroke="#081a28"></path><path d="M200 79.7L216.8 54.7L193.6 78.9Z" fill="#19435d" stroke="#19435d"></path><path d="M56.7 0L59.4 13.2L76.9 0Z" fill="#205a7a" stroke="#205a7a"></path><path d="M59.4 13.2L27.4 30.7L65.7 41.2Z" fill="#277297" stroke="#277297"></path><path d="M200 14.4L177.6 0L164.6 58.7Z" fill="#081a28" stroke="#081a28"></path><path d="M145.8 6.2L177.6 0L126.1 0Z" fill="#246688" stroke="#246688"></path><path d="M126.1 0L200 -4.8L86.1 -7.8Z" fill="#112e42" stroke="#112e42"></path><path d="M110.1 211.8L122.3 172.8L106.1 172.3Z" fill="#00101c" stroke="#00101c"></path><path d="M147.8 181.8L159.3 200L158.6 161.8Z" fill="#205a7a" stroke="#205a7a"></path><path d="M86.1 -7.8L56.7 0L76.9 0Z" fill="#081a28" stroke="#081a28"></path><path d="M139.8 200L140.1 200L147.8 181.8Z" fill="#19435d" stroke="#19435d"></path><path d="M140.1 200L143.6 200L147.8 181.8Z" fill="#246688" stroke="#246688"></path><path d="M33.2 175.6L47.4 179.6L58.9 148.6Z" fill="#0c2435" stroke="#0c2435"></path><path d="M77.9 174.8L110.1 211.8L106.1 172.3Z" fill="#297ea6" stroke="#297ea6"></path><path d="M33.2 175.6L58.9 148.6L16.2 157.8Z" fill="#112e42" stroke="#112e42"></path><path d="M216.8 54.7L200 14.4L164.6 58.7Z" fill="#277297" stroke="#277297"></path><path d="M143.6 200L159.3 200L147.8 181.8Z" fill="#112e42" stroke="#112e42"></path><path d="M200 14.4L191.8 0L177.6 0Z" fill="#297ea6" stroke="#297ea6"></path><path d="M177.6 0L200 -4.8L126.1 0Z" fill="#19435d" stroke="#19435d"></path><path d="M16.2 157.8L58.9 148.6L30.2 113.3Z" fill="#081a28" stroke="#081a28"></path><path d="M216.8 54.7L214.8 22.4L200 14.4Z" fill="#15384f" stroke="#15384f"></path><path d="M200 14.4L200 0L191.8 0Z" fill="#277297" stroke="#277297"></path><path d="M56.7 0L33.7 6.4L59.4 13.2Z" fill="#15384f" stroke="#15384f"></path><path d="M140.1 200L110.1 211.8L143.6 200Z" fill="#205a7a" stroke="#205a7a"></path><path d="M143.6 200L110.1 211.8L159.3 200Z" fill="#081a28" stroke="#081a28"></path><path d="M139.8 200L110.1 211.8L140.1 200Z" fill="#277297" stroke="#277297"></path><path d="M64.4 204.8L110.1 211.8L77.9 174.8Z" fill="#15384f" stroke="#15384f"></path><path d="M64.4 204.8L77.9 174.8L52.9 200Z" fill="#19435d" stroke="#19435d"></path><path d="M0 137.1L16.2 157.8L30.2 113.3Z" fill="#0c2435" stroke="#0c2435"></path><path d="M18.2 82.9L0 121.9L27.7 99.3Z" fill="#19435d" stroke="#19435d"></path><path d="M-13.8 79.4L0 121.9L18.2 82.9Z" fill="#112e42" stroke="#112e42"></path><path d="M0 50.4L34.4 66.4L27.4 30.7Z" fill="#205a7a" stroke="#205a7a"></path><path d="M0 167.6L32.7 180.8L33.2 175.6Z" fill="#297ea6" stroke="#297ea6"></path><path d="M33.2 175.6L32.7 180.8L47.4 179.6Z" fill="#205a7a" stroke="#205a7a"></path><path d="M214.8 22.4L200 0L200 14.4Z" fill="#277297" stroke="#277297"></path><path d="M191.8 0L200 -4.8L177.6 0Z" fill="#246688" stroke="#246688"></path><path d="M56.7 0L33.2 0L33.7 6.4Z" fill="#0c2435" stroke="#0c2435"></path><path d="M-1.8 45.7L0 50.4L27.4 30.7Z" fill="#246688" stroke="#246688"></path><path d="M7.2 -16.8L33.2 0L56.7 0Z" fill="#297ea6" stroke="#297ea6"></path><path d="M52.9 200L77.9 174.8L47.4 179.6Z" fill="#1d4e6b" stroke="#1d4e6b"></path><path d="M-1.8 45.7L27.4 30.7L0 31.7Z" fill="#15384f" stroke="#15384f"></path><path d="M42.7 200L52.9 200L47.4 179.6Z" fill="#15384f" stroke="#15384f"></path><path d="M0 121.9L0 137.1L30.2 113.3Z" fill="#00101c" stroke="#00101c"></path><path d="M0 167.6L29.7 188.6L32.7 180.8Z" fill="#15384f" stroke="#15384f"></path><path d="M0 137.1L0 137.8L16.2 157.8Z" fill="#1d4e6b" stroke="#1d4e6b"></path><path d="M214.8 22.4L200 -4.8L200 0Z" fill="#205a7a" stroke="#205a7a"></path><path d="M200 0L200 -4.8L191.8 0Z" fill="#1d4e6b" stroke="#1d4e6b"></path><path d="M0 31.7L27.4 30.7L0 0Z" fill="#205a7a" stroke="#205a7a"></path><path d="M-15.8 73.1L-13.8 79.4L18.2 82.9Z" fill="#1d4e6b" stroke="#1d4e6b"></path><path d="M0 121.9L-13.8 79.4L0 137.1Z" fill="#15384f" stroke="#15384f"></path><path d="M0 137.1L-13.8 79.4L0 137.8Z" fill="#297ea6" stroke="#297ea6"></path><path d="M200 200L200 191.8L159.3 200Z" fill="#205a7a" stroke="#205a7a"></path><path d="M159.3 200L200 191.8L163.3 158.6Z" fill="#0c2435" stroke="#0c2435"></path><path d="M200 127.6L200 191.8L208.8 93.1Z" fill="#277297" stroke="#277297"></path><path d="M208.8 93.1L200 191.8L216.8 54.7Z" fill="#277297" stroke="#277297"></path><path d="M0 167.6L33.2 175.6L16.2 157.8Z" fill="#297ea6" stroke="#297ea6"></path><path d="M32.7 180.8L29.7 188.6L47.4 179.6Z" fill="#19435d" stroke="#19435d"></path><path d="M29.7 188.6L42.7 200L47.4 179.6Z" fill="#1d4e6b" stroke="#1d4e6b"></path><path d="M52.9 200L42.7 200L64.4 204.8Z" fill="#0c2435" stroke="#0c2435"></path><path d="M-15.8 73.1L18.2 82.9L0 50.4Z" fill="#00101c" stroke="#00101c"></path><path d="M0 0L27.4 30.7L33.7 6.4Z" fill="#277297" stroke="#277297"></path><path d="M-1.8 45.7L-15.8 73.1L0 50.4Z" fill="#1d4e6b" stroke="#1d4e6b"></path><path d="M0 31.7L-15.8 73.1L-1.8 45.7Z" fill="#297ea6" stroke="#297ea6"></path><path d="M-13.8 79.4L0 167.3L0 137.8Z" fill="#1d4e6b" stroke="#1d4e6b"></path><path d="M110.1 211.8L200 200L159.3 200Z" fill="#081a28" stroke="#081a28"></path><path d="M200 191.8L200 200L216.8 54.7Z" fill="#15384f" stroke="#15384f"></path><path d="M13.2 200L32.4 200L29.7 188.6Z" fill="#1d4e6b" stroke="#1d4e6b"></path><path d="M29.7 188.6L32.4 200L42.7 200Z" fill="#112e42" stroke="#112e42"></path><path d="M42.7 200L32.4 200L64.4 204.8Z" fill="#0c2435" stroke="#0c2435"></path><path d="M64.4 204.8L0 200L110.1 211.8Z" fill="#15384f" stroke="#15384f"></path><path d="M0 167.6L0 167.3L-13.8 79.4Z" fill="#277297" stroke="#277297"></path><path d="M0 137.8L0 167.3L16.2 157.8Z" fill="#1d4e6b" stroke="#1d4e6b"></path><path d="M-15.8 73.1L0 167.6L-13.8 79.4Z" fill="#246688" stroke="#246688"></path><path d="M0 167.3L0 167.6L16.2 157.8Z" fill="#0c2435" stroke="#0c2435"></path><path d="M0 -7.8L0 0L7.2 -16.8Z" fill="#1d4e6b" stroke="#1d4e6b"></path><path d="M33.2 0L0 0L33.7 6.4Z" fill="#112e42" stroke="#112e42"></path><path d="M0 31.7L0 0L-15.8 73.1Z" fill="#205a7a" stroke="#205a7a"></path><path d="M0 167.6L13.2 200L29.7 188.6Z" fill="#15384f" stroke="#15384f"></path><path d="M32.4 200L13.2 200L64.4 204.8Z" fill="#0c2435" stroke="#0c2435"></path><path d="M7.2 -16.8L0 0L33.2 0Z" fill="#1d4e6b" stroke="#1d4e6b"></path><path d="M0 0L0 -7.8L-15.8 73.1Z" fill="#112e42" stroke="#112e42"></path><path d="M200 -4.8L7.2 -16.8L86.1 -7.8Z" fill="#0c2435" stroke="#0c2435"></path><path d="M86.1 -7.8L7.2 -16.8L56.7 0Z" fill="#0c2435" stroke="#0c2435"></path><path d="M0 167.6L0 200L13.2 200Z" fill="#15384f" stroke="#15384f"></path><path d="M13.2 200L0 200L64.4 204.8Z" fill="#19435d" stroke="#19435d"></path><path d="M-15.8 73.1L0 200L0 167.6Z" fill="#112e42" stroke="#112e42"></path></g></svg>