
<svg  id="wave" style="transform:rotate(180deg); " viewBox="0 0 1440 360"  xmlns="http://www.w3.org/2000/svg"><defs><linearGradient id="sw-gradient-0" x1="0" x2="0" y1="1" y2="0"><stop stop-color="rgba(243, 106, 62, 1)" offset="0%"/><stop stop-color="rgba(255, 179, 11, 1)" offset="100%"/></linearGradient></defs><path style="transform:translate(0, 0px); opacity:1" fill="url(#sw-gradient-0)" d="M0,108L48,120C96,132,192,156,288,144C384,132,480,84,576,84C672,84,768,132,864,138C960,144,1056,108,1152,114C1248,120,1344,168,1440,156C1536,144,1632,72,1728,36C1824,0,1920,0,2016,48C2112,96,2208,192,2304,234C2400,276,2496,264,2592,234C2688,204,2784,156,2880,132C2976,108,3072,108,3168,102C3264,96,3360,84,3456,78C3552,72,3648,72,3744,90C3840,108,3936,144,4032,162C4128,180,4224,180,4320,162C4416,144,4512,108,4608,84C4704,60,4800,48,4896,84C4992,120,5088,204,5184,252C5280,300,5376,312,5472,276C5568,240,5664,156,5760,126C5856,96,5952,120,6048,162C6144,204,6240,264,6336,264C6432,264,6528,204,6624,186C6720,168,6816,192,6864,204L6912,216L6912,360L6864,360C6816,360,6720,360,6624,360C6528,360,6432,360,6336,360C6240,360,6144,360,6048,360C5952,360,5856,360,5760,360C5664,360,5568,360,5472,360C5376,360,5280,360,5184,360C5088,360,4992,360,4896,360C4800,360,4704,360,4608,360C4512,360,4416,360,4320,360C4224,360,4128,360,4032,360C3936,360,3840,360,3744,360C3648,360,3552,360,3456,360C3360,360,3264,360,3168,360C3072,360,2976,360,2880,360C2784,360,2688,360,2592,360C2496,360,2400,360,2304,360C2208,360,2112,360,2016,360C1920,360,1824,360,1728,360C1632,360,1536,360,1440,360C1344,360,1248,360,1152,360C1056,360,960,360,864,360C768,360,672,360,576,360C480,360,384,360,288,360C192,360,96,360,48,360L0,360Z"/></svg>