<svg id="visual" viewBox="0 0 1500 300" width="1500" height="300" xmlns="http://www.w3.org/2000/svg" xmlns:xlink="http://www.w3.org/1999/xlink" version="1.1"><path d="M0 248L41.7 249.8C83.3 251.7 166.7 255.3 250 261.8C333.3 268.3 416.7 277.7 500 276C583.3 274.3 666.7 261.7 750 257.7C833.3 253.7 916.7 258.3 1000 261.8C1083.3 265.3 1166.7 267.7 1250 266.7C1333.3 265.7 1416.7 261.3 1458.3 259.2L1500 257L1500 301L1458.3 301C1416.7 301 1333.3 301 1250 301C1166.7 301 1083.3 301 1000 301C916.7 301 833.3 301 750 301C666.7 301 583.3 301 500 301C416.7 301 333.3 301 250 301C166.7 301 83.3 301 41.7 301L0 301Z" fill="#0066FF" stroke-linecap="round" stroke-linejoin="miter"></path></svg>