<svg id="visual" viewBox="0 0 1500 300" width="1500" height="300" xmlns="http://www.w3.org/2000/svg" xmlns:xlink="http://www.w3.org/1999/xlink" version="1.1"><path d="M0 187L41.7 194.2C83.3 201.3 166.7 215.7 250 226C333.3 236.3 416.7 242.7 500 240.5C583.3 238.3 666.7 227.7 750 213.5C833.3 199.3 916.7 181.7 1000 169.3C1083.3 157 1166.7 150 1250 149C1333.3 148 1416.7 153 1458.3 155.5L1500 158L1500 301L1458.3 301C1416.7 301 1333.3 301 1250 301C1166.7 301 1083.3 301 1000 301C916.7 301 833.3 301 750 301C666.7 301 583.3 301 500 301C416.7 301 333.3 301 250 301C166.7 301 83.3 301 41.7 301L0 301Z" fill="#0066FF" stroke-linecap="round" stroke-linejoin="miter"></path></svg>