<svg id="visual" viewBox="0 0 1500 300" width="1500" height="300" xmlns="http://www.w3.org/2000/svg" xmlns:xlink="http://www.w3.org/1999/xlink" version="1.1"><path d="M0 236L50 242.5C100 249 200 262 300 268C400 274 500 273 600 269.3C700 265.7 800 259.3 900 254.8C1000 250.3 1100 247.7 1200 248.7C1300 249.7 1400 254.3 1450 256.7L1500 259L1500 301L1450 301C1400 301 1300 301 1200 301C1100 301 1000 301 900 301C800 301 700 301 600 301C500 301 400 301 300 301C200 301 100 301 50 301L0 301Z" fill="#0066FF" stroke-linecap="round" stroke-linejoin="miter"></path></svg>