<svg id="visual" viewBox="0 0 1500 300" width="1500" height="300" xmlns="http://www.w3.org/2000/svg" xmlns:xlink="http://www.w3.org/1999/xlink" version="1.1"><path d="M0 111L41.7 103.8C83.3 96.7 166.7 82.3 250 72C333.3 61.7 416.7 55.3 500 57.5C583.3 59.7 666.7 70.3 750 84.5C833.3 98.7 916.7 116.3 1000 128.7C1083.3 141 1166.7 148 1250 149C1333.3 150 1416.7 145 1458.3 142.5L1500 140L1500 0L1458.3 0C1416.7 0 1333.3 0 1250 0C1166.7 0 1083.3 0 1000 0C916.7 0 833.3 0 750 0C666.7 0 583.3 0 500 0C416.7 0 333.3 0 250 0C166.7 0 83.3 0 41.7 0L0 0Z" fill="#0066FF" stroke-linecap="round" stroke-linejoin="miter"></path></svg>