<svg id="visual" viewBox="0 0 900 450" width="900" height="450" xmlns="http://www.w3.org/2000/svg" xmlns:xlink="http://www.w3.org/1999/xlink" version="1.1"><path d="M0 372L25 375C50 378 100 384 150 393.8C200 403.7 250 417.3 300 414.7C350 412 400 393 450 387C500 381 550 388 600 393.2C650 398.3 700 401.7 750 400.2C800 398.7 850 392.3 875 389.2L900 386L900 451L875 451C850 451 800 451 750 451C700 451 650 451 600 451C550 451 500 451 450 451C400 451 350 451 300 451C250 451 200 451 150 451C100 451 50 451 25 451L0 451Z" fill="#0066FF" stroke-linecap="round" stroke-linejoin="miter"></path></svg>