<svg xmlns="http://www.w3.org/2000/svg" version="1.1" xmlns:xlink="http://www.w3.org/1999/xlink" xmlns:svgjs="http://svgjs.dev/svgjs" viewBox="0 0 800 800" opacity="1" width="300" height="150"><g stroke-width="10" stroke="#9cd008" fill="none"><circle r="12.5" cx="0" cy="0" fill="#9cd008" stroke="none"></circle><circle r="12.5" cx="114.28571428571429" cy="0" fill="#9cd008" stroke="none"></circle><circle r="12.5" cx="228.57142857142858" cy="0" fill="#9cd008" stroke="none"></circle><circle r="12.5" cx="342.8571428571429" cy="0" fill="#9cd008" stroke="none"></circle><circle r="12.5" cx="457.14285714285717" cy="0" fill="#9cd008" stroke="none"></circle><circle r="12.5" cx="571.4285714285714" cy="0" fill="#9cd008" stroke="none"></circle><circle r="12.5" cx="685.7142857142858" cy="0" fill="#9cd008" stroke="none"></circle><circle r="12.5" cx="800.0000000000001" cy="0" fill="#9cd008" stroke="none"></circle><circle r="12.5" cx="0" cy="160" fill="#9cd008" stroke="none"></circle><circle r="12.5" cx="114.28571428571429" cy="160" fill="#9cd008" stroke="none"></circle><circle r="12.5" cx="228.57142857142858" cy="160" fill="#9cd008" stroke="none"></circle><circle r="12.5" cx="342.8571428571429" cy="160" fill="#9cd008" stroke="none"></circle><circle r="12.5" cx="457.14285714285717" cy="160" fill="#9cd008" stroke="none"></circle><circle r="12.5" cx="571.4285714285714" cy="160" fill="#9cd008" stroke="none"></circle><circle r="12.5" cx="685.7142857142858" cy="160" fill="#9cd008" stroke="none"></circle><circle r="12.5" cx="800.0000000000001" cy="160" fill="#9cd008" stroke="none"></circle><circle r="12.5" cx="0" cy="320" fill="#9cd008" stroke="none"></circle><circle r="12.5" cx="114.28571428571429" cy="320" fill="#9cd008" stroke="none"></circle><circle r="12.5" cx="228.57142857142858" cy="320" fill="#9cd008" stroke="none"></circle><circle r="12.5" cx="342.8571428571429" cy="320" fill="#9cd008" stroke="none"></circle><circle r="12.5" cx="457.14285714285717" cy="320" fill="#9cd008" stroke="none"></circle><circle r="12.5" cx="571.4285714285714" cy="320" fill="#9cd008" stroke="none"></circle><circle r="12.5" cx="685.7142857142858" cy="320" fill="#9cd008" stroke="none"></circle><circle r="12.5" cx="800.0000000000001" cy="320" fill="#9cd008" stroke="none"></circle><circle r="12.5" cx="0" cy="480" fill="#9cd008" stroke="none"></circle><circle r="12.5" cx="114.28571428571429" cy="480" fill="#9cd008" stroke="none"></circle><circle r="12.5" cx="228.57142857142858" cy="480" fill="#9cd008" stroke="none"></circle><circle r="12.5" cx="342.8571428571429" cy="480" fill="#9cd008" stroke="none"></circle><circle r="12.5" cx="457.14285714285717" cy="480" fill="#9cd008" stroke="none"></circle><circle r="12.5" cx="571.4285714285714" cy="480" fill="#9cd008" stroke="none"></circle><circle r="12.5" cx="685.7142857142858" cy="480" fill="#9cd008" stroke="none"></circle><circle r="12.5" cx="800.0000000000001" cy="480" fill="#9cd008" stroke="none"></circle><circle r="12.5" cx="0" cy="640" fill="#9cd008" stroke="none"></circle><circle r="12.5" cx="114.28571428571429" cy="640" fill="#9cd008" stroke="none"></circle><circle r="12.5" cx="228.57142857142858" cy="640" fill="#9cd008" stroke="none"></circle><circle r="12.5" cx="342.8571428571429" cy="640" fill="#9cd008" stroke="none"></circle><circle r="12.5" cx="457.14285714285717" cy="640" fill="#9cd008" stroke="none"></circle><circle r="12.5" cx="571.4285714285714" cy="640" fill="#9cd008" stroke="none"></circle><circle r="12.5" cx="685.7142857142858" cy="640" fill="#9cd008" stroke="none"></circle><circle r="12.5" cx="800.0000000000001" cy="640" fill="#9cd008" stroke="none"></circle><circle r="12.5" cx="0" cy="800" fill="#9cd008" stroke="none"></circle><circle r="12.5" cx="114.28571428571429" cy="800" fill="#9cd008" stroke="none"></circle><circle r="12.5" cx="228.57142857142858" cy="800" fill="#9cd008" stroke="none"></circle><circle r="12.5" cx="342.8571428571429" cy="800" fill="#9cd008" stroke="none"></circle><circle r="12.5" cx="457.14285714285717" cy="800" fill="#9cd008" stroke="none"></circle><circle r="12.5" cx="571.4285714285714" cy="800" fill="#9cd008" stroke="none"></circle><circle r="12.5" cx="685.7142857142858" cy="800" fill="#9cd008" stroke="none"></circle><circle r="12.5" cx="800.0000000000001" cy="800" fill="#9cd008" stroke="none"></circle></g></svg>