<svg xmlns="http://www.w3.org/2000/svg" version="1.1" xmlns:xlink="http://www.w3.org/1999/xlink" xmlns:svgjs="http://svgjs.dev/svgjs" width="300" height="200" preserveAspectRatio="none" viewBox="0 0 300 200"><g mask="url(&quot;#SvgjsMask1197&quot;)" fill="none"><use xlink:href="#SvgjsPath1198" x="30" y="30" stroke="rgba(156, 208, 8, 1)"></use><use xlink:href="#SvgjsPath1199" x="30" y="90" stroke="rgba(156, 208, 8, 1)"></use><use xlink:href="#SvgjsPath1200" x="30" y="150" stroke="rgba(156, 208, 8, 1)"></use><use xlink:href="#SvgjsPath1198" x="30" y="210" stroke="rgba(156, 208, 8, 1)"></use><use xlink:href="#SvgjsPath1199" x="90" y="30" stroke="rgba(156, 208, 8, 1)"></use><use xlink:href="#SvgjsPath1201" x="90" y="90" stroke="rgba(156, 208, 8, 1)"></use><use xlink:href="#SvgjsPath1201" x="90" y="150" stroke="rgba(156, 208, 8, 1)"></use><use xlink:href="#SvgjsPath1200" x="90" y="210" stroke="rgba(156, 208, 8, 1)"></use><use xlink:href="#SvgjsPath1198" x="150" y="30" stroke="rgba(156, 208, 8, 1)"></use><use xlink:href="#SvgjsPath1199" x="150" y="90" stroke="rgba(156, 208, 8, 1)"></use><use xlink:href="#SvgjsPath1201" x="150" y="150" stroke="rgba(156, 208, 8, 1)"></use><use xlink:href="#SvgjsPath1201" x="150" y="210" stroke="rgba(156, 208, 8, 1)"></use><use xlink:href="#SvgjsPath1202" x="210" y="30" stroke="rgba(156, 208, 8, 1)"></use><use xlink:href="#SvgjsPath1201" x="210" y="90" stroke="rgba(156, 208, 8, 1)"></use><use xlink:href="#SvgjsPath1202" x="210" y="150" stroke="rgba(156, 208, 8, 1)"></use><use xlink:href="#SvgjsPath1200" x="210" y="210" stroke="rgba(156, 208, 8, 1)"></use><use xlink:href="#SvgjsPath1199" x="270" y="30" stroke="rgba(156, 208, 8, 1)"></use><use xlink:href="#SvgjsPath1199" x="270" y="90" stroke="rgba(156, 208, 8, 1)"></use><use xlink:href="#SvgjsPath1198" x="270" y="150" stroke="rgba(156, 208, 8, 1)"></use><use xlink:href="#SvgjsPath1199" x="270" y="210" stroke="rgba(156, 208, 8, 1)"></use></g><defs><mask id="SvgjsMask1197"><rect width="300" height="200" fill="#ffffff"></rect></mask><path d="M-1 0 a1 1 0 1 0 2 0 a1 1 0 1 0 -2 0z" id="SvgjsPath1202"></path><path d="M-3 0 a3 3 0 1 0 6 0 a3 3 0 1 0 -6 0z" id="SvgjsPath1200"></path><path d="M-5 0 a5 5 0 1 0 10 0 a5 5 0 1 0 -10 0z" id="SvgjsPath1199"></path><path d="M2 -2 L-2 2z" id="SvgjsPath1198"></path><path d="M6 -6 L-6 6z" id="SvgjsPath1201"></path><path d="M30 -30 L-30 30z"></path></defs></svg>