<svg xmlns="http://www.w3.org/2000/svg" version="1.1" xmlns:xlink="http://www.w3.org/1999/xlink" xmlns:svgjs="http://svgjs.dev/svgjs" width="300" height="200" preserveAspectRatio="none" viewBox="0 0 300 200"><g mask="url(&quot;#SvgjsMask1326&quot;)" fill="none"><use xlink:href="#SvgjsPath1327" x="30" y="30" stroke="rgba(255, 110, 0, 1)"></use><use xlink:href="#SvgjsPath1328" x="30" y="90" stroke="rgba(255, 110, 0, 1)"></use><use xlink:href="#SvgjsPath1329" x="30" y="150" stroke="rgba(255, 110, 0, 1)"></use><use xlink:href="#SvgjsPath1330" x="30" y="210" stroke="rgba(255, 110, 0, 1)"></use><use xlink:href="#SvgjsPath1329" x="90" y="30" stroke="rgba(255, 110, 0, 1)"></use><use xlink:href="#SvgjsPath1329" x="90" y="90" stroke="rgba(255, 110, 0, 1)"></use><use xlink:href="#SvgjsPath1329" x="90" y="150" stroke="rgba(255, 110, 0, 1)"></use><use xlink:href="#SvgjsPath1331" x="90" y="210" stroke="rgba(255, 110, 0, 1)" stroke-width="3"></use><use xlink:href="#SvgjsPath1331" x="150" y="30" stroke="rgba(255, 110, 0, 1)" stroke-width="3"></use><use xlink:href="#SvgjsPath1327" x="150" y="90" stroke="rgba(255, 110, 0, 1)"></use><use xlink:href="#SvgjsPath1327" x="150" y="150" stroke="rgba(255, 110, 0, 1)"></use><use xlink:href="#SvgjsPath1332" x="150" y="210" stroke="rgba(255, 110, 0, 1)"></use><use xlink:href="#SvgjsPath1329" x="210" y="30" stroke="rgba(255, 110, 0, 1)"></use><use xlink:href="#SvgjsPath1327" x="210" y="90" stroke="rgba(255, 110, 0, 1)"></use><use xlink:href="#SvgjsPath1328" x="210" y="150" stroke="rgba(255, 110, 0, 1)"></use><use xlink:href="#SvgjsPath1329" x="210" y="210" stroke="rgba(255, 110, 0, 1)"></use><use xlink:href="#SvgjsPath1329" x="270" y="30" stroke="rgba(255, 110, 0, 1)"></use><use xlink:href="#SvgjsPath1330" x="270" y="90" stroke="rgba(255, 110, 0, 1)"></use><use xlink:href="#SvgjsPath1327" x="270" y="150" stroke="rgba(255, 110, 0, 1)"></use><use xlink:href="#SvgjsPath1332" x="270" y="210" stroke="rgba(255, 110, 0, 1)"></use></g><defs><mask id="SvgjsMask1326"><rect width="300" height="200" fill="#ffffff"></rect></mask><path d="M-1 0 a1 1 0 1 0 2 0 a1 1 0 1 0 -2 0z" id="SvgjsPath1332"></path><path d="M-3 0 a3 3 0 1 0 6 0 a3 3 0 1 0 -6 0z" id="SvgjsPath1330"></path><path d="M-5 0 a5 5 0 1 0 10 0 a5 5 0 1 0 -10 0z" id="SvgjsPath1328"></path><path d="M2 -2 L-2 2z" id="SvgjsPath1327"></path><path d="M6 -6 L-6 6z" id="SvgjsPath1329"></path><path d="M30 -30 L-30 30z" id="SvgjsPath1331"></path></defs></svg>