<svg xmlns="http://www.w3.org/2000/svg" version="1.1" xmlns:xlink="http://www.w3.org/1999/xlink" xmlns:svgjs="http://svgjs.dev/svgjs" viewBox="0 0 800 800"><g fill="#9cd008" transform="matrix(1.5,0,0,1.5,-205.625,-205.625)"><circle r="2.5" cx="405" cy="400"></circle><circle r="2.5" cx="402" cy="406"></circle><circle r="2.5" cx="394" cy="405"></circle><circle r="2.5" cx="392" cy="396"></circle><circle r="2.5" cx="402" cy="390"></circle><circle r="2.5" cx="411" cy="398"></circle><circle r="2.5" cx="406" cy="411"></circle><circle r="2.5" cx="391" cy="410"></circle><circle r="2.5" cx="386" cy="395"></circle><circle r="2.5" cx="400" cy="384"></circle><circle r="2.5" cx="416" cy="394"></circle><circle r="2.5" cx="412" cy="414"></circle><circle r="2.5" cx="391" cy="417"></circle><circle r="3" cx="379" cy="397"></circle><circle r="3" cx="396" cy="378"></circle><circle r="3" cx="420" cy="388"></circle><circle r="3" cx="419" cy="415"></circle><circle r="3" cx="392" cy="424"></circle><circle r="3" cx="373" cy="401"></circle><circle r="3" cx="389" cy="374"></circle><circle r="3" cx="422" cy="380"></circle><circle r="3" cx="427" cy="414"></circle><circle r="3" cx="396" cy="432"></circle><circle r="3" cx="368" cy="407"></circle><circle r="3" cx="382" cy="371"></circle><circle r="3" cx="422" cy="372"></circle><circle r="3" cx="435" cy="411"></circle><circle r="3" cx="402" cy="438"></circle><circle r="3" cx="364" cy="415"></circle><circle r="3" cx="373" cy="370"></circle><circle r="3" cx="419" cy="363"></circle><circle r="3" cx="443" cy="405"></circle><circle r="3" cx="410" cy="443"></circle><circle r="3" cx="362" cy="425"></circle><circle r="3" cx="363" cy="372"></circle><circle r="3" cx="414" cy="354"></circle><circle r="3" cx="449" cy="397"></circle><circle r="3" cx="420" cy="446"></circle><circle r="3" cx="363" cy="436"></circle><circle r="3.5" cx="353" cy="377"></circle><circle r="3.5" cx="406" cy="346"></circle><circle r="3.5" cx="453" cy="387"></circle><circle r="3.5" cx="432" cy="447"></circle><circle r="3.5" cx="366" cy="447"></circle><circle r="3.5" cx="343" cy="384"></circle><circle r="3.5" cx="395" cy="340"></circle><circle r="3.5" cx="456" cy="375"></circle><circle r="3.5" cx="444" cy="444"></circle><circle r="3.5" cx="373" cy="457"></circle><circle r="3.5" cx="335" cy="394"></circle><circle r="3.5" cx="383" cy="336"></circle><circle r="3.5" cx="455" cy="361"></circle><circle r="3.5" cx="456" cy="439"></circle><circle r="3.5" cx="382" cy="467"></circle><circle r="3.5" cx="329" cy="407"></circle><circle r="3.5" cx="369" cy="335"></circle><circle r="3.5" cx="451" cy="348"></circle><circle r="3.5" cx="468" cy="431"></circle><circle r="3.5" cx="394" cy="476"></circle><circle r="3.5" cx="326" cy="421"></circle><circle r="3.5" cx="354" cy="337"></circle><circle r="3.5" cx="444" cy="334"></circle><circle r="3.5" cx="478" cy="419"></circle><circle r="3.5" cx="409" cy="481"></circle><circle r="3.5" cx="326" cy="437"></circle><circle r="4" cx="339" cy="342"></circle><circle r="4" cx="434" cy="322"></circle><circle r="4" cx="487" cy="405"></circle><circle r="4" cx="425" cy="484"></circle><circle r="4" cx="329" cy="453"></circle><circle r="4" cx="324" cy="351"></circle><circle r="4" cx="421" cy="311"></circle><circle r="4" cx="492" cy="388"></circle><circle r="4" cx="443" cy="484"></circle><circle r="4" cx="335" cy="470"></circle><circle r="4" cx="311" cy="363"></circle><circle r="4" cx="404" cy="302"></circle><circle r="4" cx="494" cy="370"></circle><circle r="4" cx="461" cy="479"></circle><circle r="4" cx="346" cy="486"></circle><circle r="4" cx="300" cy="379"></circle><circle r="4" cx="385" cy="297"></circle><circle r="4" cx="493" cy="350"></circle><circle r="4" cx="479" cy="471"></circle><circle r="4" cx="360" cy="500"></circle><circle r="4" cx="291" cy="397"></circle><circle r="4" cx="365" cy="296"></circle><circle r="4" cx="487" cy="331"></circle><circle r="4" cx="496" cy="458"></circle><circle r="4" cx="378" cy="511"></circle><circle r="4" cx="287" cy="418"></circle><circle r="4.5" cx="344" cy="299"></circle><circle r="4.5" cx="477" cy="311"></circle><circle r="4.5" cx="511" cy="442"></circle><circle r="4.5" cx="399" cy="520"></circle><circle r="4.5" cx="286" cy="440"></circle><circle r="4.5" cx="322" cy="306"></circle><circle r="4.5" cx="462" cy="294"></circle><circle r="4.5" cx="523" cy="422"></circle><circle r="4.5" cx="421" cy="524"></circle><circle r="4.5" cx="290" cy="463"></circle><circle r="4.5" cx="302" cy="318"></circle><circle r="4.5" cx="444" cy="278"></circle><circle r="4.5" cx="531" cy="400"></circle><circle r="4.5" cx="446" cy="524"></circle><circle r="4.5" cx="299" cy="486"></circle><circle r="4.5" cx="283" cy="334"></circle><circle r="4.5" cx="422" cy="266"></circle><circle r="4.5" cx="534" cy="375"></circle><circle r="4.5" cx="471" cy="519"></circle><circle r="4.5" cx="312" cy="508"></circle><circle r="4.5" cx="267" cy="354"></circle><circle r="4.5" cx="397" cy="258"></circle><circle r="4.5" cx="533" cy="348"></circle><circle r="4.5" cx="495" cy="508"></circle><circle r="4.5" cx="330" cy="528"></circle><circle r="4.5" cx="255" cy="378"></circle><circle r="5" cx="370" cy="255"></circle><circle r="5" cx="527" cy="322"></circle><circle r="5" cx="518" cy="493"></circle><circle r="5" cx="353" cy="544"></circle><circle r="5" cx="247" cy="405"></circle><circle r="5" cx="342" cy="257"></circle><circle r="5" cx="515" cy="296"></circle><circle r="5" cx="538" cy="473"></circle><circle r="5" cx="379" cy="556"></circle><circle r="5" cx="245" cy="434"></circle><circle r="5" cx="314" cy="265"></circle><circle r="5" cx="498" cy="272"></circle><circle r="5" cx="555" cy="448"></circle><circle r="5" cx="408" cy="563"></circle><circle r="5" cx="248" cy="464"></circle><circle r="5" cx="287" cy="279"></circle><circle r="5" cx="475" cy="251"></circle><circle r="5" cx="567" cy="420"></circle><circle r="5" cx="439" cy="565"></circle><circle r="5" cx="257" cy="494"></circle><circle r="5" cx="261" cy="298"></circle><circle r="5" cx="449" cy="234"></circle><circle r="5" cx="574" cy="388"></circle><circle r="5" cx="471" cy="561"></circle><circle r="5" cx="273" cy="523"></circle><circle r="5" cx="240" cy="322"></circle><circle r="5.5" cx="418" cy="221"></circle><circle r="5.5" cx="575" cy="355"></circle><circle r="5.5" cx="503" cy="550"></circle><circle r="5.5" cx="294" cy="549"></circle><circle r="5.5" cx="222" cy="351"></circle><circle r="5.5" cx="385" cy="215"></circle><circle r="5.5" cx="570" cy="322"></circle><circle r="5.5" cx="533" cy="533"></circle><circle r="5.5" cx="320" cy="571"></circle><circle r="5.5" cx="210" cy="384"></circle><circle r="5.5" cx="350" cy="215"></circle><circle r="5.5" cx="557" cy="289"></circle><circle r="5.5" cx="560" cy="510"></circle><circle r="5.5" cx="351" cy="589"></circle><circle r="5.5" cx="204" cy="419"></circle><circle r="5.5" cx="314" cy="222"></circle><circle r="5.5" cx="539" cy="257"></circle><circle r="5.5" cx="583" cy="482"></circle><circle r="5.5" cx="386" cy="601"></circle><circle r="5.5" cx="205" cy="456"></circle><circle r="5.5" cx="280" cy="235"></circle><circle r="5.5" cx="514" cy="229"></circle><circle r="5.5" cx="600" cy="449"></circle><circle r="5.5" cx="423" cy="606"></circle><circle r="5.5" cx="213" cy="493"></circle><circle r="5.5" cx="247" cy="256"></circle><circle r="6" cx="483" cy="206"></circle><circle r="6" cx="612" cy="412"></circle><circle r="6" cx="462" cy="604"></circle><circle r="6" cx="229" cy="529"></circle><circle r="6" cx="218" cy="283"></circle><circle r="6" cx="448" cy="188"></circle><circle r="6" cx="617" cy="372"></circle><circle r="6" cx="501" cy="595"></circle><circle r="6" cx="251" cy="563"></circle><circle r="6" cx="195" cy="316"></circle><circle r="6" cx="409" cy="177"></circle><circle r="6" cx="614" cy="331"></circle><circle r="6" cx="539" cy="578"></circle><circle r="6" cx="280" cy="593"></circle><circle r="6" cx="177" cy="353"></circle><circle r="6" cx="367" cy="173"></circle><circle r="6" cx="603" cy="290"></circle><circle r="6" cx="574" cy="554"></circle><circle r="6" cx="315" cy="617"></circle><circle r="6" cx="166" cy="394"></circle><circle r="6" cx="324" cy="177"></circle><circle r="6" cx="584" cy="251"></circle><circle r="6" cx="604" cy="523"></circle><circle r="6" cx="355" cy="635"></circle><circle r="6" cx="163" cy="438"></circle><circle r="6" cx="282" cy="189"></circle><circle r="6.5" cx="558" cy="216"></circle><circle r="6.5" cx="629" cy="486"></circle><circle r="6.5" cx="398" cy="645"></circle><circle r="6.5" cx="168" cy="483"></circle><circle r="6.5" cx="242" cy="209"></circle><circle r="6.5" cx="525" cy="185"></circle><circle r="6.5" cx="646" cy="444"></circle><circle r="6.5" cx="444" cy="648"></circle><circle r="6.5" cx="181" cy="527"></circle><circle r="6.5" cx="205" cy="238"></circle><circle r="6.5" cx="486" cy="160"></circle><circle r="6.5" cx="656" cy="398"></circle><circle r="6.5" cx="490" cy="641"></circle><circle r="6.5" cx="204" cy="568"></circle><circle r="6.5" cx="173" cy="273"></circle><circle r="6.5" cx="442" cy="142"></circle><circle r="6.5" cx="658" cy="350"></circle><circle r="6.5" cx="536" cy="626"></circle><circle r="6.5" cx="234" cy="606"></circle><circle r="6.5" cx="148" cy="314"></circle><circle r="6.5" cx="394" cy="133"></circle><circle r="6.5" cx="650" cy="302"></circle><circle r="6.5" cx="579" cy="602"></circle><circle r="6.5" cx="271" cy="638"></circle><circle r="6.5" cx="131" cy="361"></circle><circle r="7" cx="344" cy="132"></circle><circle r="7" cx="633" cy="255"></circle><circle r="7" cx="617" cy="570"></circle><circle r="7" cx="315" cy="664"></circle><circle r="7" cx="122" cy="411"></circle><circle r="7" cx="294" cy="141"></circle><circle r="7" cx="607" cy="211"></circle><circle r="7" cx="650" cy="530"></circle><circle r="7" cx="364" cy="681"></circle><circle r="7" cx="123" cy="463"></circle><circle r="7" cx="245" cy="160"></circle><circle r="7" cx="573" cy="171"></circle><circle r="7" cx="675" cy="484"></circle><circle r="7" cx="416" cy="689"></circle><circle r="7" cx="133" cy="514"></circle><circle r="7" cx="200" cy="188"></circle><circle r="7" cx="531" cy="138"></circle><circle r="7" cx="692" cy="433"></circle><circle r="7" cx="469" cy="687"></circle><circle r="7" cx="153" cy="565"></circle><circle r="7" cx="160" cy="224"></circle><circle r="7" cx="483" cy="113"></circle><circle r="7" cx="700" cy="379"></circle><circle r="7" cx="523" cy="675"></circle><circle r="7" cx="183" cy="611"></circle><circle r="7" cx="126" cy="268"></circle><circle r="7.5" cx="430" cy="96"></circle><circle r="7.5" cx="697" cy="323"></circle><circle r="7.5" cx="575" cy="653"></circle><circle r="7.5" cx="222" cy="652"></circle><circle r="7.5" cx="101" cy="319"></circle><circle r="7.5" cx="373" cy="90"></circle><circle r="7.5" cx="683" cy="268"></circle><circle r="7.5" cx="622" cy="621"></circle><circle r="7.5" cx="268" cy="686"></circle><circle r="7.5" cx="85" cy="374"></circle><circle r="7.5" cx="316" cy="94"></circle><circle r="7.5" cx="659" cy="215"></circle><circle r="7.5" cx="664" cy="581"></circle><circle r="7.5" cx="321" cy="711"></circle><circle r="7.5" cx="79" cy="432"></circle><circle r="7.5" cx="259" cy="109"></circle><circle r="7.5" cx="626" cy="167"></circle><circle r="7.5" cx="698" cy="532"></circle><circle r="7.5" cx="378" cy="726"></circle><circle r="7.5" cx="85" cy="492"></circle><circle r="7.5" cx="205" cy="135"></circle><circle r="7.5" cx="583" cy="124"></circle><circle r="7.5" cx="723" cy="477"></circle><circle r="7.5" cx="439" cy="731"></circle><circle r="7.5" cx="101" cy="551"></circle><circle r="7.5" cx="155" cy="171"></circle><circle r="8" cx="532" cy="90"></circle><circle r="8" cx="738" cy="417"></circle><circle r="8" cx="500" cy="724"></circle><circle r="8" cx="129" cy="606"></circle><circle r="8" cx="112" cy="216"></circle><circle r="8" cx="474" cy="65"></circle><circle r="8" cx="741" cy="355"></circle><circle r="8" cx="560" cy="706"></circle><circle r="8" cx="167" cy="657"></circle><circle r="8" cx="78" cy="269"></circle><circle r="8" cx="412" cy="51"></circle><circle r="8" cx="733" cy="291"></circle><circle r="8" cx="617" cy="676"></circle><circle r="8" cx="214" cy="700"></circle><circle r="8" cx="53" cy="329"></circle><circle r="8" cx="348" cy="49"></circle><circle r="8" cx="713" cy="230"></circle><circle r="8" cx="668" cy="636"></circle><circle r="8" cx="270" cy="734"></circle><circle r="8" cx="40" cy="393"></circle><circle r="8" cx="283" cy="58"></circle><circle r="8" cx="681" cy="172"></circle><circle r="8" cx="712" cy="586"></circle><circle r="8" cx="332" cy="758"></circle><circle r="8" cx="39" cy="459"></circle><circle r="8" cx="219" cy="80"></circle><circle r="8.5" cx="639" cy="120"></circle><circle r="8.5" cx="747" cy="529"></circle><circle r="8.5" cx="398" cy="771"></circle><circle r="8.5" cx="50" cy="526"></circle><circle r="8.5" cx="160" cy="114"></circle><circle r="8.5" cx="587" cy="75"></circle><circle r="8.5" cx="770" cy="464"></circle><circle r="8.5" cx="467" cy="771"></circle><circle r="8.5" cx="73" cy="591"></circle><circle r="8.5" cx="107" cy="158"></circle><circle r="8.5" cx="527" cy="41"></circle><circle r="8.5" cx="782" cy="396"></circle><circle r="8.5" cx="536" cy="758"></circle><circle r="8.5" cx="109" cy="651"></circle><circle r="8.5" cx="63" cy="213"></circle><circle r="8.5" cx="460" cy="18"></circle><circle r="8.5" cx="781" cy="325"></circle><circle r="8.5" cx="602" cy="733"></circle><circle r="8.5" cx="156" cy="705"></circle><circle r="8.5" cx="29" cy="275"></circle><circle r="8.5" cx="390" cy="7"></circle><circle r="8.5" cx="766" cy="255"></circle><circle r="8.5" cx="663" cy="695"></circle><circle r="8.5" cx="213" cy="750"></circle><circle r="8.5" cx="6" cy="344"></circle><circle r="8.5" cx="317" cy="10"></circle><circle r="9" cx="739" cy="187"></circle><circle r="9" cx="717" cy="646"></circle><circle r="9" cx="278" cy="784"></circle><circle r="9" cx="-4" cy="417"></circle><circle r="9" cx="245" cy="26"></circle><circle r="9" cx="699" cy="125"></circle><circle r="9" cx="762" cy="587"></circle><circle r="9" cx="349" cy="806"></circle><circle r="9" cx="0" cy="492"></circle><circle r="9" cx="176" cy="55"></circle><circle r="9" cx="648" cy="70"></circle><circle r="9" cx="796" cy="519"></circle><circle r="9" cx="424" cy="814"></circle><circle r="9" cx="18" cy="565"></circle><circle r="9" cx="113" cy="97"></circle><circle r="9" cx="586" cy="25"></circle><circle r="9" cx="817" cy="446"></circle><circle r="9" cx="500" cy="809"></circle><circle r="9" cx="50" cy="636"></circle><circle r="9" cx="57" cy="151"></circle><circle r="9" cx="516" cy="-8"></circle><circle r="9" cx="825" cy="369"></circle><circle r="9" cx="576" cy="789"></circle><circle r="9" cx="94" cy="700"></circle><circle r="9" cx="12" cy="215"></circle><circle r="9" cx="441" cy="-29"></circle><circle r="9.5" cx="818" cy="290"></circle><circle r="9.5" cx="647" cy="756"></circle><circle r="9.5" cx="150" cy="755"></circle><circle r="9.5" cx="-21" cy="287"></circle><circle r="9.5" cx="361" cy="-35"></circle><circle r="9.5" cx="796" cy="213"></circle><circle r="9.5" cx="712" cy="709"></circle><circle r="9.5" cx="217" cy="801"></circle><circle r="9.5" cx="-40" cy="365"></circle><circle r="9.5" cx="281" cy="-27"></circle><circle r="9.5" cx="761" cy="141"></circle><circle r="9.5" cx="768" cy="650"></circle><circle r="9.5" cx="291" cy="833"></circle><circle r="9.5" cx="-45" cy="447"></circle><circle r="9.5" cx="203" cy="-3"></circle><circle r="9.5" cx="712" cy="75"></circle><circle r="9.5" cx="813" cy="582"></circle><circle r="9.5" cx="371" cy="852"></circle><circle r="9.5" cx="-35" cy="529"></circle><circle r="9.5" cx="129" cy="35"></circle><circle r="9.5" cx="651" cy="19"></circle><circle r="9.5" cx="846" cy="505"></circle><circle r="9.5" cx="455" cy="856"></circle><circle r="9.5" cx="-10" cy="609"></circle><circle r="9.5" cx="62" cy="86"></circle><circle r="9.5" cx="579" cy="-26"></circle><circle r="10" cx="863" cy="422"></circle><circle r="10" cx="539" cy="844"></circle><circle r="10" cx="30" cy="684"></circle><circle r="10" cx="5" cy="149"></circle><circle r="10" cx="500" cy="-58"></circle><circle r="10" cx="866" cy="336"></circle><circle r="10" cx="620" cy="816"></circle><circle r="10" cx="84" cy="751"></circle><circle r="10" cx="-39" cy="223"></circle><circle r="10" cx="415" cy="-74"></circle><circle r="10" cx="852" cy="251"></circle><circle r="10" cx="696" cy="774"></circle><circle r="10" cx="150" cy="808"></circle><circle r="10" cx="-70" cy="305"></circle><circle r="10" cx="328" cy="-75"></circle><circle r="10" cx="823" cy="168"></circle><circle r="10" cx="764" cy="718"></circle><circle r="10" cx="226" cy="852"></circle><circle r="10" cx="-86" cy="392"></circle><circle r="10" cx="240" cy="-60"></circle><circle r="10" cx="778" cy="91"></circle><circle r="10" cx="821" cy="649"></circle><circle r="10" cx="310" cy="882"></circle><circle r="10" cx="-85" cy="482"></circle><circle r="10" cx="156" cy="-28"></circle><circle r="10" cx="719" cy="23"></circle><circle r="10.5" cx="865" cy="571"></circle><circle r="10.5" cx="400" cy="897"></circle><circle r="10.5" cx="-68" cy="571"></circle><circle r="10.5" cx="78" cy="19"></circle><circle r="10.5" cx="648" cy="-34"></circle><circle r="10.5" cx="894" cy="484"></circle><circle r="10.5" cx="491" cy="894"></circle><circle r="10.5" cx="-34" cy="656"></circle><circle r="10.5" cx="9" cy="80"></circle><circle r="10.5" cx="567" cy="-78"></circle><circle r="10.5" cx="908" cy="392"></circle><circle r="10.5" cx="582" cy="875"></circle><circle r="10.5" cx="15" cy="735"></circle><circle r="10.5" cx="-48" cy="153"></circle><circle r="10.5" cx="478" cy="-107"></circle><circle r="10.5" cx="904" cy="299"></circle><circle r="10.5" cx="669" cy="839"></circle><circle r="10.5" cx="79" cy="804"></circle><circle r="10.5" cx="-91" cy="237"></circle><circle r="10.5" cx="384" cy="-118"></circle><circle r="10.5" cx="883" cy="207"></circle><circle r="10.5" cx="748" cy="788"></circle><circle r="10.5" cx="155" cy="861"></circle><circle r="10.5" cx="-119" cy="328"></circle><circle r="10.5" cx="289" cy="-113"></circle><circle r="11" cx="844" cy="119"></circle><circle r="11" cx="818" cy="721"></circle><circle r="11" cx="241" cy="904"></circle><circle r="11" cx="-129" cy="424"></circle><circle r="11" cx="195" cy="-90"></circle><circle r="11" cx="790" cy="38"></circle><circle r="11" cx="875" cy="643"></circle><circle r="11" cx="335" cy="931"></circle><circle r="11" cx="-122" cy="522"></circle><circle r="11" cx="106" cy="-49"></circle><circle r="11" cx="721" cy="-32"></circle><circle r="11" cx="917" cy="554"></circle><circle r="11" cx="433" cy="940"></circle><circle r="11" cx="-96" cy="617"></circle><circle r="11" cx="25" cy="8"></circle><circle r="11" cx="640" cy="-88"></circle><circle r="11" cx="942" cy="458"></circle><circle r="11" cx="532" cy="930"></circle><circle r="11" cx="-54" cy="707"></circle><circle r="11" cx="-45" cy="79"></circle><circle r="11" cx="549" cy="-130"></circle><circle r="11" cx="950" cy="358"></circle><circle r="11" cx="629" cy="903"></circle><circle r="11" cx="6" cy="789"></circle><circle r="11" cx="-102" cy="163"></circle><circle r="11" cx="450" cy="-154"></circle><circle r="11.5" cx="939" cy="256"></circle><circle r="11.5" cx="721" cy="858"></circle><circle r="11.5" cx="80" cy="859"></circle><circle r="11.5" cx="-143" cy="257"></circle><circle r="11.5" cx="348" cy="-160"></circle><circle r="11.5" cx="909" cy="158"></circle><circle r="11.5" cx="803" cy="796"></circle><circle r="11.5" cx="166" cy="916"></circle><circle r="11.5" cx="-166" cy="358"></circle><circle r="11.5" cx="245" cy="-147"></circle><circle r="11.5" cx="862" cy="66"></circle><circle r="11.5" cx="873" cy="719"></circle><circle r="11.5" cx="263" cy="956"></circle><circle r="11.5" cx="-170" cy="462"></circle><circle r="11.5" cx="145" cy="-115"></circle><circle r="11.5" cx="797" cy="-17"></circle><circle r="11.5" cx="929" cy="630"></circle><circle r="11.5" cx="366" cy="977"></circle><circle r="11.5" cx="-155" cy="567"></circle><circle r="11.5" cx="52" cy="-65"></circle><circle r="11.5" cx="718" cy="-88"></circle><circle r="11.5" cx="968" cy="531"></circle><circle r="11.5" cx="472" cy="980"></circle><circle r="11.5" cx="-121" cy="668"></circle><circle r="11.5" cx="-31" cy="2"></circle><circle r="11.5" cx="626" cy="-143"></circle><circle r="12" cx="989" cy="426"></circle><circle r="12" cx="578" cy="963"></circle><circle r="12" cx="-68" cy="762"></circle><circle r="12" cx="-102" cy="84"></circle><circle r="12" cx="525" cy="-181"></circle><circle r="12" cx="990" cy="317"></circle><circle r="12" cx="681" cy="926"></circle><circle r="12" cx="1" cy="846"></circle><circle r="12" cx="-157" cy="178"></circle><circle r="12" cx="417" cy="-200"></circle><circle r="12" cx="971" cy="209"></circle><circle r="12" cx="776" cy="871"></circle><circle r="12" cx="86" cy="916"></circle><circle r="12" cx="-194" cy="282"></circle><circle r="12" cx="306" cy="-199"></circle><circle r="12" cx="932" cy="106"></circle><circle r="12" cx="860" cy="799"></circle><circle r="12" cx="183" cy="970"></circle><circle r="12" cx="-211" cy="392"></circle><circle r="12" cx="197" cy="-178"></circle><circle r="12" cx="874" cy="10"></circle><circle r="12" cx="930" cy="711"></circle><circle r="12" cx="290" cy="1006"></circle><circle r="12" cx="-208" cy="505"></circle><circle r="12" cx="92" cy="-136"></circle><circle r="12" cx="799" cy="-75"></circle><circle r="12.5" cx="984" cy="612"></circle><circle r="12.5" cx="402" cy="1022"></circle><circle r="12.5" cx="-185" cy="616"></circle><circle r="12.5" cx="-5" cy="-76"></circle><circle r="12.5" cx="709" cy="-145"></circle><circle r="12.5" cx="1019" cy="503"></circle><circle r="12.5" cx="516" cy="1018"></circle><circle r="12.5" cx="-141" cy="722"></circle><circle r="12.5" cx="-89" cy="2"></circle><circle r="12.5" cx="606" cy="-198"></circle><circle r="12.5" cx="1033" cy="388"></circle><circle r="12.5" cx="629" cy="992"></circle><circle r="12.5" cx="-78" cy="819"></circle></g></svg>