<?xml version="1.0" encoding="utf-8"?>
<!-- Generator: Adobe Illustrator 25.3.0, SVG Export Plug-In . SVG Version: 6.00 Build 0)  -->
<svg version="1.1" id="sw-js-blob-svg" xmlns="http://www.w3.org/2000/svg" xmlns:xlink="http://www.w3.org/1999/xlink" x="0px"
	 y="0px" viewBox="0 0 100 100" style="enable-background:new 0 0 100 100;" xml:space="preserve">
<style type="text/css">
	.st0{fill:#333333;}
</style>
<path class="st0" d="M92.8,19.1l0,53c0,3-2.5,5.5-5.5,5.5l-0.2,0c-3,0-5.5-2.5-5.5-5.5l0-53c0-3,2.5-5.5,5.5-5.5l0.2,0
	C90.4,13.5,92.8,16,92.8,19.1z"/>
<path class="st0" d="M79.4,7.5l0,53c0,3-2.5,5.5-5.5,5.5l-0.2,0c-3,0-5.5-2.5-5.5-5.5l0-53c0-3,2.5-5.5,5.5-5.5l0.2,0
	C76.9,2,79.4,4.5,79.4,7.5z"/>
<path class="st0" d="M64.7,39.5l0,53c0,3-2.5,5.5-5.5,5.5l-0.2,0c-3,0-5.5-2.5-5.5-5.5l0-53c0-3,2.5-5.5,5.5-5.5l0.2,0
	C62.2,34,64.7,36.5,64.7,39.5z"/>
<path class="st0" d="M48.7,31l0,53c0,3-2.5,5.5-5.5,5.5l-0.2,0c-3,0-5.5-2.5-5.5-5.5l0-53c0-3,2.5-5.5,5.5-5.5l0.2,0
	C46.3,25.5,48.7,28,48.7,31z"/>
<path class="st0" d="M33.8,19l0,53c0,3-2.5,5.5-5.5,5.5l-0.2,0c-3,0-5.5-2.5-5.5-5.5l0-53c0-3,2.5-5.5,5.5-5.5l0.2,0
	C31.3,13.5,33.8,16,33.8,19z"/>
<path class="st0" d="M18.8,7.5l0,53c0,3-2.5,5.5-5.5,5.5L13,66c-3,0-5.5-2.5-5.5-5.5l0-53c0-3,2.5-5.5,5.5-5.5l0.2,0
	C16.3,2,18.8,4.4,18.8,7.5z"/>
</svg>
