<?xml version="1.0" encoding="utf-8"?>
<!-- Generator: Adobe Illustrator 25.3.0, SVG Export Plug-In . SVG Version: 6.00 Build 0)  -->
<svg version="1.1" id="sw-js-blob-svg" xmlns="http://www.w3.org/2000/svg" xmlns:xlink="http://www.w3.org/1999/xlink" x="0px"
	 y="0px" viewBox="0 0 100 100" style="enable-background:new 0 0 100 100;" xml:space="preserve">

<path class="st0" d="M18.6,33.7c0.2,6.9-8.3,13.5-12.5,22.8C2.8,64,7.7,74.2,13.9,79.4s17.9,5.9,30,5c12.1-0.9,19.9-4.8,23.2-7
	C70.4,75,83,68,81.9,55.5S57.5,25.1,57.5,25.1S45.7,15.5,42.2,11S29,1.7,19.8,2.8S3,6.6,7.3,17.4S18.4,26.2,18.6,33.7z"/>
<path class="st0" d="M69.7,8.2c0,0-4.7,7.7-1.4,12.5c3.3,4.8,16.7,8.1,16.7,8.1s7.3,2.2,10.7-6.3c3.4-8.5,3.8-13-2.1-15
	s-17.3-7.2-20-4.4S69.7,8.2,69.7,8.2z"/>
<path class="st0" d="M52.4,89.4c0,0,21.8-5.6,29.6,0s0,7.4,0,7.4s-27.2,3.8-29.6-0.4C50,92.3,52.4,89.4,52.4,89.4z"/>
</svg>
