<?xml version="1.0" encoding="utf-8"?>
<!-- Generator: Adobe Illustrator 25.3.0, SVG Export Plug-In . SVG Version: 6.00 Build 0)  -->
<svg version="1.1" id="sw-js-blob-svg" xmlns="http://www.w3.org/2000/svg" xmlns:xlink="http://www.w3.org/1999/xlink" x="0px"
	 y="0px" viewBox="0 0 100 100" style="enable-background:new 0 0 100 100;" xml:space="preserve">
<style type="text/css">
	.st0{fill:#333333;}
</style>
<path class="st0" d="M32.6,50c0,0-7.2,3-9.4,7.9s-5.7,13.8-2.9,20.5C23.2,85,24.2,93,41,94.5c16.8,1.6,29.2,3.5,37.2,2.2
	c8-1.3,15-6.7,12.7-15.3c-2.3-8.6,1.3-10.7-6-22.7c-7.3-12-4.2-14.3-13.4-20.3s-11.3-11.9-19.7-8.3s-13.2,2.7-17.2,7
	S32.6,50,32.6,50z"/>
<ellipse transform="matrix(0.9628 -0.2702 0.2702 0.9628 -7.0507 5.2395)" class="st0" cx="15.5" cy="28.2" rx="6.2" ry="12.7"/>
<ellipse transform="matrix(0.9854 -0.1705 0.1705 0.9854 -2.3298 7.428)" class="st0" cx="42.1" cy="17.3" rx="6.3" ry="11.9"/>
<ellipse transform="matrix(0.9854 -0.1705 0.1705 0.9854 -1.4358 12.2794)" class="st0" cx="70.8" cy="14.5" rx="6.5" ry="11.4"/>
</svg>
