<?xml version="1.0" encoding="utf-8"?>
<!-- Generator: Adobe Illustrator 25.3.0, SVG Export Plug-In . SVG Version: 6.00 Build 0)  -->
<svg version="1.1" id="sw-js-blob-svg" xmlns="http://www.w3.org/2000/svg" xmlns:xlink="http://www.w3.org/1999/xlink" x="0px"
	 y="0px" viewBox="0 0 100 100" style="enable-background:new 0 0 100 100;" xml:space="preserve">
<style type="text/css">
	.st0{fill:#333333;}
</style>
<path class="st0" d="M-30.2,59.8c0,0,12.9-15,27.1-15.8s26.8,6.1,33.4,7.7c6.6,1.6,23.7,3.7,35.1-4.6s22.5-11,34.6-8.9
	s13.1,5.8,21.7,16.2s22,16.8,22,16.8V0H-30.2V59.8z"/>
<path class="st0" d="M143.6,40.5c0,0-12.8,15-27.1,15.9c-14.3,0.8-26.8-6-33.4-7.6c-6.6-1.6-23.8-3.7-35.1,4.7s-22.5,11.1-34.5,9
	c-12-2.1-13.1-5.8-21.7-16.1s-22-16.7-22-16.7l0.2,71.3l173.9-0.5L143.6,40.5z"/>
</svg>
