<?xml version="1.0" encoding="utf-8"?>
<!-- Generator: Adobe Illustrator 25.3.0, SVG Export Plug-In . SVG Version: 6.00 Build 0)  -->
<svg version="1.1" id="sw-js-blob-svg" xmlns="http://www.w3.org/2000/svg" xmlns:xlink="http://www.w3.org/1999/xlink" x="0px"
	 y="0px" viewBox="0 0 100 100" style="enable-background:new 0 0 100 100;" xml:space="preserve">
<style type="text/css">
	.st0{fill:#333333;}
</style>
<path class="st0" d="M-0.6-10.8l28.5,44l30.8-44l5.2,4.1c0,0-33.4,52-35.5,52S-4.4-6.2-4.4-6.2L-0.6-10.8z"/>
<path class="st0" d="M-0.6,7l28.5,44L58.7,7l5.2,4.1c0,0-33.4,52-35.5,52S-4.4,11.6-4.4,11.6L-0.6,7z"/>
<path class="st0" d="M-1.9,25.1l28.5,44l30.8-44l5.2,4.1c0,0-33.4,52-35.5,52S-5.7,29.6-5.7,29.6L-1.9,25.1z"/>
<path class="st0" d="M57.5,99.9L28.8,56l-30.7,44.1L-7,96c0,0,33.2-52.2,35.3-52.2c2.1,0,32.9,51.4,32.9,51.4L57.5,99.9z"/>
<path class="st0" d="M57.5,88.7L28.8,44.8L-1.8,88.9L-7,84.8c0,0,33.2-52.2,35.3-52.2c2.1,0,32.9,51.4,32.9,51.4L57.5,88.7z"/>
<path class="st0" d="M123.5,121.3L94.8,77.4l-30.7,44.1l-5.2-4.1c0,0,33.2-52.2,35.3-52.2s32.9,51.4,32.9,51.4L123.5,121.3z"/>
<path class="st0" d="M113.1,78.4L84.4,34.5L53.8,78.6l-5.2-4.1c0,0,33.2-52.2,35.3-52.2c2.1,0,32.9,51.4,32.9,51.4L113.1,78.4z"/>
<path class="st0" d="M56.5,126.4L27.9,82.5l-30.7,44.1l-5.2-4.1c0,0,33.2-52.2,35.3-52.2c2.1,0,32.9,51.4,32.9,51.4L56.5,126.4z"/>
<path class="st0" d="M60.4-11.4l23,35.1l24.8-35.1l4.2,3.3c0,0-26.9,41.5-28.6,41.5c-1.7,0-26.3-41.1-26.3-41.1L60.4-11.4z"/>
<path class="st0" d="M60.4,2.3l23,35.1l24.8-35.1l4.2,3.3c0,0-26.9,41.5-28.6,41.5C82.1,47.1,57.4,6,57.4,6L60.4,2.3z"/>
<path class="st0" d="M59.4,17.2l23,35.1l24.8-35.1l4.2,3.3c0,0-26.9,41.5-28.6,41.5c-1.7,0-26.3-41.1-26.3-41.1L59.4,17.2z"/>
<path class="st0" d="M58.2,32.2l23,35.1L106,32.2l4.2,3.3c0,0-26.9,41.5-28.6,41.5c-1.7,0-26.3-41.1-26.3-41.1L58.2,32.2z"/>
<path class="st0" d="M43.5,74.2l23,35.1l24.8-35.1l4.2,3.3c0,0-26.9,41.5-28.6,41.5c-1.7,0-26.3-41.1-26.3-41.1L43.5,74.2z"/>
<path class="st0" d="M45,58.8l23,35.1l24.8-35.1l4.2,3.3c0,0-26.9,41.5-28.6,41.5c-1.7,0-26.3-41.1-26.3-41.1L45,58.8z"/>
<path class="st0" d="M44.5,42.1l23,35.1l24.8-35.1l4.2,3.3c0,0-26.9,41.5-28.6,41.5c-1.7,0-26.3-41.1-26.3-41.1L44.5,42.1z"/>
</svg>
