<?xml version="1.0" encoding="utf-8"?>
<!-- Generator: Adobe Illustrator 25.3.0, SVG Export Plug-In . SVG Version: 6.00 Build 0)  -->
<svg version="1.1" id="sw-js-blob-svg" xmlns="http://www.w3.org/2000/svg" xmlns:xlink="http://www.w3.org/1999/xlink" x="0px"
	 y="0px" viewBox="0 0 100 100" style="enable-background:new 0 0 100 100;" xml:space="preserve">
<style type="text/css">
	.st0{fill:#333333;}
</style>
<polygon class="st0" points="12.9,35.1 8.9,65.8 65.8,66 65.9,35.2 "/>
<polygon class="st0" points="19.4,80.8 15.9,102 66.4,102.1 66.4,80.9 "/>
<polygon class="st0" points="1.3,14.1 -2.1,35.4 48.3,35.5 48.4,14.2 "/>
<polygon class="st0" points="3.4,65.3 1,80.7 34.7,80.8 34.7,65.4 "/>
<polygon class="st0" points="-11.8,98.2 -3.4,111.4 22.1,89.5 12.1,77.8 "/>
<polygon class="st0" points="42.1,65.3 39.8,80.7 73.4,80.8 73.5,65.4 "/>
<polygon class="st0" points="67.5,24.1 65.2,39.5 98.9,39.6 98.9,24.2 "/>
<polygon class="st0" points="9.8,-1.4 7.5,14.1 41.1,14.1 41.2,-1.3 "/>
<polygon class="st0" points="54,1.3 46.8,15.1 78.6,26.1 83.7,11.5 "/>
<polygon class="st0" points="77.9,1.3 70.7,15.1 102.5,26.1 107.5,11.5 "/>
<polygon class="st0" points="71.5,39.6 69.6,104.1 94.4,104.1 94.5,39.6 "/>
</svg>
