<!--?xml version="1.0" standalone="no"?-->
              <svg id="sw-js-blob-svg" viewBox="0 0 100 100" xmlns="http://www.w3.org/2000/svg" version="1.1">
                    <defs> 
                        <!-- <linearGradient id="sw-gradient" x1="0" x2="1" y1="1" y2="0">
                            <stop id="stop1" stop-color="rgba(248, 117, 55, 1)" offset="0%"></stop>
                            <stop id="stop2" stop-color="rgba(247.102, 164.437, 27.989, 1)" offset="100%"></stop>
                        </linearGradient> -->
                        <!-- Définition du clipPath -->
    <clipPath id="myClipPath">
       <circle cx="50" cy="50" r="40" />
                 <!-- <path  fill="url(#sw-gradient)"  d="M22.9,-31.6C30.7,-25.9,38.6,-20.5,40.3,-13.5C41.9,-6.5,37.4,2.1,33.3,9.7C29.3,17.3,25.8,24,20.3,29.9C14.9,35.7,7.4,40.7,-0.5,41.4C-8.4,42,-16.8,38.4,-22.1,32.5C-27.3,26.6,-29.4,18.4,-30.6,10.8C-31.8,3.3,-32.3,-3.7,-30.4,-10C-28.5,-16.3,-24.3,-22,-18.8,-28.4C-13.4,-34.9,-6.7,-42.1,0.4,-42.8C7.6,-43.4,15.2,-37.4,22.9,-31.6Z" width="400px" height="400px" transform="translate(50 50)" stroke-width="0" style="transition: 0.3s;" stroke="url(#sw-gradient)" clip-path="url(#myClipPath)"></path>  -->
    </clipPath>
                    </defs>
              </svg>