<?xml version="1.0" encoding="utf-8"?>
<!-- Generator: Adobe Illustrator 25.3.0, SVG Export Plug-In . SVG Version: 6.00 Build 0)  -->
<svg version="1.1" id="sw-js-blob-svg" xmlns="http://www.w3.org/2000/svg" xmlns:xlink="http://www.w3.org/1999/xlink" x="0px"
	 y="0px" viewBox="0 0 100 100" style="enable-background:new 0 0 100 100;" xml:space="preserve">
<style type="text/css">
	.st0{fill:#333333;}
</style>
<polygon class="st0" points="0,68.2 12.2,47.3 25.8,69.6 33.2,58.5 42.2,72 47.7,49.3 55.2,82.2 69.5,41 82.3,75.1 100,41 100,78.5 
	100,100 0,100 "/>
<path class="st0" d="M0,27.7c0,0,6.6,5.6,18.3,4.7S43.8,24,43.8,24s11.1-7.4,18.5-5.6c7.4,1.8,11.3,5.1,16.4,7.8
	c5.1,2.7,6.8,4,14.1,4.6c7.3,0.5,7.2-1.8,7.2-1.8V0H0V27.7z"/>
<circle class="st0" cx="11.7" cy="42.4" r="6.8"/>
<circle class="st0" cx="56.8" cy="58.5" r="6.8"/>
<circle class="st0" cx="60.8" cy="45.8" r="6.8"/>
<circle class="st0" cx="68.5" cy="35.6" r="6.8"/>
<circle class="st0" cx="39.6" cy="56.1" r="6.8"/>
<circle class="st0" cx="25.9" cy="57.4" r="6.8"/>
<circle class="st0" cx="99.1" cy="35.6" r="6.8"/>
</svg>
