<?xml version="1.0" encoding="utf-8"?>
<!-- Generator: Adobe Illustrator 25.3.0, SVG Export Plug-In . SVG Version: 6.00 Build 0)  -->
<svg version="1.1" id="sw-js-blob-svg" xmlns="http://www.w3.org/2000/svg" xmlns:xlink="http://www.w3.org/1999/xlink" x="0px"
	 y="0px" viewBox="0 0 100 100" style="enable-background:new 0 0 100 100;" xml:space="preserve">
<style type="text/css">
	.st0{fill:#333333;}
</style>
<circle class="st0" cx="26.2" cy="27.5" r="10.2"/>
<circle class="st0" cx="40.9" cy="60.1" r="26.4"/>
<circle class="st0" cx="61.3" cy="31" r="11.1"/>
<circle class="st0" cx="35.4" cy="14.1" r="9.3"/>
<circle class="st0" cx="51.8" cy="17.3" r="8.4"/>
<circle class="st0" cx="22.1" cy="48.9" r="8.2"/>
<circle class="st0" cx="16.3" cy="86.5" r="10.8"/>
<circle class="st0" cx="63" cy="81.8" r="10.2"/>
<circle class="st0" cx="90.8" cy="69.9" r="10.2"/>
<circle class="st0" cx="82.3" cy="50.2" r="6.9"/>
<circle class="st0" cx="9" cy="26.2" r="8.9"/>
<circle class="st0" cx="89.1" cy="11.3" r="23.9"/>
<circle class="st0" cx="9" cy="67.3" r="6.2"/>
<circle class="st0" cx="49.2" cy="100" r="16.5"/>
<circle class="st0" cx="86.1" cy="92.8" r="3.1"/>
<circle class="st0" cx="69.4" cy="64.2" r="6.3"/>
<circle class="st0" cx="31.6" cy="88" r="5.5"/>
<circle class="st0" cx="13.5" cy="54.3" r="9.3"/>
<circle class="st0" cx="9.7" cy="8.9" r="4.1"/>
<circle class="st0" cx="89.6" cy="37.7" r="8.3"/>
<circle class="st0" cx="85.1" cy="62.8" r="5.7"/>
<circle class="st0" cx="90.6" cy="92" r="11.9"/>
</svg>
