<!--?xml version="1.0" standalone="no"?-->
              <svg id="sw-js-blob-svg" viewBox="0 0 100 100" xmlns="http://www.w3.org/2000/svg" version="1.1">
                    <defs> 
                        <linearGradient id="sw-gradient" x1="0" x2="1" y1="1" y2="0">
                            <stop id="stop1" stop-color="rgba(248, 117, 55, 1)" offset="0%"></stop>
                            <stop id="stop2" stop-color="rgba(251, 168, 31, 1)" offset="100%"></stop>
                        </linearGradient>
                    </defs>
                <path fill="none" d="M26.8,-34.1C34.4,-31.3,40.2,-23.1,40.6,-14.9C40.9,-6.6,35.9,1.7,32.1,9.5C28.2,17.2,25.6,24.5,20.5,29.7C15.4,35,7.7,38.2,1,36.9C-5.8,35.6,-11.5,29.7,-17.7,24.8C-23.9,19.9,-30.5,16,-35.2,9.5C-39.9,3.1,-42.7,-5.8,-39.8,-12.4C-36.9,-19,-28.4,-23.1,-20.8,-26C-13.2,-28.9,-6.6,-30.5,1.5,-32.5C9.6,-34.6,19.1,-37,26.8,-34.1Z" width="100%" height="100%" transform="translate(50 50)" stroke-width="1" style="transition: 0.3s;" stroke="rgba(248, 117, 55, 1)"></path>
              </svg>