<!--?xml version="1.0" standalone="no"?-->
              <svg id="sw-js-blob-svg" viewBox="0 0 100 100" xmlns="http://www.w3.org/2000/svg" version="1.1">
                    <defs> 
                        <linearGradient id="sw-gradient" x1="0" x2="1" y1="1" y2="0">
                            <stop id="stop1" stop-color="rgba(248, 117, 55, 1)" offset="0%"></stop>
                            <stop id="stop2" stop-color="rgba(251, 168, 31, 1)" offset="100%"></stop>
                        </linearGradient>
                    </defs>
                <path fill="none" d="M22.6,-30C29,-26.5,33.7,-19.5,36,-11.8C38.4,-4.1,38.5,4.2,36.4,12.3C34.4,20.4,30.3,28.2,23.9,32.2C17.4,36.3,8.7,36.5,-0.3,36.9C-9.2,37.2,-18.5,37.7,-24.3,33.4C-30.1,29.2,-32.5,20.3,-33.2,12.2C-33.9,4.1,-32.8,-3.1,-30.7,-10.1C-28.6,-17,-25.4,-23.8,-20.1,-27.6C-14.8,-31.5,-7.4,-32.4,0.4,-33C8.1,-33.5,16.3,-33.5,22.6,-30Z" width="100%" height="100%" transform="translate(50 50)" stroke-width="1" style="transition: 0.3s;" stroke="rgba(248, 117, 55, 1)"></path>
              </svg>