<!--?xml version="1.0" standalone="no"?-->
              <svg id="sw-js-blob-svg" viewBox="0 0 100 100" xmlns="http://www.w3.org/2000/svg" version="1.1">
                    <defs> 
                        <linearGradient id="sw-gradient" x1="0" x2="1" y1="1" y2="0">
                            <stop id="stop1" stop-color="rgba(248, 117, 55, 1)" offset="0%"></stop>
                            <stop id="stop2" stop-color="rgba(251, 168, 31, 1)" offset="100%"></stop>
                        </linearGradient>
                    </defs>
                <path fill="none" d="M23.3,-33.4C28.9,-27.9,31.4,-19.5,32,-11.7C32.7,-4,31.6,2.9,29.9,10.3C28.3,17.6,26.1,25.3,21,31.6C16,38,8,43,-0.9,44.2C-9.7,45.3,-19.4,42.7,-25.2,36.6C-30.9,30.5,-32.8,20.9,-35.6,11.7C-38.3,2.5,-42,-6.2,-39.4,-12.4C-36.8,-18.6,-27.9,-22.4,-20.3,-27.3C-12.7,-32.2,-6.3,-38.2,1.2,-39.9C8.8,-41.5,17.6,-39,23.3,-33.4Z" width="100%" height="100%" transform="translate(50 50)" stroke-width="1" style="transition: 0.3s;" stroke="rgba(248, 117, 55, 1)"></path>
              </svg>